<svg xmlns="http://www.w3.org/2000/svg" viewBox="0 0 166.36 232.9"><defs><style>.cls-1{fill:#fff;}.cls-2{fill:#151515;}.cls-3{fill:#272425;}</style></defs><g id="Layer_2" data-name="Layer 2"><g id="Objects"><rect class="cls-1" width="166.36" height="232.9" rx="5.94"/><path class="cls-1" d="M150,17.25a.57.57,0,1,1-.57-.57A.56.56,0,0,1,150,17.25Z"/><path class="cls-1" d="M122.89,17.25a.57.57,0,0,1-.57.56.57.57,0,1,1,0-1.13A.57.57,0,0,1,122.89,17.25Z"/><path class="cls-1" d="M72.88,17.43a.56.56,0,0,1-.57.56.57.57,0,0,1-.57-.56.58.58,0,0,1,.57-.57A.57.57,0,0,1,72.88,17.43Z"/><path class="cls-1" d="M150,38.24a.57.57,0,1,1-.57-.56A.56.56,0,0,1,150,38.24Z"/><path class="cls-1" d="M150,57.41a.57.57,0,1,1-.57-.57A.56.56,0,0,1,150,57.41Z"/><path class="cls-1" d="M19.72,17.81a.57.57,0,0,1-.57.57.58.58,0,0,1-.57-.57.57.57,0,0,1,.57-.56A.56.56,0,0,1,19.72,17.81Z"/><path class="cls-1" d="M47.16,17.43a.57.57,0,0,1-1.14,0,.57.57,0,0,1,1.14,0Z"/><path class="cls-1" d="M19.72,37.8a.56.56,0,0,1-.57.56.57.57,0,0,1-.57-.56.58.58,0,0,1,.57-.57A.57.57,0,0,1,19.72,37.8Z"/><path class="cls-1" d="M19.72,57.54a.56.56,0,0,1-.57.56.57.57,0,1,1,.57-.56Z"/><path class="cls-1" d="M19.72,77.35a.56.56,0,0,1-.57.56.57.57,0,1,1,.57-.56Z"/><path class="cls-1" d="M19.72,90.18a.57.57,0,0,1-.57.57.58.58,0,0,1-.57-.57.57.57,0,0,1,.57-.56A.56.56,0,0,1,19.72,90.18Z"/><path class="cls-1" d="M19.72,103.49a.56.56,0,0,1-.57.56.57.57,0,0,1-.57-.56.58.58,0,0,1,.57-.57A.57.57,0,0,1,19.72,103.49Z"/><path class="cls-1" d="M19.72,116.33a.56.56,0,0,1-.57.57.57.57,0,1,1,0-1.13A.56.56,0,0,1,19.72,116.33Z"/><path class="cls-1" d="M19.72,167.73a.56.56,0,0,1-.57.57.57.57,0,1,1,0-1.13A.56.56,0,0,1,19.72,167.73Z"/><path class="cls-1" d="M19.72,181a.57.57,0,0,1-.57.57.58.58,0,0,1-.57-.57.57.57,0,0,1,.57-.56A.56.56,0,0,1,19.72,181Z"/><path class="cls-1" d="M19.72,194a.56.56,0,0,1-.57.56.57.57,0,0,1-.57-.56.58.58,0,0,1,.57-.57A.57.57,0,0,1,19.72,194Z"/><path class="cls-1" d="M20,213.05a.56.56,0,0,1-.57.57.57.57,0,1,1,0-1.13A.56.56,0,0,1,20,213.05Z"/><path class="cls-1" d="M66.93,213.62a.57.57,0,0,1-.57.56.56.56,0,0,1-.57-.56.57.57,0,0,1,.57-.57A.58.58,0,0,1,66.93,213.62Z"/><path class="cls-1" d="M93.33,213.62a.56.56,0,0,1-.57.56.57.57,0,0,1-.57-.56.58.58,0,0,1,.57-.57A.57.57,0,0,1,93.33,213.62Z"/><path class="cls-1" d="M119.05,213.62a.57.57,0,0,1-1.13,0,.57.57,0,1,1,1.13,0Z"/><path class="cls-1" d="M150,154.48a.57.57,0,1,1-1.13,0,.57.57,0,0,1,1.13,0Z"/><path class="cls-1" d="M150,167.15a.57.57,0,0,1-1.13,0,.57.57,0,1,1,1.13,0Z"/><path class="cls-1" d="M150,179.64a.57.57,0,0,1-1.13,0,.57.57,0,1,1,1.13,0Z"/><path class="cls-1" d="M150,192.39a.57.57,0,1,1-1.13,0,.57.57,0,0,1,1.13,0Z"/><path class="cls-1" d="M150,211.83a.57.57,0,0,1-1.13,0,.57.57,0,1,1,1.13,0Z"/><path class="cls-2" d="M69.43,39.93c-3.58-3.88-9.07-1.58-9.07-1.58,1.53-1.63,2.56-2.93,2.37-5.6v-.27a7.75,7.75,0,0,0-15.49,0A7.37,7.37,0,0,0,47.4,34c.18,1.85,1.1,3,2.36,4.31,0,0-5.49-2.3-9.07,1.58a8,8,0,0,0-.66,10c1.12,1.52,2.81,4.06,6.79,3.76,3.51-.26,4-.85,6.45-2.77a15.79,15.79,0,0,1-3.51,8.88h10.6c-2-2-3.67-6.7-3.45-8.83,2.37,1.88,2.91,2.47,6.39,2.72,4,.3,5.67-2.24,6.79-3.76A8,8,0,0,0,69.43,39.93Z"/><path class="cls-2" d="M126.07,39.93c-3.57-3.88-9.07-1.58-9.07-1.58,1.54-1.63,2.56-2.93,2.37-5.6a2.44,2.44,0,0,0,0-.27,7.75,7.75,0,0,0-15.5,0A8.09,8.09,0,0,0,104,34c.18,1.85,1.1,3,2.37,4.31,0,0-5.5-2.3-9.08,1.58a8,8,0,0,0-.66,10c1.13,1.52,2.82,4.06,6.79,3.76,3.52-.26,4-.85,6.46-2.77a15.79,15.79,0,0,1-3.51,8.88H117c-2-2-3.67-6.7-3.44-8.83,2.36,1.88,2.9,2.47,6.39,2.72,4,.3,5.66-2.24,6.79-3.76A8,8,0,0,0,126.07,39.93Z"/><path class="cls-3" d="M16.47,23.35h1.89a.54.54,0,0,0,.39-.12.46.46,0,0,0,.13-.38V20.26H14v-.69l6-8.81h.7v8.81H23v.69H20.67v2.59a.49.49,0,0,0,.12.38.58.58,0,0,0,.4.12h1.88V24h-6.6Zm-1.63-3.78h4v-5.9Z"/><path class="cls-3" d="M151.75,204.7h-1.88a.58.58,0,0,0-.4.11.54.54,0,0,0-.13.39v2.58h4.93v.69l-6,8.81h-.7v-8.81h-2.35v-.69h2.35V205.2a.5.5,0,0,0-.13-.39.54.54,0,0,0-.39-.11h-1.89v-.62h6.6Zm1.63,3.77h-4v5.9Z"/><path class="cls-2" d="M14.2,32.89a2.46,2.46,0,0,0,2.62.45A1.9,1.9,0,0,0,16.13,35V35a2.24,2.24,0,0,0,4.48,0,2.14,2.14,0,0,0-.05-.45,2,2,0,0,0-.68-1.25,2.46,2.46,0,0,0,2.62-.45A2.31,2.31,0,0,0,22.69,30a2.07,2.07,0,0,0-2-1.09,2.57,2.57,0,0,0-1.87.8,4.59,4.59,0,0,1,1-2.56H16.82a4.25,4.25,0,0,1,1,2.55A2.46,2.46,0,0,0,16,28.91,2.1,2.1,0,0,0,14,30,2.31,2.31,0,0,0,14.2,32.89Z"/><path class="cls-2" d="M69.43,183.1c-3.58,3.88-9.07,1.58-9.07,1.58,1.53,1.63,2.56,2.92,2.37,5.6v.27a7.75,7.75,0,0,1-15.49,0A7.31,7.31,0,0,1,47.4,189c.18-1.85,1.1-3,2.36-4.31,0,0-5.49,2.3-9.07-1.58a8,8,0,0,1-.66-10c1.12-1.51,2.81-4,6.79-3.76,3.51.26,4,.86,6.45,2.78a15.79,15.79,0,0,0-3.51-8.88h10.6c-2,2-3.67,6.7-3.45,8.83,2.37-1.88,2.91-2.47,6.39-2.73,4-.29,5.67,2.25,6.79,3.76A8,8,0,0,1,69.43,183.1Z"/><path class="cls-2" d="M126.07,183.1c-3.57,3.88-9.07,1.58-9.07,1.58,1.54,1.63,2.56,2.92,2.37,5.6a2.44,2.44,0,0,1,0,.27,7.75,7.75,0,0,1-15.5,0A8,8,0,0,1,104,189c.18-1.85,1.1-3,2.37-4.31,0,0-5.5,2.3-9.08-1.58a8,8,0,0,1-.66-10c1.13-1.51,2.82-4,6.79-3.76,3.52.26,4,.86,6.46,2.78a15.79,15.79,0,0,0-3.51-8.88H117c-2,2-3.67,6.7-3.44,8.83,2.36-1.88,2.9-2.47,6.39-2.73,4-.29,5.66,2.25,6.79,3.76A8,8,0,0,1,126.07,183.1Z"/><path class="cls-2" d="M144.51,194.92a2.45,2.45,0,0,1,2.62-.46,1.89,1.89,0,0,1-.68-1.62.22.22,0,0,1,0-.08,2.24,2.24,0,0,1,4.48,0,2.14,2.14,0,0,1,0,.45,2,2,0,0,1-.68,1.25,2.45,2.45,0,0,1,2.62.46,2.28,2.28,0,0,1,.19,2.88,2.06,2.06,0,0,1-2,1.09,2.53,2.53,0,0,1-1.86-.8,4.54,4.54,0,0,0,1,2.56h-3.06a4.33,4.33,0,0,0,1-2.55,2.48,2.48,0,0,1-1.85.79,2.06,2.06,0,0,1-2-1.09A2.3,2.3,0,0,1,144.51,194.92Z"/></g></g></svg>