<svg xmlns="http://www.w3.org/2000/svg" viewBox="0 0 166.36 232.9"><defs><style>.cls-1{fill:#fff;}.cls-2{fill:#151515;}</style></defs><g id="Layer_2" data-name="Layer 2"><g id="Objects"><rect class="cls-1" width="166.36" height="232.9" rx="5.94"/><path class="cls-1" d="M144.76,16.12a.57.57,0,0,1-.57.57.58.58,0,0,1-.57-.57.57.57,0,0,1,.57-.57A.56.56,0,0,1,144.76,16.12Z"/><path class="cls-1" d="M117.63,16.12a.57.57,0,1,1-1.13,0,.57.57,0,1,1,1.13,0Z"/><path class="cls-1" d="M92.68,16.12a.57.57,0,1,1-1.14,0,.57.57,0,1,1,1.14,0Z"/><path class="cls-1" d="M67.63,16.3a.58.58,0,0,1-.57.57.57.57,0,1,1,0-1.14A.58.58,0,0,1,67.63,16.3Z"/><path class="cls-1" d="M144.76,37.26a.57.57,0,0,1-.57.57.58.58,0,0,1-.57-.57.57.57,0,0,1,.57-.57A.56.56,0,0,1,144.76,37.26Z"/><path class="cls-1" d="M144.76,56.55a.56.56,0,0,1-.57.57.57.57,0,0,1-.57-.57.58.58,0,0,1,.57-.57A.57.57,0,0,1,144.76,56.55Z"/><path class="cls-1" d="M144.76,76.77a.57.57,0,0,1-.57.57.58.58,0,0,1-.57-.57.57.57,0,0,1,.57-.57A.56.56,0,0,1,144.76,76.77Z"/><path class="cls-1" d="M144.76,89.55a.56.56,0,0,1-.57.57.57.57,0,0,1-.57-.57.58.58,0,0,1,.57-.57A.57.57,0,0,1,144.76,89.55Z"/><path class="cls-1" d="M144.76,102.38a.57.57,0,0,1-.57.57.57.57,0,0,1,0-1.14A.57.57,0,0,1,144.76,102.38Z"/><path class="cls-1" d="M14.47,16.69a.57.57,0,0,1-.57.56.57.57,0,1,1,0-1.13A.57.57,0,0,1,14.47,16.69Z"/><path class="cls-1" d="M41.91,16.3a.58.58,0,0,1-.57.57.57.57,0,0,1,0-1.14A.58.58,0,0,1,41.91,16.3Z"/><path class="cls-1" d="M14.47,36.81a.58.58,0,0,1-.57.57.57.57,0,1,1,0-1.14A.58.58,0,0,1,14.47,36.81Z"/><path class="cls-1" d="M14.47,56.68a.57.57,0,0,1-.57.57.56.56,0,0,1-.57-.57.57.57,0,0,1,.57-.57A.58.58,0,0,1,14.47,56.68Z"/><path class="cls-1" d="M14.47,76.63a.58.58,0,0,1-.57.57.57.57,0,0,1-.57-.57.56.56,0,0,1,.57-.57A.57.57,0,0,1,14.47,76.63Z"/><path class="cls-1" d="M14.47,89.55a.57.57,0,0,1-.57.57.56.56,0,0,1-.57-.57A.57.57,0,0,1,13.9,89,.58.58,0,0,1,14.47,89.55Z"/><path class="cls-1" d="M14.47,103a.58.58,0,0,1-.57.57.57.57,0,0,1,0-1.14A.58.58,0,0,1,14.47,103Z"/><path class="cls-1" d="M14.47,115.88a.57.57,0,0,1-.57.57.56.56,0,0,1-.57-.57.57.57,0,0,1,.57-.57A.58.58,0,0,1,14.47,115.88Z"/><path class="cls-1" d="M14.47,128.81a.57.57,0,0,1-.57.56.57.57,0,1,1,0-1.13A.57.57,0,0,1,14.47,128.81Z"/><path class="cls-1" d="M14.47,142.2a.57.57,0,0,1-.57.57.56.56,0,0,1-.57-.57.57.57,0,0,1,.57-.57A.58.58,0,0,1,14.47,142.2Z"/><path class="cls-1" d="M14.47,155.63a.57.57,0,0,1-.57.57.56.56,0,0,1-.57-.57.57.57,0,0,1,.57-.57A.58.58,0,0,1,14.47,155.63Z"/><path class="cls-1" d="M14.47,167.63a.57.57,0,0,1-.57.57.56.56,0,0,1-.57-.57.57.57,0,0,1,.57-.57A.58.58,0,0,1,14.47,167.63Z"/><path class="cls-1" d="M14.47,181a.58.58,0,0,1-.57.57.57.57,0,0,1,0-1.14A.58.58,0,0,1,14.47,181Z"/><path class="cls-1" d="M14.47,194.08a.58.58,0,0,1-.57.57.57.57,0,0,1-.57-.57.56.56,0,0,1,.57-.57A.57.57,0,0,1,14.47,194.08Z"/><path class="cls-1" d="M14.7,213.26a.57.57,0,1,1-1.14,0,.57.57,0,0,1,1.14,0Z"/><path class="cls-1" d="M35.22,213.83a.57.57,0,1,1-1.13,0,.57.57,0,1,1,1.13,0Z"/><path class="cls-1" d="M61.67,213.83a.57.57,0,1,1-1.13,0,.57.57,0,1,1,1.13,0Z"/><path class="cls-1" d="M88.08,213.83a.57.57,0,1,1-1.14,0,.57.57,0,0,1,1.14,0Z"/><path class="cls-1" d="M113.8,213.83a.56.56,0,0,1-.57.57.57.57,0,0,1-.57-.57.58.58,0,0,1,.57-.57A.57.57,0,0,1,113.8,213.83Z"/><path class="cls-1" d="M144.76,115.56a.56.56,0,0,1-.57.57.57.57,0,1,1,0-1.13A.56.56,0,0,1,144.76,115.56Z"/><path class="cls-1" d="M144.76,127.89a.56.56,0,0,1-.57.57.57.57,0,1,1,0-1.13A.56.56,0,0,1,144.76,127.89Z"/><path class="cls-1" d="M144.76,141.19a.56.56,0,0,1-.57.56.57.57,0,1,1,.57-.56Z"/><path class="cls-1" d="M144.76,154.29a.57.57,0,0,1-.57.57.58.58,0,0,1-.57-.57.57.57,0,0,1,.57-.57A.56.56,0,0,1,144.76,154.29Z"/><path class="cls-1" d="M144.76,167a.56.56,0,0,1-.57.57.57.57,0,1,1,0-1.13A.56.56,0,0,1,144.76,167Z"/><path class="cls-1" d="M144.76,179.62a.57.57,0,0,1-.57.57.57.57,0,0,1,0-1.14A.57.57,0,0,1,144.76,179.62Z"/><path class="cls-1" d="M144.76,192.46a.57.57,0,0,1-.57.57.58.58,0,0,1-.57-.57.57.57,0,0,1,.57-.57A.56.56,0,0,1,144.76,192.46Z"/><path class="cls-1" d="M144.76,212a.57.57,0,0,1-.57.57.58.58,0,0,1-.57-.57.57.57,0,0,1,.57-.57A.56.56,0,0,1,144.76,212Z"/><path class="cls-2" d="M65.58,42.68c-3.58-3.91-9.07-1.59-9.07-1.59,1.53-1.65,2.56-3,2.37-5.64v-.28a7.75,7.75,0,0,0-15.49,0,7.5,7.5,0,0,0,.16,1.58c.17,1.86,1.09,3,2.36,4.34,0,0-5.5-2.32-9.07,1.59a8.07,8.07,0,0,0-.66,10.06C37.3,54.26,39,56.82,43,56.53c3.52-.27,4-.86,6.46-2.8a15.93,15.93,0,0,1-3.51,8.94h10.6c-1.95-2-3.68-6.74-3.45-8.89,2.36,1.9,2.91,2.49,6.39,2.75,4,.29,5.66-2.27,6.79-3.79A8.09,8.09,0,0,0,65.58,42.68Z"/><path class="cls-2" d="M65.58,112.71c-3.58-3.91-9.07-1.59-9.07-1.59,1.53-1.64,2.56-2.94,2.37-5.64v-.27a7.75,7.75,0,1,0-15.49,0,7.4,7.4,0,0,0,.16,1.57c.17,1.86,1.09,3,2.36,4.34,0,0-5.5-2.32-9.07,1.59a8.09,8.09,0,0,0-.66,10.07c1.12,1.52,2.81,4.08,6.78,3.78,3.52-.26,4-.86,6.46-2.79a16,16,0,0,1-3.51,8.94h10.6c-1.95-2.05-3.68-6.75-3.45-8.89,2.36,1.89,2.91,2.48,6.39,2.74,4,.3,5.66-2.26,6.79-3.78A8.1,8.1,0,0,0,65.58,112.71Z"/><path class="cls-2" d="M65.58,186.83c-3.58,3.9-9.07,1.58-9.07,1.58,1.53,1.65,2.56,3,2.37,5.64v.28a7.75,7.75,0,1,1-15.49,0,7.5,7.5,0,0,1,.16-1.58c.17-1.86,1.09-3,2.36-4.34,0,0-5.5,2.32-9.07-1.58a8.09,8.09,0,0,1-.66-10.07C37.3,175.24,39,172.68,43,173c3.52.27,4,.87,6.46,2.8a15.93,15.93,0,0,0-3.51-8.94h10.6c-1.95,2-3.68,6.74-3.45,8.89,2.36-1.89,2.91-2.49,6.39-2.75,4-.29,5.66,2.27,6.79,3.79A8.1,8.1,0,0,1,65.58,186.83Z"/><path class="cls-2" d="M125.34,42.68c-3.57-3.91-9.07-1.59-9.07-1.59,1.54-1.65,2.56-3,2.37-5.64,0-.09,0-.18,0-.28a7.75,7.75,0,0,0-15.5,0,8.22,8.22,0,0,0,.16,1.58c.18,1.86,1.1,3,2.37,4.34,0,0-5.5-2.32-9.08,1.59a8.1,8.1,0,0,0-.66,10.06c1.13,1.52,2.81,4.08,6.79,3.79,3.52-.27,4-.86,6.46-2.8a15.93,15.93,0,0,1-3.51,8.94h10.59c-2-2-3.67-6.74-3.45-8.89,2.37,1.9,2.91,2.49,6.4,2.75,4,.29,5.66-2.27,6.79-3.79A8.09,8.09,0,0,0,125.34,42.68Z"/><path class="cls-2" d="M125.34,112.71c-3.57-3.91-9.07-1.59-9.07-1.59,1.54-1.64,2.56-2.94,2.37-5.64,0-.09,0-.18,0-.27a7.75,7.75,0,0,0-15.5,0,8.12,8.12,0,0,0,.16,1.57c.18,1.86,1.1,3,2.37,4.34,0,0-5.5-2.32-9.08,1.59a8.12,8.12,0,0,0-.66,10.07c1.13,1.52,2.81,4.08,6.79,3.78,3.52-.26,4-.86,6.46-2.79a16,16,0,0,1-3.51,8.94h10.59c-2-2.05-3.67-6.75-3.45-8.89,2.37,1.89,2.91,2.48,6.4,2.74,4,.3,5.66-2.26,6.79-3.78A8.11,8.11,0,0,0,125.34,112.71Z"/><path class="cls-2" d="M125.34,186.83c-3.57,3.9-9.07,1.58-9.07,1.58,1.54,1.65,2.56,3,2.37,5.64,0,.09,0,.19,0,.28a7.75,7.75,0,0,1-15.5,0,8.22,8.22,0,0,1,.16-1.58c.18-1.86,1.1-3,2.37-4.34,0,0-5.5,2.32-9.08-1.58a8.12,8.12,0,0,1-.66-10.07c1.13-1.52,2.81-4.08,6.79-3.79,3.52.27,4,.87,6.46,2.8a15.93,15.93,0,0,0-3.51-8.94h10.59c-2,2-3.67,6.74-3.45,8.89,2.37-1.89,2.91-2.49,6.4-2.75,4-.29,5.66,2.27,6.79,3.79A8.11,8.11,0,0,1,125.34,186.83Z"/><path class="cls-2" d="M20.39,31.73a2.46,2.46,0,0,0-2.63-.46,1.88,1.88,0,0,0,.69-1.63v-.08a2.24,2.24,0,1,0-4.48,0A2.31,2.31,0,0,0,14,30a2.05,2.05,0,0,0,.68,1.25,2.45,2.45,0,0,0-2.62.46,2.35,2.35,0,0,0-.19,2.91,2.07,2.07,0,0,0,2,1.09,2.53,2.53,0,0,0,1.87-.8,4.65,4.65,0,0,1-1,2.58h3.06a4.32,4.32,0,0,1-1-2.57,2.47,2.47,0,0,0,1.85.79,2.08,2.08,0,0,0,2-1.09A2.35,2.35,0,0,0,20.39,31.73Z"/><path d="M13.22,23a5,5,0,0,1-1.48-2.22,10,10,0,0,1-.53-3.41,12.15,12.15,0,0,1,.41-3.12,7.1,7.1,0,0,1,1.19-2.55,4.13,4.13,0,0,1,3.31-1.82,2.9,2.9,0,0,1,2.24.93,2.09,2.09,0,0,1,.41.78,2.46,2.46,0,0,1,.13.75,1.39,1.39,0,0,1-.49,1.11,1.17,1.17,0,0,1-.79.29.82.82,0,0,1-.7-.35.86.86,0,0,1-.13-.25,1.3,1.3,0,0,1,0-.31.87.87,0,0,1,.26-.58,1.91,1.91,0,0,1,.37-.33.8.8,0,0,0,.24-.25.66.66,0,0,0,.07-.3.76.76,0,0,0-.4-.61,2.29,2.29,0,0,0-1.21-.26,2.42,2.42,0,0,0-1.33.41,3,3,0,0,0-1.06,1.36,7.08,7.08,0,0,0-.51,1.8A12.53,12.53,0,0,0,13,15.9v.88l.14.06a2.92,2.92,0,0,1,1.07-1.22,2.66,2.66,0,0,1,1.41-.47,3.62,3.62,0,0,1,2.19.64A3.54,3.54,0,0,1,19,17.25a4.89,4.89,0,0,1,.4,2,5.22,5.22,0,0,1-.46,2.11,4.48,4.48,0,0,1-1.37,1.76A3.57,3.57,0,0,1,13.22,23Zm3.94-1a5.87,5.87,0,0,0,.54-2.56,6.23,6.23,0,0,0-.47-2.58,1.59,1.59,0,0,0-1.55-1,1.93,1.93,0,0,0-1.23.44,3.1,3.1,0,0,0-.86,1.27,5.33,5.33,0,0,0-.32,1.9,6,6,0,0,0,.51,2.65,1.71,1.71,0,0,0,1.67,1A1.78,1.78,0,0,0,17.16,22Z"/><path class="cls-2" d="M142.44,197.46a2.45,2.45,0,0,0,2.62.46,1.9,1.9,0,0,0-.69,1.63v.08a2.24,2.24,0,0,0,4.48,0,2.31,2.31,0,0,0,0-.46,2,2,0,0,0-.68-1.25,2.45,2.45,0,0,0,2.62-.46,2.34,2.34,0,0,0,.19-2.91,2.06,2.06,0,0,0-2-1.09,2.5,2.5,0,0,0-1.87.8,4.65,4.65,0,0,1,1-2.58h-3.06a4.32,4.32,0,0,1,1,2.57,2.46,2.46,0,0,0-1.84-.79,2.09,2.09,0,0,0-2,1.09A2.34,2.34,0,0,0,142.44,197.46Z"/><path d="M149.6,206.19a4.85,4.85,0,0,1,1.48,2.22,10,10,0,0,1,.53,3.4,12.22,12.22,0,0,1-.41,3.13,7,7,0,0,1-1.19,2.54,4.12,4.12,0,0,1-3.32,1.83,2.91,2.91,0,0,1-2.23-.94,2.13,2.13,0,0,1-.41-.77,2.57,2.57,0,0,1-.13-.76,1.43,1.43,0,0,1,.48-1.11,1.21,1.21,0,0,1,.8-.29.82.82,0,0,1,.7.35.67.67,0,0,1,.12.26,1.24,1.24,0,0,1,0,.31.9.9,0,0,1-.25.58,1.91,1.91,0,0,1-.37.33.78.78,0,0,0-.24.24.7.7,0,0,0-.07.3.75.75,0,0,0,.4.61,2.2,2.2,0,0,0,1.21.26,2.41,2.41,0,0,0,1.33-.4,3,3,0,0,0,1.06-1.36,7.16,7.16,0,0,0,.51-1.81,12.53,12.53,0,0,0,.17-1.82v-.87l-.14-.06a3,3,0,0,1-1.07,1.21,2.59,2.59,0,0,1-1.41.48,3.68,3.68,0,0,1-2.19-.64,3.55,3.55,0,0,1-1.17-1.47,4.86,4.86,0,0,1-.41-2,5.24,5.24,0,0,1,.47-2.11,4.45,4.45,0,0,1,1.37-1.75,3.34,3.34,0,0,1,2.12-.7A3.43,3.43,0,0,1,149.6,206.19Zm-3.94,1a5.83,5.83,0,0,0-.54,2.56,6.29,6.29,0,0,0,.47,2.58,1.6,1.6,0,0,0,1.55,1,1.86,1.86,0,0,0,1.22-.45,3,3,0,0,0,.87-1.27,5.27,5.27,0,0,0,.32-1.89,6,6,0,0,0-.51-2.65,1.72,1.72,0,0,0-1.67-1A1.78,1.78,0,0,0,145.66,207.16Z"/></g></g></svg>