<svg xmlns="http://www.w3.org/2000/svg" viewBox="0 0 166.32 232.9"><defs><style>.cls-1{fill:#fff;}.cls-2{fill:#151515;}</style></defs><g id="Layer_2" data-name="Layer 2"><g id="Objects"><rect class="cls-1" width="166.32" height="232.9" rx="5.94"/><path class="cls-2" d="M22.06,32.26a2.45,2.45,0,0,0-2.62-.46,1.92,1.92,0,0,0,.69-1.63v-.08a2.24,2.24,0,1,0-4.43.45,2,2,0,0,0,.68,1.26,2.45,2.45,0,0,0-2.62.46,2.32,2.32,0,0,0-.19,2.9,2.08,2.08,0,0,0,2,1.1,2.5,2.5,0,0,0,1.86-.81,4.56,4.56,0,0,1-1,2.58h3.06a4.3,4.3,0,0,1-1-2.56,2.53,2.53,0,0,0,1.84.79,2.08,2.08,0,0,0,2-1.1A2.31,2.31,0,0,0,22.06,32.26Z"/><path d="M13.9,23.38a2.27,2.27,0,0,1-.42-.78,2.77,2.77,0,0,1-.12-.75,1.4,1.4,0,0,1,.48-1.11,1.25,1.25,0,0,1,.8-.29.8.8,0,0,1,.7.35.81.81,0,0,1,.12.25,1.3,1.3,0,0,1,0,.31.88.88,0,0,1-.25.58,2.25,2.25,0,0,1-.37.33.63.63,0,0,0-.24.25.56.56,0,0,0-.07.3.74.74,0,0,0,.4.61,2.27,2.27,0,0,0,1.21.26,2.42,2.42,0,0,0,1.33-.41,3,3,0,0,0,1.06-1.36,6.79,6.79,0,0,0,.5-1.81,11.64,11.64,0,0,0,.18-1.82v-.87l-.14-.06A2.94,2.94,0,0,1,18,18.58a2.6,2.6,0,0,1-1.4.47,3.67,3.67,0,0,1-2.2-.64A3.52,3.52,0,0,1,13.26,17a4.9,4.9,0,0,1-.41-2,5.2,5.2,0,0,1,.47-2.11,4.48,4.48,0,0,1,1.37-1.76,3.55,3.55,0,0,1,4.34.08,5,5,0,0,1,1.49,2.22A10,10,0,0,1,21,16.82a11.72,11.72,0,0,1-.41,3.12,7.09,7.09,0,0,1-1.18,2.55,4.13,4.13,0,0,1-3.32,1.82A2.88,2.88,0,0,1,13.9,23.38Zm3.9-5.49a3,3,0,0,0,.86-1.27,5.12,5.12,0,0,0,.32-1.9,6.05,6.05,0,0,0-.5-2.65,1.72,1.72,0,0,0-1.67-1,1.79,1.79,0,0,0-1.72,1.12,6,6,0,0,0-.53,2.56A6.23,6.23,0,0,0,15,17.3a1.58,1.58,0,0,0,1.55,1A1.91,1.91,0,0,0,17.8,17.89Z"/><path class="cls-2" d="M144.08,198a2.46,2.46,0,0,0,2.63.46,1.93,1.93,0,0,0-.69,1.63v.08a2.24,2.24,0,1,0,4.43-.45,2.08,2.08,0,0,0-.68-1.26,2.45,2.45,0,0,0,2.62-.46,2.34,2.34,0,0,0,.19-2.9,2.09,2.09,0,0,0-2-1.1,2.54,2.54,0,0,0-1.87.81,4.61,4.61,0,0,1,1-2.58h-3.06a4.32,4.32,0,0,1,1,2.56,2.54,2.54,0,0,0-1.85-.79,2.1,2.1,0,0,0-2,1.1A2.34,2.34,0,0,0,144.08,198Z"/><path d="M152.24,206.87a2,2,0,0,1,.42.78,2.81,2.81,0,0,1,.13.75,1.43,1.43,0,0,1-.49,1.11,1.22,1.22,0,0,1-.79.29.82.82,0,0,1-.7-.35.67.67,0,0,1-.13-.25,1.3,1.3,0,0,1,0-.31.91.91,0,0,1,.25-.58,2.25,2.25,0,0,1,.37-.33.74.74,0,0,0,.25-.25.67.67,0,0,0,.06-.3.75.75,0,0,0-.39-.61,2.31,2.31,0,0,0-1.22-.26,2.44,2.44,0,0,0-1.33.41,3,3,0,0,0-1,1.36,7,7,0,0,0-.51,1.81,12.78,12.78,0,0,0-.17,1.82v.87l.13.06a2.94,2.94,0,0,1,1.08-1.22,2.6,2.6,0,0,1,1.41-.47,3.66,3.66,0,0,1,2.19.64,3.52,3.52,0,0,1,1.16,1.46,4.9,4.9,0,0,1,.41,2,5.22,5.22,0,0,1-.46,2.11,4.65,4.65,0,0,1-1.37,1.76,3.61,3.61,0,0,1-4.35-.08,5,5,0,0,1-1.48-2.22,10,10,0,0,1-.53-3.41,12.15,12.15,0,0,1,.41-3.12,7.26,7.26,0,0,1,1.18-2.55,4.15,4.15,0,0,1,3.32-1.82A2.88,2.88,0,0,1,152.24,206.87Zm-3.9,5.49a3,3,0,0,0-.86,1.27,5.29,5.29,0,0,0-.32,1.9,6.2,6.2,0,0,0,.5,2.65,1.73,1.73,0,0,0,1.67,1,1.79,1.79,0,0,0,1.72-1.12,5.86,5.86,0,0,0,.53-2.56,6.32,6.32,0,0,0-.46-2.59,1.6,1.6,0,0,0-1.55-1A1.88,1.88,0,0,0,148.34,212.36Z"/><path class="cls-2" d="M96.77,115.11c-3.57-3.9-9.07-1.59-9.07-1.59,1.54-1.64,2.56-2.94,2.37-5.63,0-.1,0-.19,0-.28a7.75,7.75,0,1,0-15.49,0,7.33,7.33,0,0,0,.16,1.57c.17,1.87,1.09,3,2.36,4.34,0,0-5.5-2.31-9.07,1.59a8.09,8.09,0,0,0-.66,10.07c1.12,1.52,2.81,4.08,6.78,3.78,3.52-.26,4-.86,6.46-2.79a16,16,0,0,1-3.51,8.94H87.7c-2-2.05-3.67-6.74-3.45-8.89,2.37,1.89,2.91,2.49,6.4,2.74,4,.3,5.66-2.26,6.78-3.78A8.09,8.09,0,0,0,96.77,115.11Z"/><path class="cls-2" d="M58.69,39.5c-3.58-3.9-9.07-1.58-9.07-1.58,1.53-1.65,2.56-3,2.37-5.64,0-.09,0-.18,0-.28a7.75,7.75,0,0,0-15.5,0,8.22,8.22,0,0,0,.16,1.58c.18,1.86,1.1,3,2.37,4.34,0,0-5.5-2.32-9.07,1.58a8.11,8.11,0,0,0-.67,10.07c1.13,1.52,2.82,4.08,6.79,3.79,3.52-.27,4-.87,6.45-2.8A15.88,15.88,0,0,1,39,59.5H49.62c-1.95-2-3.67-6.74-3.45-8.89,2.37,1.89,2.91,2.49,6.39,2.75,4,.29,5.67-2.27,6.79-3.79A8.1,8.1,0,0,0,58.69,39.5Z"/><path class="cls-2" d="M58.69,89.67c-3.58-3.91-9.07-1.59-9.07-1.59,1.53-1.64,2.56-3,2.37-5.64,0-.09,0-.18,0-.27a7.75,7.75,0,0,0-15.5,0,8.12,8.12,0,0,0,.16,1.57c.18,1.86,1.1,3,2.37,4.34,0,0-5.5-2.32-9.07,1.59a8.09,8.09,0,0,0-.67,10.06c1.13,1.53,2.82,4.08,6.79,3.79,3.52-.26,4-.86,6.45-2.79a15.92,15.92,0,0,1-3.5,8.94H49.62c-1.95-2-3.67-6.75-3.45-8.89,2.37,1.89,2.91,2.48,6.39,2.74,4,.29,5.67-2.26,6.79-3.79A8.09,8.09,0,0,0,58.69,89.67Z"/><path class="cls-2" d="M58.69,194.75c-3.58,3.9-9.07,1.58-9.07,1.58C51.15,198,52.18,199.28,52,202c0,.09,0,.19,0,.28a7.75,7.75,0,0,1-15.5,0,8.22,8.22,0,0,1,.16-1.58c.18-1.86,1.1-3,2.37-4.34,0,0-5.5,2.32-9.07-1.58a8.11,8.11,0,0,1-.67-10.07c1.13-1.52,2.82-4.08,6.79-3.79,3.52.27,4,.87,6.45,2.8a15.88,15.88,0,0,0-3.5-8.94H49.62c-1.95,2.05-3.67,6.74-3.45,8.89,2.37-1.89,2.91-2.49,6.39-2.75,4-.29,5.67,2.27,6.79,3.79A8.1,8.1,0,0,1,58.69,194.75Z"/><path class="cls-2" d="M136.92,39.5c-3.57-3.9-9.07-1.58-9.07-1.58,1.54-1.65,2.56-3,2.37-5.64,0-.09,0-.18,0-.28a7.75,7.75,0,0,0-15.49,0,7.5,7.5,0,0,0,.16,1.58c.17,1.86,1.09,3,2.36,4.34,0,0-5.5-2.32-9.07,1.58a8.09,8.09,0,0,0-.66,10.07c1.12,1.52,2.81,4.08,6.78,3.79,3.52-.27,4-.87,6.46-2.8a15.93,15.93,0,0,1-3.51,8.94h10.59c-1.95-2-3.67-6.74-3.45-8.89,2.37,1.89,2.91,2.49,6.4,2.75,4,.29,5.66-2.27,6.78-3.79A8.09,8.09,0,0,0,136.92,39.5Z"/><path class="cls-2" d="M136.92,89.67c-3.57-3.91-9.07-1.59-9.07-1.59,1.54-1.64,2.56-3,2.37-5.64,0-.09,0-.18,0-.27a7.75,7.75,0,1,0-15.49,0,7.4,7.4,0,0,0,.16,1.57c.17,1.86,1.09,3,2.36,4.34,0,0-5.5-2.32-9.07,1.59a8.07,8.07,0,0,0-.66,10.06c1.12,1.53,2.81,4.08,6.78,3.79,3.52-.26,4-.86,6.46-2.79a16,16,0,0,1-3.51,8.94h10.59c-1.95-2-3.67-6.75-3.45-8.89,2.37,1.89,2.91,2.48,6.4,2.74,4,.29,5.66-2.26,6.78-3.79A8.07,8.07,0,0,0,136.92,89.67Z"/><path class="cls-2" d="M136.92,194.75c-3.57,3.9-9.07,1.58-9.07,1.58,1.54,1.65,2.56,2.95,2.37,5.64,0,.09,0,.19,0,.28a7.75,7.75,0,1,1-15.49,0,7.5,7.5,0,0,1,.16-1.58c.17-1.86,1.09-3,2.36-4.34,0,0-5.5,2.32-9.07-1.58a8.09,8.09,0,0,1-.66-10.07c1.12-1.52,2.81-4.08,6.78-3.79,3.52.27,4,.87,6.46,2.8a15.93,15.93,0,0,0-3.51-8.94h10.59c-1.95,2.05-3.67,6.74-3.45,8.89,2.37-1.89,2.91-2.49,6.4-2.75,4-.29,5.66,2.27,6.78,3.79A8.09,8.09,0,0,1,136.92,194.75Z"/><path class="cls-2" d="M58.69,144.58c-3.58,3.91-9.07,1.59-9.07,1.59,1.53,1.64,2.56,3,2.37,5.64,0,.09,0,.18,0,.27a7.75,7.75,0,0,1-15.5,0,8.12,8.12,0,0,1,.16-1.57c.18-1.86,1.1-3,2.37-4.34,0,0-5.5,2.32-9.07-1.59a8.09,8.09,0,0,1-.67-10.06c1.13-1.53,2.82-4.08,6.79-3.79,3.52.26,4,.86,6.45,2.79a15.92,15.92,0,0,0-3.5-8.94H49.62c-1.95,2-3.67,6.75-3.45,8.89,2.37-1.89,2.91-2.48,6.39-2.74,4-.29,5.67,2.26,6.79,3.79A8.09,8.09,0,0,1,58.69,144.58Z"/><path class="cls-2" d="M136.92,144.58c-3.57,3.91-9.07,1.59-9.07,1.59,1.54,1.64,2.56,3,2.37,5.64,0,.09,0,.18,0,.27a7.75,7.75,0,1,1-15.49,0,7.4,7.4,0,0,1,.16-1.57c.17-1.86,1.09-3,2.36-4.34,0,0-5.5,2.32-9.07-1.59a8.07,8.07,0,0,1-.66-10.06c1.12-1.53,2.81-4.08,6.78-3.79,3.52.26,4,.86,6.46,2.79a16,16,0,0,0-3.51-8.94h10.59c-1.95,2-3.67,6.75-3.45,8.89,2.37-1.89,2.91-2.48,6.4-2.74,4-.29,5.66,2.26,6.78,3.79A8.07,8.07,0,0,1,136.92,144.58Z"/></g></g></svg>