<svg xmlns="http://www.w3.org/2000/svg" viewBox="0 0 166.36 232.9"><defs><style>.cls-1{fill:#fff;}.cls-2{fill:#151515;}.cls-3{fill:#272425;}</style></defs><g id="Layer_2" data-name="Layer 2"><g id="Objects"><rect class="cls-1" width="166.36" height="232.9" rx="5.94"/><path class="cls-2" d="M97.45,40.72c-3.57-3.91-9.07-1.59-9.07-1.59,1.54-1.64,2.56-2.94,2.37-5.64,0-.09,0-.18,0-.27a7.75,7.75,0,0,0-15.5,0,8.12,8.12,0,0,0,.16,1.57c.18,1.86,1.1,3,2.36,4.34,0,0-5.49-2.32-9.07,1.59a8.1,8.1,0,0,0-.66,10.07c1.13,1.52,2.81,4.08,6.79,3.78,3.52-.26,4-.86,6.45-2.79a15.89,15.89,0,0,1-3.51,8.94h10.6c-1.95-2-3.67-6.75-3.45-8.89,2.37,1.89,2.91,2.48,6.4,2.74,4,.3,5.66-2.26,6.78-3.78A8.09,8.09,0,0,0,97.45,40.72Z"/><path class="cls-2" d="M97.45,110.73c-3.57-3.91-9.07-1.59-9.07-1.59,1.54-1.64,2.56-3,2.37-5.64,0-.09,0-.18,0-.28a7.75,7.75,0,0,0-15.5,0,8.22,8.22,0,0,0,.16,1.58c.18,1.86,1.1,3,2.36,4.34,0,0-5.49-2.32-9.07,1.59a8.09,8.09,0,0,0-.66,10.06c1.13,1.52,2.81,4.08,6.79,3.79,3.52-.26,4-.86,6.45-2.79a15.84,15.84,0,0,1-3.51,8.93h10.6c-1.95-2-3.67-6.74-3.45-8.88,2.37,1.89,2.91,2.48,6.4,2.74,4,.29,5.66-2.27,6.78-3.79A8.07,8.07,0,0,0,97.45,110.73Z"/><path class="cls-2" d="M97.45,184.87c-3.57,3.91-9.07,1.59-9.07,1.59,1.54,1.64,2.56,2.95,2.37,5.64,0,.09,0,.18,0,.27a7.75,7.75,0,0,1-15.5,0,8.12,8.12,0,0,1,.16-1.57c.18-1.86,1.1-3,2.36-4.34,0,0-5.49,2.32-9.07-1.59a8.09,8.09,0,0,1-.66-10.06c1.13-1.53,2.81-4.08,6.79-3.79,3.52.26,4,.86,6.45,2.79a15.89,15.89,0,0,0-3.51-8.94h10.6c-1.95,2-3.67,6.75-3.45,8.89,2.37-1.89,2.91-2.48,6.4-2.74,4-.29,5.66,2.26,6.78,3.79A8.07,8.07,0,0,1,97.45,184.87Z"/><path class="cls-3" d="M14.75,24.29a2.19,2.19,0,0,1-1-1.95,1.76,1.76,0,0,1,.41-1.19,1.3,1.3,0,0,1,1.06-.5,1.26,1.26,0,0,1,.89.3,1.1,1.1,0,0,1,.32.83,1.06,1.06,0,0,1-.25.71.77.77,0,0,1-.63.3c-.45,0-.68.11-.68.33,0,.81.82,1.22,2.45,1.22a2.26,2.26,0,0,0,2.05-1A4.18,4.18,0,0,0,20,21a3.52,3.52,0,0,0-.67-2.33,2.1,2.1,0,0,0-1.64-.78,3,3,0,0,0-.48,0,3.59,3.59,0,0,0-.45.14,3.5,3.5,0,0,1-1,.21,1,1,0,0,1-.52-.13.45.45,0,0,1-.22-.41.46.46,0,0,1,.21-.41,1,1,0,0,1,.53-.13,6.36,6.36,0,0,1,.91.09,7.35,7.35,0,0,0,1.07.06,1.56,1.56,0,0,0,1.42-.84,3.78,3.78,0,0,0,.5-1.93,3.64,3.64,0,0,0-.58-2.1,1.93,1.93,0,0,0-1.69-.83,2.73,2.73,0,0,0-1.62.36,1.07,1.07,0,0,0-.48.84.66.66,0,0,0,.14.36,1,1,0,0,0,.37.3,1,1,0,0,1,.69.95.9.9,0,0,1-.27.67,1.09,1.09,0,0,1-.77.26,1.26,1.26,0,0,1-1-.47,1.57,1.57,0,0,1-.42-1.06,2.4,2.4,0,0,1,1-2.1,4.23,4.23,0,0,1,2.51-.74,4.15,4.15,0,0,1,2.84.95,3.11,3.11,0,0,1,1.08,2.47,2.8,2.8,0,0,1-.38,1.45,3.21,3.21,0,0,1-.95,1,3.33,3.33,0,0,1-1.15.54v.15a4,4,0,0,1,1.34.56,3.87,3.87,0,0,1,1.18,1.17A3,3,0,0,1,22,21.06a3.42,3.42,0,0,1-.64,2.07,4,4,0,0,1-1.71,1.35,5.78,5.78,0,0,1-2.38.48A4.49,4.49,0,0,1,14.75,24.29Z"/><path class="cls-3" d="M152.43,206.35a2.21,2.21,0,0,1,1,2,1.81,1.81,0,0,1-.41,1.19,1.32,1.32,0,0,1-1.07.5,1.25,1.25,0,0,1-.88-.3,1.1,1.1,0,0,1-.32-.83,1.08,1.08,0,0,1,.24-.7.81.81,0,0,1,.63-.31c.46,0,.68-.11.68-.32,0-.82-.81-1.23-2.44-1.23a2.27,2.27,0,0,0-2.05,1,4.21,4.21,0,0,0-.63,2.33,3.47,3.47,0,0,0,.67,2.33,2.08,2.08,0,0,0,1.64.78,2.84,2.84,0,0,0,.47,0,3.23,3.23,0,0,0,.46-.14,3.5,3.5,0,0,1,1-.21,1,1,0,0,1,.52.13.47.47,0,0,1,.22.41.46.46,0,0,1-.21.41,1,1,0,0,1-.53.14,6.67,6.67,0,0,1-.91-.1,7.45,7.45,0,0,0-1.07-.06,1.57,1.57,0,0,0-1.43.84,3.88,3.88,0,0,0-.49,1.94,3.53,3.53,0,0,0,.58,2.09,1.93,1.93,0,0,0,1.69.84,2.76,2.76,0,0,0,1.62-.37,1.07,1.07,0,0,0,.48-.84.66.66,0,0,0-.14-.36,1,1,0,0,0-.37-.3,1,1,0,0,1-.7-1,.88.88,0,0,1,.28-.67,1.09,1.09,0,0,1,.77-.26,1.26,1.26,0,0,1,1,.48,1.54,1.54,0,0,1,.42,1.05,2.42,2.42,0,0,1-1,2.1,4.71,4.71,0,0,1-5.36-.2,3.17,3.17,0,0,1-1.07-2.48,2.67,2.67,0,0,1,.38-1.44,3.14,3.14,0,0,1,1-1,3.24,3.24,0,0,1,1.15-.54V213a3.77,3.77,0,0,1-1.34-.56,3.87,3.87,0,0,1-1.18-1.17,2.94,2.94,0,0,1-.49-1.69,3.43,3.43,0,0,1,.64-2.06,4.09,4.09,0,0,1,1.72-1.36,5.78,5.78,0,0,1,2.38-.48A4.51,4.51,0,0,1,152.43,206.35Z"/><path class="cls-2" d="M13.6,33.63a2.46,2.46,0,0,0,2.63.46,1.9,1.9,0,0,0-.69,1.63v.08a2.24,2.24,0,1,0,4.48,0,2.31,2.31,0,0,0-.05-.46,2.05,2.05,0,0,0-.68-1.25,2.45,2.45,0,0,0,2.62-.46,2.34,2.34,0,0,0,.19-2.91,2.07,2.07,0,0,0-2-1.09,2.51,2.51,0,0,0-1.87.81,4.66,4.66,0,0,1,1-2.59H16.23a4.32,4.32,0,0,1,1,2.57,2.47,2.47,0,0,0-1.85-.79,2.08,2.08,0,0,0-2,1.09A2.35,2.35,0,0,0,13.6,33.63Z"/><path class="cls-2" d="M143.92,196.77a2.45,2.45,0,0,1,2.62-.46,1.94,1.94,0,0,1-.69-1.63v-.08a2.24,2.24,0,0,1,4.48,0,2.14,2.14,0,0,1-.05.45,2,2,0,0,1-.68,1.26,2.45,2.45,0,0,1,2.62.46,2.32,2.32,0,0,1,.19,2.91,2.07,2.07,0,0,1-2,1.09,2.54,2.54,0,0,1-1.86-.81,4.61,4.61,0,0,0,1,2.59h-3.06a4.43,4.43,0,0,0,1-2.57,2.57,2.57,0,0,1-1.85.79,2.07,2.07,0,0,1-2-1.09A2.32,2.32,0,0,1,143.92,196.77Z"/></g></g></svg>