<svg xmlns="http://www.w3.org/2000/svg" viewBox="0 0 166.36 232.9"><defs><style>.cls-1{fill:#fff;}.cls-2{fill:#151515;}</style></defs><g id="Layer_2" data-name="Layer 2"><g id="Objects"><rect class="cls-1" width="166.36" height="232.9" rx="5.94"/><path class="cls-1" d="M146.6,17.72a.58.58,0,0,1-.57.57.57.57,0,0,1-.57-.57.56.56,0,0,1,.57-.57A.57.57,0,0,1,146.6,17.72Z"/><path class="cls-1" d="M119.47,17.72a.57.57,0,1,1-1.14,0,.57.57,0,1,1,1.14,0Z"/><path class="cls-1" d="M94.51,17.72a.57.57,0,1,1-.56-.57A.56.56,0,0,1,94.51,17.72Z"/><path class="cls-1" d="M69.46,17.9a.57.57,0,1,1-.57-.57A.57.57,0,0,1,69.46,17.9Z"/><path class="cls-1" d="M146.6,38.86a.58.58,0,0,1-.57.57.57.57,0,0,1-.57-.57.56.56,0,0,1,.57-.57A.57.57,0,0,1,146.6,38.86Z"/><path class="cls-1" d="M146.6,58.15a.57.57,0,0,1-.57.57.56.56,0,0,1-.57-.57.57.57,0,0,1,.57-.57A.58.58,0,0,1,146.6,58.15Z"/><path class="cls-1" d="M146.6,78.37a.58.58,0,0,1-.57.57.57.57,0,0,1-.57-.57.56.56,0,0,1,.57-.57A.57.57,0,0,1,146.6,78.37Z"/><path class="cls-1" d="M146.6,91.15a.57.57,0,0,1-.57.57.56.56,0,0,1-.57-.57.57.57,0,0,1,.57-.57A.58.58,0,0,1,146.6,91.15Z"/><path class="cls-1" d="M146.6,104a.57.57,0,0,1-.57.57.56.56,0,0,1-.57-.57.57.57,0,0,1,.57-.57A.58.58,0,0,1,146.6,104Z"/><path class="cls-1" d="M16.3,18.29a.57.57,0,0,1-.57.57.58.58,0,0,1-.57-.57.57.57,0,0,1,.57-.57A.56.56,0,0,1,16.3,18.29Z"/><path class="cls-1" d="M43.74,17.9a.56.56,0,0,1-.57.57.57.57,0,0,1-.57-.57.58.58,0,0,1,.57-.57A.57.57,0,0,1,43.74,17.9Z"/><path class="cls-1" d="M16.3,38.41a.57.57,0,0,1-.57.57.57.57,0,1,1,0-1.14A.57.57,0,0,1,16.3,38.41Z"/><path class="cls-1" d="M16.3,58.28a.56.56,0,0,1-.57.57.57.57,0,0,1-.57-.57.58.58,0,0,1,.57-.57A.57.57,0,0,1,16.3,58.28Z"/><path class="cls-1" d="M16.3,78.23a.57.57,0,0,1-.57.57.58.58,0,0,1-.57-.57.57.57,0,0,1,.57-.57A.56.56,0,0,1,16.3,78.23Z"/><path class="cls-1" d="M16.3,91.15a.56.56,0,0,1-.57.57.57.57,0,0,1-.57-.57.58.58,0,0,1,.57-.57A.57.57,0,0,1,16.3,91.15Z"/><path class="cls-1" d="M16.3,104.55a.57.57,0,0,1-.57.57.57.57,0,0,1,0-1.14A.57.57,0,0,1,16.3,104.55Z"/><path class="cls-1" d="M16.3,117.48a.56.56,0,0,1-.57.57.57.57,0,0,1-.57-.57.58.58,0,0,1,.57-.57A.57.57,0,0,1,16.3,117.48Z"/><path class="cls-1" d="M16.3,130.41a.57.57,0,0,1-.57.57.58.58,0,0,1-.57-.57.57.57,0,0,1,.57-.57A.56.56,0,0,1,16.3,130.41Z"/><path class="cls-1" d="M16.3,143.8a.56.56,0,0,1-.57.57.57.57,0,1,1,0-1.13A.56.56,0,0,1,16.3,143.8Z"/><path class="cls-1" d="M16.3,157.23a.56.56,0,0,1-.57.57.57.57,0,0,1-.57-.57.58.58,0,0,1,.57-.57A.57.57,0,0,1,16.3,157.23Z"/><path class="cls-1" d="M16.3,169.23a.56.56,0,0,1-.57.57.57.57,0,0,1-.57-.57.58.58,0,0,1,.57-.57A.57.57,0,0,1,16.3,169.23Z"/><path class="cls-1" d="M16.3,182.63a.56.56,0,0,1-.57.57.57.57,0,0,1-.57-.57.58.58,0,0,1,.57-.57A.57.57,0,0,1,16.3,182.63Z"/><path class="cls-1" d="M16.3,195.68a.57.57,0,0,1-.57.57.58.58,0,0,1-.57-.57.57.57,0,0,1,.57-.57A.56.56,0,0,1,16.3,195.68Z"/><path class="cls-1" d="M16.53,214.86a.57.57,0,1,1-.57-.57A.57.57,0,0,1,16.53,214.86Z"/><path class="cls-1" d="M37.06,215.43a.56.56,0,0,1-.57.57.57.57,0,0,1-.57-.57.58.58,0,0,1,.57-.57A.57.57,0,0,1,37.06,215.43Z"/><path class="cls-1" d="M63.51,215.43a.57.57,0,0,1-1.14,0,.57.57,0,0,1,1.14,0Z"/><path class="cls-1" d="M89.91,215.43a.57.57,0,1,1-1.13,0,.57.57,0,1,1,1.13,0Z"/><path class="cls-1" d="M115.64,215.43a.57.57,0,0,1-.57.57.56.56,0,0,1-.57-.57.57.57,0,0,1,.57-.57A.58.58,0,0,1,115.64,215.43Z"/><path class="cls-1" d="M146.6,117.17a.57.57,0,0,1-.57.56.57.57,0,1,1,0-1.13A.57.57,0,0,1,146.6,117.17Z"/><path class="cls-1" d="M146.6,129.49a.57.57,0,0,1-.57.57.57.57,0,1,1,.57-.57Z"/><path class="cls-1" d="M146.6,142.79a.58.58,0,0,1-.57.57.57.57,0,0,1-.57-.57.56.56,0,0,1,.57-.57A.57.57,0,0,1,146.6,142.79Z"/><path class="cls-1" d="M146.6,155.89a.58.58,0,0,1-.57.57.57.57,0,0,1,0-1.14A.58.58,0,0,1,146.6,155.89Z"/><path class="cls-1" d="M146.6,168.65a.57.57,0,0,1-.57.56.57.57,0,1,1,0-1.13A.57.57,0,0,1,146.6,168.65Z"/><path class="cls-1" d="M146.6,181.22a.58.58,0,0,1-.57.57.57.57,0,0,1,0-1.14A.58.58,0,0,1,146.6,181.22Z"/><path class="cls-1" d="M146.6,194.06a.58.58,0,0,1-.57.57.57.57,0,0,1-.57-.57.56.56,0,0,1,.57-.57A.57.57,0,0,1,146.6,194.06Z"/><path class="cls-1" d="M146.6,213.63a.58.58,0,0,1-.57.57.57.57,0,1,1,0-1.14A.58.58,0,0,1,146.6,213.63Z"/><path class="cls-2" d="M97.38,79.22c-3.57-3.91-9.07-1.59-9.07-1.59C89.85,76,90.87,74.68,90.68,72c0-.09,0-.18,0-.27a7.75,7.75,0,0,0-15.5,0,8.12,8.12,0,0,0,.16,1.57c.18,1.86,1.1,3,2.36,4.34,0,0-5.49-2.32-9.07,1.59A8.1,8.1,0,0,0,68,89.29c1.13,1.52,2.81,4.08,6.79,3.78,3.51-.26,4-.86,6.45-2.79a15.89,15.89,0,0,1-3.51,8.94h10.6c-2-2-3.67-6.75-3.45-8.89,2.37,1.89,2.91,2.48,6.4,2.74,4,.3,5.66-2.26,6.78-3.78A8.09,8.09,0,0,0,97.38,79.22Z"/><path class="cls-2" d="M60.22,44.28c-3.58-3.91-9.08-1.59-9.08-1.59,1.54-1.64,2.57-2.95,2.37-5.64a2.53,2.53,0,0,0,0-.28,7.75,7.75,0,0,0-15.5,0,8.22,8.22,0,0,0,.16,1.58c.18,1.86,1.1,3,2.37,4.34,0,0-5.5-2.32-9.07,1.59a8.09,8.09,0,0,0-.67,10.06c1.13,1.52,2.82,4.08,6.79,3.79,3.52-.26,4-.86,6.46-2.8a15.93,15.93,0,0,1-3.51,8.94H51.14c-1.94-2-3.67-6.74-3.44-8.88,2.36,1.89,2.9,2.48,6.39,2.74,4,.29,5.66-2.27,6.79-3.79A8.1,8.1,0,0,0,60.22,44.28Z"/><path class="cls-2" d="M60.22,114.31c-3.58-3.91-9.08-1.59-9.08-1.59,1.54-1.64,2.57-2.94,2.37-5.64a2.44,2.44,0,0,0,0-.27,7.75,7.75,0,0,0-15.5,0,8,8,0,0,0,.16,1.57c.18,1.86,1.1,3,2.37,4.34,0,0-5.5-2.32-9.07,1.59a8.11,8.11,0,0,0-.67,10.07c1.13,1.52,2.82,4.08,6.79,3.78,3.52-.26,4-.86,6.46-2.79a16,16,0,0,1-3.51,8.94H51.14c-1.94-2.05-3.67-6.75-3.44-8.89,2.36,1.89,2.9,2.48,6.39,2.74,4,.3,5.66-2.26,6.79-3.78A8.12,8.12,0,0,0,60.22,114.31Z"/><path class="cls-2" d="M60.22,188.43c-3.58,3.9-9.08,1.59-9.08,1.59,1.54,1.64,2.57,2.94,2.37,5.63a2.62,2.62,0,0,1,0,.28,7.75,7.75,0,0,1-15.5,0,8,8,0,0,1,.16-1.57c.18-1.87,1.1-3,2.37-4.34,0,0-5.5,2.31-9.07-1.59a8.11,8.11,0,0,1-.67-10.07c1.13-1.52,2.82-4.08,6.79-3.78,3.52.26,4,.86,6.46,2.79a16,16,0,0,0-3.51-8.94H51.14c-1.94,2-3.67,6.74-3.44,8.89,2.36-1.89,2.9-2.49,6.39-2.74,4-.3,5.66,2.26,6.79,3.78A8.12,8.12,0,0,1,60.22,188.43Z"/><path class="cls-2" d="M138.46,44.28c-3.57-3.91-9.07-1.59-9.07-1.59,1.54-1.64,2.56-2.95,2.37-5.64a2.53,2.53,0,0,0,0-.28,7.75,7.75,0,0,0-15.5,0,8.22,8.22,0,0,0,.16,1.58c.18,1.86,1.1,3,2.37,4.34,0,0-5.5-2.32-9.08,1.59a8.1,8.1,0,0,0-.66,10.06c1.13,1.52,2.82,4.08,6.79,3.79,3.52-.26,4-.86,6.46-2.8a15.93,15.93,0,0,1-3.51,8.94h10.59c-1.95-2-3.67-6.74-3.44-8.88,2.36,1.89,2.9,2.48,6.39,2.74,4,.29,5.66-2.27,6.79-3.79A8.09,8.09,0,0,0,138.46,44.28Z"/><path class="cls-2" d="M138.46,114.31c-3.57-3.91-9.07-1.59-9.07-1.59,1.54-1.64,2.56-2.94,2.37-5.64a2.44,2.44,0,0,0,0-.27,7.75,7.75,0,0,0-15.5,0,8,8,0,0,0,.16,1.57c.18,1.86,1.1,3,2.37,4.34,0,0-5.5-2.32-9.08,1.59a8.12,8.12,0,0,0-.66,10.07c1.13,1.52,2.82,4.08,6.79,3.78,3.52-.26,4-.86,6.46-2.79a16,16,0,0,1-3.51,8.94h10.59c-1.95-2.05-3.67-6.75-3.44-8.89,2.36,1.89,2.9,2.48,6.39,2.74,4,.3,5.66-2.26,6.79-3.78A8.11,8.11,0,0,0,138.46,114.31Z"/><path class="cls-2" d="M138.46,188.43c-3.57,3.9-9.07,1.59-9.07,1.59,1.54,1.64,2.56,2.94,2.37,5.63a2.62,2.62,0,0,1,0,.28,7.75,7.75,0,0,1-15.5,0,8,8,0,0,1,.16-1.57c.18-1.87,1.1-3,2.37-4.34,0,0-5.5,2.31-9.08-1.59a8.12,8.12,0,0,1-.66-10.07c1.13-1.52,2.82-4.08,6.79-3.78,3.52.26,4,.86,6.46,2.79a16,16,0,0,0-3.51-8.94h10.59c-1.95,2-3.67,6.74-3.44,8.89,2.36-1.89,2.9-2.49,6.39-2.74,4-.3,5.66,2.26,6.79,3.78A8.11,8.11,0,0,1,138.46,188.43Z"/><path class="cls-2" d="M21.87,33.33a2.45,2.45,0,0,0-2.62-.46,1.9,1.9,0,0,0,.68-1.63.19.19,0,0,0,0-.08,2.24,2.24,0,0,0-4.48,0,1.75,1.75,0,0,0,0,.46,2,2,0,0,0,.68,1.25,2.45,2.45,0,0,0-2.62.46,2.32,2.32,0,0,0-.19,2.91,2.06,2.06,0,0,0,2,1.09,2.53,2.53,0,0,0,1.86-.8,4.6,4.6,0,0,1-1,2.58h3.06a4.4,4.4,0,0,1-1-2.57,2.48,2.48,0,0,0,1.85.79,2.06,2.06,0,0,0,2-1.09A2.34,2.34,0,0,0,21.87,33.33Z"/><path d="M15.52,24.88a2.12,2.12,0,0,1-.41-1.36,5.76,5.76,0,0,1,.57-2.4,17.42,17.42,0,0,1,1.46-2.51l1.56-2.23a6.73,6.73,0,0,0,.71-1.29,3.42,3.42,0,0,0,.28-1.19.45.45,0,0,0-.15-.4.8.8,0,0,0-.46-.11h-4a1.45,1.45,0,0,0-1.1.34,2,2,0,0,0-.44,1l-.21,1.15h-.43l.27-4h7.46a10.46,10.46,0,0,1-.3,2.31,7,7,0,0,1-1,2.37l-1.11,1.67a4.35,4.35,0,0,0-.79,2.52,7.71,7.71,0,0,0,.11,1.45l.12.68a7.3,7.3,0,0,1,.15,1.36c0,.82-.38,1.22-1.14,1.22A1.36,1.36,0,0,1,15.52,24.88Z"/><path class="cls-2" d="M143.92,199.06a2.45,2.45,0,0,0,2.62.46,1.9,1.9,0,0,0-.68,1.63s0,0,0,.08a2.24,2.24,0,0,0,4.48,0,2.32,2.32,0,0,0,0-.46,2,2,0,0,0-.69-1.25,2.45,2.45,0,0,0,2.62-.46,2.34,2.34,0,0,0,.2-2.91,2.09,2.09,0,0,0-2-1.09,2.53,2.53,0,0,0-1.86.8,4.6,4.6,0,0,1,1-2.58h-3.06a4.4,4.4,0,0,1,1,2.57,2.48,2.48,0,0,0-1.85-.79,2.06,2.06,0,0,0-2,1.09A2.34,2.34,0,0,0,143.92,199.06Z"/><path d="M150.27,207.51a2.12,2.12,0,0,1,.41,1.36,5.69,5.69,0,0,1-.57,2.4,16.16,16.16,0,0,1-1.47,2.51L147.09,216a6.73,6.73,0,0,0-.71,1.29,3.37,3.37,0,0,0-.28,1.19.47.47,0,0,0,.15.4.77.77,0,0,0,.45.1h4a1.46,1.46,0,0,0,1.1-.34,1.79,1.79,0,0,0,.43-1l.22-1.14h.43l-.28,4h-7.45a10.31,10.31,0,0,1,.3-2.31,7,7,0,0,1,1-2.37l1.11-1.67a4.39,4.39,0,0,0,.79-2.52,8.78,8.78,0,0,0-.11-1.46l-.12-.68a7.4,7.4,0,0,1-.16-1.36c0-.81.39-1.22,1.15-1.22A1.41,1.41,0,0,1,150.27,207.51Z"/></g></g></svg>