<svg xmlns="http://www.w3.org/2000/svg" viewBox="0 0 166.36 232.9"><defs><style>.cls-1{fill:#fff;}.cls-2{fill:#272425;}.cls-3{fill:#151515;}</style></defs><g id="Layer_2" data-name="Layer 2"><g id="Objects"><path class="cls-1" d="M149.08,18.36a.57.57,0,1,1-.57-.56A.57.57,0,0,1,149.08,18.36Z"/><path class="cls-1" d="M149.08,39.51a.57.57,0,0,1-1.14,0,.57.57,0,0,1,1.14,0Z"/><path class="cls-1" d="M149.08,58.8a.57.57,0,1,1-.57-.57A.58.58,0,0,1,149.08,58.8Z"/><path class="cls-1" d="M149.08,79a.57.57,0,1,1-1.14,0,.57.57,0,1,1,1.14,0Z"/><path class="cls-1" d="M149.08,91.8a.57.57,0,1,1-1.14,0,.57.57,0,1,1,1.14,0Z"/><path class="cls-1" d="M149.08,104.63a.57.57,0,1,1-1.14,0,.57.57,0,1,1,1.14,0Z"/><path class="cls-1" d="M149.08,117.81a.57.57,0,0,1-1.14,0,.57.57,0,0,1,1.14,0Z"/><path class="cls-1" d="M149.08,130.14a.57.57,0,1,1-1.14,0,.57.57,0,1,1,1.14,0Z"/><path class="cls-1" d="M149.08,143.43a.57.57,0,0,1-1.14,0,.57.57,0,1,1,1.14,0Z"/><path class="cls-1" d="M149.08,156.54a.57.57,0,1,1-1.14,0,.57.57,0,1,1,1.14,0Z"/><path class="cls-1" d="M149.08,169.29a.57.57,0,1,1-1.14,0,.57.57,0,1,1,1.14,0Z"/><path class="cls-1" d="M149.08,181.87a.57.57,0,0,1-1.14,0,.57.57,0,1,1,1.14,0Z"/><path class="cls-1" d="M149.08,194.71a.57.57,0,0,1-1.14,0,.57.57,0,0,1,1.14,0Z"/><path class="cls-1" d="M149.08,214.28a.57.57,0,1,1-1.14,0,.57.57,0,1,1,1.14,0Z"/><rect class="cls-1" width="166.36" height="232.9" rx="5.94"/><path class="cls-1" d="M122,18.36a.56.56,0,0,1-.57.57.57.57,0,1,1,0-1.13A.56.56,0,0,1,122,18.36Z"/><path class="cls-1" d="M97,18.36a.57.57,0,0,1-.57.57.57.57,0,1,1,.57-.57Z"/><path class="cls-1" d="M72,18.55a.58.58,0,0,1-.57.57.57.57,0,0,1-.57-.57.56.56,0,0,1,.57-.57A.57.57,0,0,1,72,18.55Z"/><path class="cls-1" d="M18.79,18.93a.57.57,0,0,1-.57.57.56.56,0,0,1-.57-.57.57.57,0,0,1,.57-.57A.58.58,0,0,1,18.79,18.93Z"/><path class="cls-1" d="M46.22,18.55a.57.57,0,1,1-.56-.57A.56.56,0,0,1,46.22,18.55Z"/><path class="cls-1" d="M18.79,39.06a.58.58,0,0,1-.57.57.57.57,0,0,1-.57-.57.56.56,0,0,1,.57-.57A.57.57,0,0,1,18.79,39.06Z"/><path class="cls-1" d="M18.79,58.93a.58.58,0,0,1-.57.57.57.57,0,0,1,0-1.14A.58.58,0,0,1,18.79,58.93Z"/><path class="cls-1" d="M18.79,78.87a.57.57,0,0,1-.57.57.57.57,0,1,1,.57-.57Z"/><path class="cls-1" d="M18.79,91.8a.58.58,0,0,1-.57.57.57.57,0,0,1-.57-.57.56.56,0,0,1,.57-.57A.57.57,0,0,1,18.79,91.8Z"/><path class="cls-1" d="M18.79,105.2a.58.58,0,0,1-.57.57.57.57,0,0,1-.57-.57.56.56,0,0,1,.57-.57A.57.57,0,0,1,18.79,105.2Z"/><path class="cls-1" d="M18.79,118.13a.58.58,0,0,1-.57.57.57.57,0,0,1-.57-.57.56.56,0,0,1,.57-.57A.57.57,0,0,1,18.79,118.13Z"/><path class="cls-1" d="M18.79,131.05a.57.57,0,0,1-.57.57.56.56,0,0,1-.57-.57.57.57,0,0,1,.57-.57A.58.58,0,0,1,18.79,131.05Z"/><path class="cls-1" d="M18.79,144.45a.57.57,0,0,1-.57.57.56.56,0,0,1-.57-.57.57.57,0,0,1,.57-.57A.58.58,0,0,1,18.79,144.45Z"/><path class="cls-1" d="M18.79,157.88a.58.58,0,0,1-.57.57.57.57,0,0,1,0-1.14A.58.58,0,0,1,18.79,157.88Z"/><path class="cls-1" d="M18.79,169.88a.58.58,0,0,1-.57.57.57.57,0,0,1,0-1.14A.58.58,0,0,1,18.79,169.88Z"/><path class="cls-1" d="M18.79,183.28a.58.58,0,0,1-.57.57.57.57,0,0,1-.57-.57.56.56,0,0,1,.57-.57A.57.57,0,0,1,18.79,183.28Z"/><path class="cls-1" d="M18.79,196.33a.57.57,0,0,1-.57.56.57.57,0,1,1,0-1.13A.57.57,0,0,1,18.79,196.33Z"/><path class="cls-1" d="M19,215.51a.58.58,0,0,1-.57.57.57.57,0,0,1,0-1.14A.58.58,0,0,1,19,215.51Z"/><path class="cls-1" d="M39.54,216.08a.57.57,0,1,1-.57-.57A.57.57,0,0,1,39.54,216.08Z"/><path class="cls-1" d="M66,216.08a.57.57,0,0,1-.57.57.57.57,0,0,1,0-1.14A.57.57,0,0,1,66,216.08Z"/><path class="cls-1" d="M92.4,216.08a.58.58,0,0,1-.57.57.57.57,0,0,1,0-1.14A.58.58,0,0,1,92.4,216.08Z"/><path class="cls-1" d="M118.12,216.08a.57.57,0,1,1-.57-.57A.58.58,0,0,1,118.12,216.08Z"/><path class="cls-2" d="M14.88,24.51h.72c.76,0,1.32-.47,1.67-1.42l4.17-11.78h.48l4.22,12.35a1.4,1.4,0,0,0,.46.66,1.18,1.18,0,0,0,.7.19h1.09v.62h-6v-.62h1.28a.77.77,0,0,0,.49-.15.4.4,0,0,0,.19-.34.9.9,0,0,0-.08-.42L23.34,21H18.8l-.47,1.3a3.9,3.9,0,0,0-.27,1.12,1.25,1.25,0,0,0,.22.75.81.81,0,0,0,.73.32H20.2v.62H14.88ZM19,20.39h4.12l-2-5.91Z"/><path class="cls-2" d="M143.34,206.47h5.32v.62h-1.18a.83.83,0,0,0-.74.32,1.37,1.37,0,0,0-.21.75,4,4,0,0,0,.27,1.13l.46,1.3h4.55l.91-2.58a1.1,1.1,0,0,0,.08-.43.43.43,0,0,0-.2-.34.76.76,0,0,0-.48-.15h-1.28v-.62h6v.62h-1.08a1.16,1.16,0,0,0-.7.19,1.39,1.39,0,0,0-.47.67l-4.21,12.34h-.49l-4.17-11.78c-.35-.94-.9-1.42-1.67-1.42h-.72Zm6.23,10.66,2-5.92h-4.11Z"/><path class="cls-3" d="M16.84,34.11a2.45,2.45,0,0,0,2.62.46,1.93,1.93,0,0,0-.69,1.63v.08a2.24,2.24,0,1,0,4.48,0,2.31,2.31,0,0,0-.05-.46,2,2,0,0,0-.68-1.25,2.45,2.45,0,0,0,2.62-.46,2.32,2.32,0,0,0,.19-2.91,2.06,2.06,0,0,0-2-1.09,2.5,2.5,0,0,0-1.86.81,4.61,4.61,0,0,1,1-2.59H19.46a4.4,4.4,0,0,1,1,2.57,2.52,2.52,0,0,0-1.85-.79,2.06,2.06,0,0,0-2,1.09A2.34,2.34,0,0,0,16.84,34.11Z"/><path class="cls-3" d="M104.32,105.49c-5-5.46-12.68-2.22-12.68-2.22,2.14-2.3,3.58-4.12,3.31-7.88,0-.13,0-.26,0-.38A10.83,10.83,0,1,0,73.3,95a11.3,11.3,0,0,0,.22,2.19c.25,2.61,1.54,4.18,3.31,6.07,0,0-7.69-3.24-12.68,2.22a11.32,11.32,0,0,0-.93,14.07c1.57,2.13,3.93,5.7,9.49,5.29,4.91-.37,5.64-1.2,9-3.9a22.27,22.27,0,0,1-4.9,12.49H91.64C88.91,130.58,86.5,124,86.82,121c3.3,2.64,4.06,3.47,8.93,3.83,5.56.41,7.92-3.16,9.49-5.29S109.31,111,104.32,105.49Z"/><path class="cls-3" d="M146,197.25a2.45,2.45,0,0,1,2.62-.46,1.92,1.92,0,0,1-.69-1.63v-.08a2.24,2.24,0,1,1,4.48,0,2.14,2.14,0,0,1,0,.45,2,2,0,0,1-.68,1.26,2.45,2.45,0,0,1,2.62.46,2.34,2.34,0,0,1,.19,2.91,2.06,2.06,0,0,1-2,1.09,2.5,2.5,0,0,1-1.86-.81,4.61,4.61,0,0,0,1,2.59h-3.06a4.35,4.35,0,0,0,1-2.57,2.5,2.5,0,0,1-1.84.79,2.09,2.09,0,0,1-2-1.09A2.34,2.34,0,0,1,146,197.25Z"/></g></g></svg>