<svg xmlns="http://www.w3.org/2000/svg" viewBox="0 0 166.36 232.9"><defs><style>.cls-1{fill:#fff;}.cls-2{fill:#151515;}</style></defs><g id="Layer_2" data-name="Layer 2"><g id="Objects"><rect class="cls-1" width="166.36" height="232.9" rx="5.94"/><path class="cls-1" d="M146.29,18.23a.57.57,0,0,1-1.14,0,.57.57,0,1,1,1.14,0Z"/><path class="cls-1" d="M119.16,18.23a.56.56,0,0,1-.57.57.57.57,0,0,1-.57-.57.58.58,0,0,1,.57-.57A.57.57,0,0,1,119.16,18.23Z"/><path class="cls-1" d="M94.21,18.23a.57.57,0,0,1-.57.57.56.56,0,0,1-.57-.57.57.57,0,0,1,.57-.57A.58.58,0,0,1,94.21,18.23Z"/><path class="cls-1" d="M69.16,18.42a.58.58,0,0,1-.57.57.57.57,0,0,1-.57-.57.56.56,0,0,1,.57-.57A.57.57,0,0,1,69.16,18.42Z"/><path class="cls-1" d="M146.29,39.37a.57.57,0,1,1-.57-.56A.57.57,0,0,1,146.29,39.37Z"/><path class="cls-1" d="M146.29,58.67a.57.57,0,0,1-1.14,0,.57.57,0,1,1,1.14,0Z"/><path class="cls-1" d="M146.29,78.88a.57.57,0,1,1-.57-.56A.57.57,0,0,1,146.29,78.88Z"/><path class="cls-1" d="M146.29,91.67a.57.57,0,0,1-1.14,0,.57.57,0,1,1,1.14,0Z"/><path class="cls-1" d="M146.29,104.5a.57.57,0,0,1-1.14,0,.57.57,0,0,1,1.14,0Z"/><path class="cls-1" d="M16,18.8a.57.57,0,0,1-.57.57.56.56,0,0,1-.57-.57.57.57,0,0,1,.57-.57A.58.58,0,0,1,16,18.8Z"/><path class="cls-1" d="M43.43,18.42a.57.57,0,1,1-1.13,0,.57.57,0,1,1,1.13,0Z"/><path class="cls-1" d="M16,38.93a.58.58,0,0,1-.57.57.57.57,0,0,1-.57-.57.56.56,0,0,1,.57-.57A.57.57,0,0,1,16,38.93Z"/><path class="cls-1" d="M16,58.8a.58.58,0,0,1-.57.57.57.57,0,0,1-.57-.57.56.56,0,0,1,.57-.57A.57.57,0,0,1,16,58.8Z"/><path class="cls-1" d="M16,78.74a.57.57,0,0,1-.57.57.56.56,0,0,1-.57-.57.57.57,0,0,1,.57-.57A.58.58,0,0,1,16,78.74Z"/><path class="cls-1" d="M16,91.67a.58.58,0,0,1-.57.57.57.57,0,0,1-.57-.57.56.56,0,0,1,.57-.57A.57.57,0,0,1,16,91.67Z"/><path class="cls-1" d="M16,105.07a.57.57,0,0,1-.57.56.57.57,0,1,1,0-1.13A.57.57,0,0,1,16,105.07Z"/><path class="cls-1" d="M16,118a.58.58,0,0,1-.57.57.57.57,0,0,1-.57-.57.56.56,0,0,1,.57-.57A.57.57,0,0,1,16,118Z"/><path class="cls-1" d="M16,130.92a.57.57,0,0,1-.57.57.56.56,0,0,1-.57-.57.57.57,0,0,1,.57-.57A.58.58,0,0,1,16,130.92Z"/><path class="cls-1" d="M16,144.32a.58.58,0,0,1-.57.57.57.57,0,0,1,0-1.14A.58.58,0,0,1,16,144.32Z"/><path class="cls-1" d="M16,157.75a.58.58,0,0,1-.57.57.57.57,0,0,1-.57-.57.56.56,0,0,1,.57-.57A.57.57,0,0,1,16,157.75Z"/><path class="cls-1" d="M16,169.75a.58.58,0,0,1-.57.57.57.57,0,0,1-.57-.57.56.56,0,0,1,.57-.57A.57.57,0,0,1,16,169.75Z"/><path class="cls-1" d="M16,183.15a.58.58,0,0,1-.57.57.57.57,0,0,1-.57-.57.56.56,0,0,1,.57-.57A.57.57,0,0,1,16,183.15Z"/><path class="cls-1" d="M16,196.19a.57.57,0,0,1-.57.57.56.56,0,0,1-.57-.57.57.57,0,0,1,.57-.57A.58.58,0,0,1,16,196.19Z"/><path class="cls-1" d="M16.23,215.38a.58.58,0,0,1-.57.57.57.57,0,0,1-.57-.57.56.56,0,0,1,.57-.57A.57.57,0,0,1,16.23,215.38Z"/><path class="cls-1" d="M36.75,216a.57.57,0,0,1-.57.57.58.58,0,0,1-.57-.57.57.57,0,0,1,.57-.57A.56.56,0,0,1,36.75,216Z"/><path class="cls-1" d="M63.2,216a.57.57,0,0,1-.57.57.58.58,0,0,1-.57-.57.57.57,0,0,1,.57-.57A.56.56,0,0,1,63.2,216Z"/><path class="cls-1" d="M89.61,216a.58.58,0,0,1-.57.57.57.57,0,0,1-.57-.57.56.56,0,0,1,.57-.57A.57.57,0,0,1,89.61,216Z"/><path class="cls-1" d="M115.33,216a.57.57,0,0,1-1.14,0,.57.57,0,0,1,1.14,0Z"/><path class="cls-1" d="M146.29,117.68a.57.57,0,1,1-.57-.57A.58.58,0,0,1,146.29,117.68Z"/><path class="cls-1" d="M146.29,130a.57.57,0,1,1-.57-.57A.58.58,0,0,1,146.29,130Z"/><path class="cls-1" d="M146.29,143.3a.57.57,0,0,1-1.14,0,.57.57,0,0,1,1.14,0Z"/><path class="cls-1" d="M146.29,156.41a.57.57,0,1,1-.57-.57A.57.57,0,0,1,146.29,156.41Z"/><path class="cls-1" d="M146.29,169.16a.57.57,0,0,1-1.14,0,.57.57,0,0,1,1.14,0Z"/><path class="cls-1" d="M146.29,181.74a.57.57,0,0,1-1.14,0,.57.57,0,0,1,1.14,0Z"/><path class="cls-1" d="M146.29,194.57a.57.57,0,1,1-.57-.56A.57.57,0,0,1,146.29,194.57Z"/><path class="cls-1" d="M146.29,214.14a.57.57,0,1,1-.57-.56A.57.57,0,0,1,146.29,214.14Z"/><path class="cls-2" d="M21.21,33.85a2.45,2.45,0,0,0-2.62-.46,1.92,1.92,0,0,0,.69-1.63v-.08a2.24,2.24,0,1,0-4.43.45,2,2,0,0,0,.68,1.26,2.45,2.45,0,0,0-2.62.46,2.32,2.32,0,0,0-.19,2.9,2.08,2.08,0,0,0,2,1.1A2.54,2.54,0,0,0,16.54,37a4.56,4.56,0,0,1-1,2.58h3.06a4.32,4.32,0,0,1-1-2.56,2.53,2.53,0,0,0,1.84.79,2.08,2.08,0,0,0,2-1.1A2.31,2.31,0,0,0,21.21,33.85Z"/><path d="M13.82,25.45a3.76,3.76,0,0,1-1.58-1.28,3.32,3.32,0,0,1-.59-2,3,3,0,0,1,.8-2.21A3.91,3.91,0,0,1,14.14,19v-.08l-.22-.09a3.42,3.42,0,0,1-1.57-1.26,3.52,3.52,0,0,1-.54-1.94,2.94,2.94,0,0,1,.62-1.84A4.08,4.08,0,0,1,14,12.46,5,5,0,0,1,16.1,12a4.81,4.81,0,0,1,2.24.48,3.45,3.45,0,0,1,1.39,1.24,3.06,3.06,0,0,1,.46,1.62,2.66,2.66,0,0,1-.67,1.82A4.45,4.45,0,0,1,18,18.33v.08l.45.17a3.11,3.11,0,0,1,2.29,2.93,4.48,4.48,0,0,1-.56,2.21,4,4,0,0,1-1.63,1.59,5.28,5.28,0,0,1-2.57.59A5,5,0,0,1,13.82,25.45Zm4.08-.62a2.69,2.69,0,0,0,1-1.07,2.79,2.79,0,0,0,.3-1.2A2.38,2.38,0,0,0,18.71,21a3.67,3.67,0,0,0-1.39-.89l-2.62-.95a2.6,2.6,0,0,0-1.24,1.05A3.93,3.93,0,0,0,13,22.25,2.71,2.71,0,0,0,14,24.54a3.49,3.49,0,0,0,2.21.74A3.08,3.08,0,0,0,17.9,24.83Zm.7-7.78A3.45,3.45,0,0,0,19,15.46,2.79,2.79,0,0,0,18.56,14a2.83,2.83,0,0,0-1-1,2.89,2.89,0,0,0-1.42-.37,3.11,3.11,0,0,0-2,.68,2.24,2.24,0,0,0-.83,1.81,2,2,0,0,0,.4,1.3,3.13,3.13,0,0,0,1.25.83l2.51,1A2.85,2.85,0,0,0,18.6,17.05Z"/><path class="cls-2" d="M143.26,199.57a2.45,2.45,0,0,0,2.62.46,1.91,1.91,0,0,0-.68,1.63v.08a2.24,2.24,0,1,0,4.43-.45A2.05,2.05,0,0,0,149,200a2.45,2.45,0,0,0,2.62-.46,2.34,2.34,0,0,0,.19-2.9,2.09,2.09,0,0,0-2-1.1,2.54,2.54,0,0,0-1.87.81,4.58,4.58,0,0,1,1-2.59h-3.07a4.36,4.36,0,0,1,1,2.57,2.54,2.54,0,0,0-1.85-.79,2.09,2.09,0,0,0-2,1.1A2.34,2.34,0,0,0,143.26,199.57Z"/><path d="M150.65,208a3.92,3.92,0,0,1,1.58,1.28,3.34,3.34,0,0,1,.59,2,3,3,0,0,1-.8,2.21,3.73,3.73,0,0,1-1.69,1.05v.08l.22.1a3.3,3.3,0,0,1,1.57,1.26,3.49,3.49,0,0,1,.54,1.94,2.93,2.93,0,0,1-.62,1.83,4.19,4.19,0,0,1-1.61,1.29,5.25,5.25,0,0,1-4.3,0,3.4,3.4,0,0,1-1.39-1.25,3.06,3.06,0,0,1-.46-1.62,2.65,2.65,0,0,1,.67-1.81,4.71,4.71,0,0,1,1.56-1.18V215l-.45-.18a3.11,3.11,0,0,1-2.29-2.93,4.47,4.47,0,0,1,.56-2.2,4,4,0,0,1,1.63-1.59,5.19,5.19,0,0,1,2.57-.59A5,5,0,0,1,150.65,208Zm-4.08.62a2.71,2.71,0,0,0-1,1.08,2.79,2.79,0,0,0-.3,1.19,2.35,2.35,0,0,0,.47,1.61,3.8,3.8,0,0,0,1.39.9l2.62.95a2.56,2.56,0,0,0,1.24-1,4,4,0,0,0,.45-2.1,2.74,2.74,0,0,0-.94-2.29,3.47,3.47,0,0,0-2.2-.73A3.09,3.09,0,0,0,146.57,208.59Zm-.7,7.79a3.45,3.45,0,0,0-.35,1.59,2.73,2.73,0,0,0,.39,1.44,2.68,2.68,0,0,0,1,1,2.79,2.79,0,0,0,1.42.37,3.09,3.09,0,0,0,2-.68,2.21,2.21,0,0,0,.83-1.8,2,2,0,0,0-.4-1.3,3,3,0,0,0-1.25-.84l-2.51-1A2.73,2.73,0,0,0,145.87,216.38Z"/><path class="cls-2" d="M94.81,79.73c-3.58-3.9-9.08-1.58-9.08-1.58,1.54-1.65,2.57-3,2.37-5.64a2.62,2.62,0,0,0,0-.28,7.75,7.75,0,1,0-15.49,0,7.5,7.5,0,0,0,.16,1.58c.17,1.86,1.09,3,2.36,4.34,0,0-5.5-2.32-9.07,1.58A8.11,8.11,0,0,0,65.4,89.8c1.13,1.52,2.82,4.08,6.79,3.79,3.52-.27,4-.87,6.46-2.8a15.93,15.93,0,0,1-3.51,8.94H85.73c-1.94-2-3.67-6.74-3.44-8.89,2.36,1.89,2.9,2.49,6.39,2.75,4,.29,5.66-2.27,6.79-3.79A8.12,8.12,0,0,0,94.81,79.73Z"/><path class="cls-2" d="M57.64,44.79c-3.58-3.91-9.07-1.59-9.07-1.59,1.53-1.64,2.56-2.94,2.37-5.64v-.27a7.75,7.75,0,1,0-15.49,0,7.4,7.4,0,0,0,.16,1.57c.18,1.86,1.1,3,2.36,4.34,0,0-5.49-2.32-9.07,1.59a8.09,8.09,0,0,0-.66,10.07c1.12,1.52,2.81,4.08,6.79,3.78,3.51-.26,4-.86,6.45-2.79A16,16,0,0,1,38,64.79h10.6c-2-2.05-3.67-6.75-3.45-8.89,2.37,1.89,2.91,2.48,6.39,2.74,4,.3,5.67-2.26,6.79-3.78A8.09,8.09,0,0,0,57.64,44.79Z"/><path class="cls-2" d="M57.64,114.83c-3.58-3.91-9.07-1.59-9.07-1.59,1.53-1.64,2.56-2.95,2.37-5.64v-.28a7.75,7.75,0,0,0-15.49,0,7.5,7.5,0,0,0,.16,1.58c.18,1.86,1.1,3,2.36,4.34,0,0-5.49-2.32-9.07,1.59a8.07,8.07,0,0,0-.66,10.06c1.12,1.53,2.81,4.08,6.79,3.79,3.51-.26,4-.86,6.45-2.79A16,16,0,0,1,38,134.83h10.6c-2-2.05-3.67-6.75-3.45-8.89,2.37,1.89,2.91,2.48,6.39,2.74,4,.29,5.67-2.26,6.79-3.79A8.07,8.07,0,0,0,57.64,114.83Z"/><path class="cls-2" d="M57.64,188.94c-3.58,3.91-9.07,1.59-9.07,1.59,1.53,1.64,2.56,2.95,2.37,5.64v.27a7.75,7.75,0,1,1-15.49,0,7.4,7.4,0,0,1,.16-1.57c.18-1.86,1.1-3,2.36-4.34,0,0-5.49,2.32-9.07-1.59a8.07,8.07,0,0,1-.66-10.06c1.12-1.53,2.81-4.08,6.79-3.79,3.51.26,4,.86,6.45,2.79A16,16,0,0,0,38,168.94h10.6c-2,2.05-3.67,6.75-3.45,8.89,2.37-1.89,2.91-2.48,6.39-2.74,4-.29,5.67,2.26,6.79,3.79A8.07,8.07,0,0,1,57.64,188.94Z"/><path class="cls-2" d="M135.89,44.79c-3.58-3.91-9.07-1.59-9.07-1.59,1.53-1.64,2.56-2.94,2.37-5.64v-.27a7.75,7.75,0,1,0-15.49,0,7.4,7.4,0,0,0,.16,1.57c.17,1.86,1.09,3,2.36,4.34,0,0-5.49-2.32-9.07,1.59a8.09,8.09,0,0,0-.66,10.07c1.12,1.52,2.81,4.08,6.79,3.78,3.51-.26,4-.86,6.45-2.79a16,16,0,0,1-3.51,8.94h10.6c-1.95-2.05-3.68-6.75-3.45-8.89,2.37,1.89,2.91,2.48,6.39,2.74,4,.3,5.67-2.26,6.79-3.78A8.1,8.1,0,0,0,135.89,44.79Z"/><path class="cls-2" d="M135.89,114.83c-3.58-3.91-9.07-1.59-9.07-1.59,1.53-1.64,2.56-2.95,2.37-5.64v-.28a7.75,7.75,0,0,0-15.49,0,7.5,7.5,0,0,0,.16,1.58c.17,1.86,1.09,3,2.36,4.34,0,0-5.49-2.32-9.07,1.59a8.07,8.07,0,0,0-.66,10.06c1.12,1.53,2.81,4.08,6.79,3.79,3.51-.26,4-.86,6.45-2.79a16,16,0,0,1-3.51,8.94h10.6c-1.95-2.05-3.68-6.75-3.45-8.89,2.37,1.89,2.91,2.48,6.39,2.74,4,.29,5.67-2.26,6.79-3.79A8.09,8.09,0,0,0,135.89,114.83Z"/><path class="cls-2" d="M135.89,188.94c-3.58,3.91-9.07,1.59-9.07,1.59,1.53,1.64,2.56,2.95,2.37,5.64v.27a7.75,7.75,0,1,1-15.49,0,7.4,7.4,0,0,1,.16-1.57c.17-1.86,1.09-3,2.36-4.34,0,0-5.49,2.32-9.07-1.59a8.07,8.07,0,0,1-.66-10.06c1.12-1.53,2.81-4.08,6.79-3.79,3.51.26,4,.86,6.45,2.79a16,16,0,0,0-3.51-8.94h10.6c-1.95,2.05-3.68,6.75-3.45,8.89,2.37-1.89,2.91-2.48,6.39-2.74,4-.29,5.67,2.26,6.79,3.79A8.09,8.09,0,0,1,135.89,188.94Z"/><path class="cls-2" d="M94.81,152c-3.58,3.91-9.08,1.59-9.08,1.59,1.54,1.64,2.57,3,2.37,5.64a2.44,2.44,0,0,1,0,.27,7.75,7.75,0,1,1-15.49,0,7.4,7.4,0,0,1,.16-1.57c.17-1.86,1.09-3,2.36-4.34,0,0-5.5,2.32-9.07-1.59a8.11,8.11,0,0,1-.67-10.07c1.13-1.52,2.82-4.08,6.79-3.78,3.52.26,4,.86,6.46,2.79A16,16,0,0,0,75.14,132H85.73c-1.94,2.05-3.67,6.75-3.44,8.89,2.36-1.89,2.9-2.48,6.39-2.74,4-.3,5.66,2.26,6.79,3.78A8.12,8.12,0,0,1,94.81,152Z"/></g></g></svg>