<svg xmlns="http://www.w3.org/2000/svg" viewBox="0 0 178.11 232.9"><defs><style>.cls-1{fill:#fff;}.cls-2{fill:#151515;}.cls-3{fill:#272425;}</style></defs><g id="Layer_2" data-name="Layer 2"><g id="Objects"><rect class="cls-1" x="11.76" width="166.36" height="232.9" rx="5.94"/><path class="cls-1" d="M1.14,224.82a.58.58,0,0,1-.57.57.57.57,0,1,1,0-1.14A.58.58,0,0,1,1.14,224.82Z"/><path class="cls-1" d="M27.59,224.82a.58.58,0,0,1-.57.57.57.57,0,0,1,0-1.14A.58.58,0,0,1,27.59,224.82Z"/><path class="cls-1" d="M54,224.82a.57.57,0,0,1-.57.57.57.57,0,0,1,0-1.14A.57.57,0,0,1,54,224.82Z"/><path class="cls-1" d="M79.71,224.82a.57.57,0,1,1-.56-.57A.57.57,0,0,1,79.71,224.82Z"/><path class="cls-1" d="M110.67,203.45a.57.57,0,1,1-.56-.57A.56.56,0,0,1,110.67,203.45Z"/><path class="cls-1" d="M110.67,223a.57.57,0,1,1-.56-.57A.56.56,0,0,1,110.67,223Z"/><path class="cls-1" d="M159.59,17.72a.57.57,0,1,1-.57-.56A.56.56,0,0,1,159.59,17.72Z"/><path class="cls-1" d="M132.47,17.72a.57.57,0,0,1-.57.57.57.57,0,1,1,.57-.57Z"/><path class="cls-1" d="M107.51,17.72a.56.56,0,0,1-.57.57.57.57,0,1,1,0-1.13A.56.56,0,0,1,107.51,17.72Z"/><path class="cls-1" d="M82.46,17.91a.57.57,0,0,1-.57.57.58.58,0,0,1-.57-.57.57.57,0,0,1,.57-.57A.56.56,0,0,1,82.46,17.91Z"/><path class="cls-1" d="M159.59,38.87a.57.57,0,1,1-.57-.57A.56.56,0,0,1,159.59,38.87Z"/><path class="cls-1" d="M159.59,58.16a.57.57,0,1,1-1.13,0,.57.57,0,1,1,1.13,0Z"/><path class="cls-1" d="M159.59,78.38a.57.57,0,1,1-.57-.57A.56.56,0,0,1,159.59,78.38Z"/><path class="cls-1" d="M159.59,91.16a.57.57,0,1,1-1.13,0,.57.57,0,1,1,1.13,0Z"/><path class="cls-1" d="M159.59,104a.57.57,0,1,1-1.13,0,.57.57,0,1,1,1.13,0Z"/><path class="cls-1" d="M29.3,18.29a.57.57,0,0,1-1.14,0,.57.57,0,0,1,1.14,0Z"/><path class="cls-1" d="M56.74,17.91a.58.58,0,0,1-.57.57.57.57,0,0,1-.57-.57.56.56,0,0,1,.57-.57A.57.57,0,0,1,56.74,17.91Z"/><path class="cls-1" d="M29.3,38.42a.57.57,0,0,1-1.14,0,.57.57,0,0,1,1.14,0Z"/><path class="cls-1" d="M29.3,58.29a.57.57,0,1,1-.57-.57A.58.58,0,0,1,29.3,58.29Z"/><path class="cls-1" d="M29.3,78.23a.57.57,0,1,1-.57-.56A.57.57,0,0,1,29.3,78.23Z"/><path class="cls-1" d="M29.3,91.16a.57.57,0,0,1-1.14,0,.57.57,0,0,1,1.14,0Z"/><path class="cls-1" d="M29.3,104.56a.57.57,0,1,1-1.14,0,.57.57,0,1,1,1.14,0Z"/><path class="cls-1" d="M29.3,117.49a.57.57,0,0,1-1.14,0,.57.57,0,0,1,1.14,0Z"/><path class="cls-1" d="M29.3,130.41a.57.57,0,1,1-1.14,0,.57.57,0,0,1,1.14,0Z"/><path class="cls-1" d="M29.3,143.81a.57.57,0,1,1-1.14,0,.57.57,0,0,1,1.14,0Z"/><path class="cls-1" d="M29.3,157.24a.57.57,0,1,1-.57-.57A.58.58,0,0,1,29.3,157.24Z"/><path class="cls-1" d="M29.3,169.24a.57.57,0,1,1-.57-.57A.58.58,0,0,1,29.3,169.24Z"/><path class="cls-1" d="M159.59,117.17a.57.57,0,1,1-.57-.57A.57.57,0,0,1,159.59,117.17Z"/><path class="cls-1" d="M159.59,129.5a.57.57,0,1,1-.57-.57A.57.57,0,0,1,159.59,129.5Z"/><path class="cls-1" d="M159.59,142.79a.57.57,0,1,1-.57-.57A.57.57,0,0,1,159.59,142.79Z"/><path class="cls-1" d="M159.59,155.9a.57.57,0,1,1-1.13,0,.57.57,0,1,1,1.13,0Z"/><path class="cls-1" d="M159.59,168.65a.57.57,0,1,1-.57-.57A.57.57,0,0,1,159.59,168.65Z"/><path class="cls-1" d="M159.59,181.23a.57.57,0,1,1-1.13,0,.57.57,0,1,1,1.13,0Z"/><path class="cls-2" d="M109.3,184.71c-3.57,3.91-9.07,1.59-9.07,1.59,1.54,1.64,2.56,2.95,2.37,5.64a2.44,2.44,0,0,1,0,.27,7.75,7.75,0,0,1-15.5,0,8.12,8.12,0,0,1,.16-1.57c.18-1.86,1.1-3,2.37-4.34,0,0-5.5,2.32-9.08-1.59a8.1,8.1,0,0,1-.66-10.06c1.13-1.53,2.82-4.08,6.79-3.79,3.52.26,4,.86,6.46,2.79a16,16,0,0,0-3.51-8.94h10.59c-2,2-3.67,6.75-3.44,8.89,2.36-1.89,2.9-2.48,6.39-2.74,4-.29,5.66,2.26,6.79,3.79A8.09,8.09,0,0,1,109.3,184.71Z"/><path class="cls-3" d="M26.1,22.37a6.24,6.24,0,0,1,1.82-2.25l1.87-1.59a5.38,5.38,0,0,0,1.38-1.67,4.41,4.41,0,0,0,.48-2.09,3.4,3.4,0,0,0-.74-2.34,2.89,2.89,0,0,0-3.29-.54,2.71,2.71,0,0,0-.93.77,1.61,1.61,0,0,0-.36,1,1,1,0,0,0,.21.69,1,1,0,0,0,.59.28,1.61,1.61,0,0,1,.92.42,1.07,1.07,0,0,1,.3.76.86.86,0,0,1-.26.63,1.06,1.06,0,0,1-.73.25A1.65,1.65,0,0,1,26,16a2.52,2.52,0,0,1-.52-1.66A3.32,3.32,0,0,1,26,12.59a3.39,3.39,0,0,1,1.38-1.24,4.26,4.26,0,0,1,2-.45,5.17,5.17,0,0,1,2.23.47,3.63,3.63,0,0,1,1.55,1.34,3.68,3.68,0,0,1,.57,2.06,3.12,3.12,0,0,1-.84,2.13,12.24,12.24,0,0,1-2.19,1.92l-1.9,1.48a6.52,6.52,0,0,0-1.26,1.07,1.65,1.65,0,0,0-.43,1.06c0,.31.2.47.6.47h3.67a1.44,1.44,0,0,0,1.09-.34,1.87,1.87,0,0,0,.44-1l.21-1.15h.43l-.27,4H25.69A5.87,5.87,0,0,1,26.1,22.37Z"/><path class="cls-3" d="M164.56,208a6.08,6.08,0,0,1-1.82,2.25l-1.87,1.59a5.41,5.41,0,0,0-1.39,1.67,4.57,4.57,0,0,0-.47,2.1,3.34,3.34,0,0,0,.74,2.33,2.89,2.89,0,0,0,3.29.54,2.71,2.71,0,0,0,.93-.77,1.61,1.61,0,0,0,.36-1,.94.94,0,0,0-.22-.69,1,1,0,0,0-.58-.28,1.5,1.5,0,0,1-.92-.42,1.07,1.07,0,0,1-.3-.76.82.82,0,0,1,.26-.62,1,1,0,0,1,.73-.26,1.65,1.65,0,0,1,1.32.63,2.52,2.52,0,0,1,.52,1.66,3.32,3.32,0,0,1-.49,1.79,3.39,3.39,0,0,1-1.38,1.24,4.29,4.29,0,0,1-2,.45,5.17,5.17,0,0,1-2.23-.47,3.57,3.57,0,0,1-2.12-3.39,3.15,3.15,0,0,1,.84-2.14A12.69,12.69,0,0,1,160,211.5l1.9-1.48a6.42,6.42,0,0,0,1.25-1.07,1.66,1.66,0,0,0,.44-1.06c0-.31-.2-.47-.6-.47H159.3a1.51,1.51,0,0,0-1.1.34,1.86,1.86,0,0,0-.43,1l-.22,1.15h-.42l.27-4H165A5.87,5.87,0,0,1,164.56,208Z"/><path class="cls-2" d="M25.28,33.47a2.45,2.45,0,0,0,2.62.46,1.9,1.9,0,0,0-.69,1.63v.08a2.24,2.24,0,0,0,4.48,0,2.31,2.31,0,0,0-.05-.46A2,2,0,0,0,31,33.93a2.45,2.45,0,0,0,2.62-.46,2.34,2.34,0,0,0,.19-2.91,2.06,2.06,0,0,0-2-1.09,2.47,2.47,0,0,0-1.86.81,4.61,4.61,0,0,1,1-2.59H27.9a4.32,4.32,0,0,1,1,2.57,2.46,2.46,0,0,0-1.84-.79,2.06,2.06,0,0,0-2,1.09A2.32,2.32,0,0,0,25.28,33.47Z"/><path class="cls-2" d="M109.3,40.56c-3.57-3.91-9.07-1.59-9.07-1.59,1.54-1.64,2.56-2.94,2.37-5.64a2.44,2.44,0,0,0,0-.27,7.75,7.75,0,0,0-15.5,0,8.12,8.12,0,0,0,.16,1.57c.18,1.86,1.1,3,2.37,4.34,0,0-5.5-2.32-9.08,1.59a8.12,8.12,0,0,0-.66,10.07c1.13,1.52,2.82,4.08,6.79,3.78,3.52-.26,4-.86,6.46-2.79a16,16,0,0,1-3.51,8.94h10.59c-2-2.05-3.67-6.75-3.44-8.89,2.36,1.89,2.9,2.48,6.39,2.74,4,.3,5.66-2.26,6.79-3.78A8.11,8.11,0,0,0,109.3,40.56Z"/><path class="cls-2" d="M155.59,196.61a2.45,2.45,0,0,1,2.62-.46,1.91,1.91,0,0,1-.68-1.63s0-.05,0-.08a2.24,2.24,0,1,1,4.48,0,2.15,2.15,0,0,1,0,.45,2.06,2.06,0,0,1-.69,1.26,2.45,2.45,0,0,1,2.62.46,2.34,2.34,0,0,1,.2,2.91,2.1,2.1,0,0,1-2,1.09,2.54,2.54,0,0,1-1.86-.81,4.61,4.61,0,0,0,1,2.59h-3.06a4.43,4.43,0,0,0,1-2.57,2.56,2.56,0,0,1-1.85.79,2.07,2.07,0,0,1-2-1.09A2.34,2.34,0,0,1,155.59,196.61Z"/><path class="cls-1" d="M168.21,141.38a.57.57,0,1,1-1.13,0,.57.57,0,1,1,1.13,0Z"/><path class="cls-1" d="M168.21,161.32a.57.57,0,1,1-.57-.57A.57.57,0,0,1,168.21,161.32Z"/><path class="cls-1" d="M168.21,174.25a.57.57,0,1,1-1.13,0,.57.57,0,1,1,1.13,0Z"/><path class="cls-1" d="M168.21,187.65a.57.57,0,1,1-.57-.57A.56.56,0,0,1,168.21,187.65Z"/><path class="cls-1" d="M168.21,200.58a.57.57,0,1,1-1.13,0,.57.57,0,1,1,1.13,0Z"/><path class="cls-1" d="M168.21,213.5a.57.57,0,1,1-.57-.57A.57.57,0,0,1,168.21,213.5Z"/><path class="cls-1" d="M168.21,226.9a.57.57,0,1,1-1.13,0,.57.57,0,1,1,1.13,0Z"/></g></g></svg>