<svg xmlns="http://www.w3.org/2000/svg" viewBox="0 0 166.36 232.9"><defs><style>.cls-1{fill:#fff;}.cls-2{fill:#151515;}.cls-3{fill:#272425;}</style></defs><g id="Layer_2" data-name="Layer 2"><g id="Objects"><rect class="cls-1" width="166.36" height="232.9" rx="5.94"/><path class="cls-1" d="M149.08,18.36a.57.57,0,1,1-.57-.56A.57.57,0,0,1,149.08,18.36Z"/><path class="cls-1" d="M122,18.36a.56.56,0,0,1-.57.57.57.57,0,1,1,0-1.13A.56.56,0,0,1,122,18.36Z"/><path class="cls-1" d="M97,18.36a.57.57,0,0,1-.57.57.57.57,0,1,1,.57-.57Z"/><path class="cls-1" d="M72,18.55a.58.58,0,0,1-.57.57.57.57,0,0,1-.57-.57.56.56,0,0,1,.57-.57A.57.57,0,0,1,72,18.55Z"/><path class="cls-1" d="M149.08,39.51a.57.57,0,0,1-1.14,0,.57.57,0,0,1,1.14,0Z"/><path class="cls-1" d="M149.08,58.8a.57.57,0,1,1-.57-.57A.58.58,0,0,1,149.08,58.8Z"/><path class="cls-1" d="M149.08,79a.57.57,0,1,1-1.14,0,.57.57,0,1,1,1.14,0Z"/><path class="cls-1" d="M149.08,91.8a.57.57,0,1,1-1.14,0,.57.57,0,1,1,1.14,0Z"/><path class="cls-1" d="M149.08,104.63a.57.57,0,1,1-1.14,0,.57.57,0,1,1,1.14,0Z"/><path class="cls-1" d="M18.79,18.93a.57.57,0,0,1-.57.57.56.56,0,0,1-.57-.57.57.57,0,0,1,.57-.57A.58.58,0,0,1,18.79,18.93Z"/><path class="cls-1" d="M46.22,18.55a.57.57,0,1,1-.56-.57A.56.56,0,0,1,46.22,18.55Z"/><path class="cls-1" d="M18.79,39.06a.58.58,0,0,1-.57.57.57.57,0,0,1-.57-.57.56.56,0,0,1,.57-.57A.57.57,0,0,1,18.79,39.06Z"/><path class="cls-1" d="M18.79,58.93a.58.58,0,0,1-.57.57.57.57,0,0,1,0-1.14A.58.58,0,0,1,18.79,58.93Z"/><path class="cls-1" d="M18.79,78.87a.57.57,0,0,1-.57.57.57.57,0,1,1,.57-.57Z"/><path class="cls-1" d="M18.79,91.8a.58.58,0,0,1-.57.57.57.57,0,0,1-.57-.57.56.56,0,0,1,.57-.57A.57.57,0,0,1,18.79,91.8Z"/><path class="cls-1" d="M18.79,105.2a.58.58,0,0,1-.57.57.57.57,0,0,1-.57-.57.56.56,0,0,1,.57-.57A.57.57,0,0,1,18.79,105.2Z"/><path class="cls-1" d="M18.79,118.13a.58.58,0,0,1-.57.57.57.57,0,0,1-.57-.57.56.56,0,0,1,.57-.57A.57.57,0,0,1,18.79,118.13Z"/><path class="cls-1" d="M18.79,131.05a.57.57,0,0,1-.57.57.56.56,0,0,1-.57-.57.57.57,0,0,1,.57-.57A.58.58,0,0,1,18.79,131.05Z"/><path class="cls-1" d="M18.79,144.45a.57.57,0,0,1-.57.57.56.56,0,0,1-.57-.57.57.57,0,0,1,.57-.57A.58.58,0,0,1,18.79,144.45Z"/><path class="cls-1" d="M18.79,157.88a.58.58,0,0,1-.57.57.57.57,0,0,1,0-1.14A.58.58,0,0,1,18.79,157.88Z"/><path class="cls-1" d="M18.79,169.88a.58.58,0,0,1-.57.57.57.57,0,0,1,0-1.14A.58.58,0,0,1,18.79,169.88Z"/><path class="cls-1" d="M149.08,117.81a.57.57,0,0,1-1.14,0,.57.57,0,0,1,1.14,0Z"/><path class="cls-1" d="M149.08,130.14a.57.57,0,1,1-1.14,0,.57.57,0,1,1,1.14,0Z"/><path class="cls-1" d="M149.08,143.43a.57.57,0,0,1-1.14,0,.57.57,0,1,1,1.14,0Z"/><path class="cls-1" d="M149.08,156.54a.57.57,0,1,1-1.14,0,.57.57,0,1,1,1.14,0Z"/><path class="cls-1" d="M149.08,169.29a.57.57,0,1,1-1.14,0,.57.57,0,1,1,1.14,0Z"/><path class="cls-1" d="M149.08,181.87a.57.57,0,0,1-1.14,0,.57.57,0,1,1,1.14,0Z"/><path class="cls-2" d="M98.79,185.35c-3.57,3.91-9.07,1.59-9.07,1.59,1.53,1.64,2.56,2.95,2.37,5.64,0,.09,0,.18,0,.27a7.75,7.75,0,0,1-15.5,0,8.12,8.12,0,0,1,.16-1.57c.18-1.86,1.1-3,2.36-4.34,0,0-5.49,2.32-9.07-1.59a8.09,8.09,0,0,1-.66-10.06c1.12-1.53,2.81-4.08,6.79-3.79,3.51.26,4,.86,6.45,2.79a16,16,0,0,0-3.51-8.94h10.6c-2,2.05-3.67,6.75-3.45,8.89,2.37-1.89,2.91-2.48,6.4-2.74,4-.29,5.66,2.26,6.78,3.79A8.07,8.07,0,0,1,98.79,185.35Z"/><path class="cls-3" d="M15.58,23a6.29,6.29,0,0,1,1.83-2.25l1.86-1.59a5.41,5.41,0,0,0,1.39-1.67,4.41,4.41,0,0,0,.48-2.09,3.4,3.4,0,0,0-.74-2.34,2.89,2.89,0,0,0-3.29-.54,2.71,2.71,0,0,0-.93.77,1.61,1.61,0,0,0-.36,1A1,1,0,0,0,16,15a1,1,0,0,0,.58.28,1.65,1.65,0,0,1,.93.42,1.08,1.08,0,0,1,.3.77.83.83,0,0,1-.27.62,1,1,0,0,1-.72.25,1.63,1.63,0,0,1-1.32-.63A2.52,2.52,0,0,1,15,15a3.33,3.33,0,0,1,.5-1.79A3.43,3.43,0,0,1,16.87,12a4.29,4.29,0,0,1,2-.45,5.22,5.22,0,0,1,2.24.47,3.68,3.68,0,0,1,1.55,1.34,3.76,3.76,0,0,1,.56,2.06,3.16,3.16,0,0,1-.83,2.13,12.34,12.34,0,0,1-2.2,1.92l-1.9,1.48A6.11,6.11,0,0,0,17,22a1.62,1.62,0,0,0-.44,1.05c0,.31.2.47.61.47h3.66a1.45,1.45,0,0,0,1.1-.34,2,2,0,0,0,.44-1l.21-1.15H23l-.27,4H15.18A5.86,5.86,0,0,1,15.58,23Z"/><path class="cls-3" d="M154.05,208.59a6.13,6.13,0,0,1-1.83,2.25l-1.86,1.59A5.53,5.53,0,0,0,149,214.1a4.45,4.45,0,0,0-.47,2.1,3.39,3.39,0,0,0,.73,2.33,2.68,2.68,0,0,0,2.1.83,2.64,2.64,0,0,0,1.19-.29,2.62,2.62,0,0,0,.93-.77,1.61,1.61,0,0,0,.36-1,1,1,0,0,0-.21-.69,1,1,0,0,0-.58-.28,1.47,1.47,0,0,1-.92-.42,1,1,0,0,1-.31-.76.8.8,0,0,1,.27-.62,1,1,0,0,1,.72-.26,1.62,1.62,0,0,1,1.32.63,2.52,2.52,0,0,1,.53,1.66,3.33,3.33,0,0,1-.5,1.79,3.43,3.43,0,0,1-1.37,1.24,4.29,4.29,0,0,1-2,.45,5.22,5.22,0,0,1-2.24-.47,3.62,3.62,0,0,1-1.55-1.34,3.72,3.72,0,0,1-.56-2.05,3.18,3.18,0,0,1,.83-2.14,13.19,13.19,0,0,1,2.2-1.92l1.9-1.48a6.42,6.42,0,0,0,1.25-1.07,1.66,1.66,0,0,0,.44-1.06c0-.31-.2-.47-.61-.47h-3.66a1.49,1.49,0,0,0-1.1.34,2,2,0,0,0-.44,1l-.21,1.15h-.43l.27-4h7.57A5.86,5.86,0,0,1,154.05,208.59Z"/><path class="cls-2" d="M14.76,34.11a2.45,2.45,0,0,0,2.62.46,1.9,1.9,0,0,0-.68,1.63v.08a2.24,2.24,0,1,0,4.48,0,2.31,2.31,0,0,0-.05-.46,2.05,2.05,0,0,0-.68-1.25,2.45,2.45,0,0,0,2.62-.46,2.35,2.35,0,0,0,.19-2.91,2.07,2.07,0,0,0-2-1.09,2.51,2.51,0,0,0-1.87.81,4.66,4.66,0,0,1,1-2.59H17.38a4.28,4.28,0,0,1,1,2.57,2.5,2.5,0,0,0-1.85-.79,2.07,2.07,0,0,0-2,1.09A2.35,2.35,0,0,0,14.76,34.11Z"/><path class="cls-2" d="M98.79,41.2c-3.57-3.91-9.07-1.59-9.07-1.59C91.25,38,92.28,36.67,92.09,34c0-.09,0-.18,0-.27a7.75,7.75,0,0,0-15.5,0,8.12,8.12,0,0,0,.16,1.57c.18,1.86,1.1,3,2.36,4.34,0,0-5.49-2.32-9.07,1.59a8.1,8.1,0,0,0-.66,10.07c1.12,1.52,2.81,4.08,6.79,3.78,3.51-.26,4-.86,6.45-2.79a16,16,0,0,1-3.51,8.94h10.6c-2-2.05-3.67-6.75-3.45-8.89,2.37,1.89,2.91,2.48,6.4,2.74,4,.3,5.66-2.26,6.78-3.78A8.09,8.09,0,0,0,98.79,41.2Z"/><path class="cls-2" d="M145.08,197.25a2.45,2.45,0,0,1,2.62-.46,1.92,1.92,0,0,1-.69-1.63v-.08a2.24,2.24,0,0,1,4.48,0,2.14,2.14,0,0,1-.05.45,2,2,0,0,1-.68,1.26,2.45,2.45,0,0,1,2.62.46,2.34,2.34,0,0,1,.19,2.91,2.06,2.06,0,0,1-2,1.09,2.5,2.5,0,0,1-1.86-.81,4.61,4.61,0,0,0,1,2.59H147.7a4.35,4.35,0,0,0,1-2.57,2.5,2.5,0,0,1-1.84.79,2.06,2.06,0,0,1-2-1.09A2.32,2.32,0,0,1,145.08,197.25Z"/></g></g></svg>