<svg xmlns="http://www.w3.org/2000/svg" viewBox="0 0 166.25 232.84"><defs><style>.cls-1{fill:#fff;}.cls-2{fill:#af0f07;}.cls-3{fill:#a43e32;}</style></defs><g id="Layer_2" data-name="Layer 2"><g id="Objects"><rect class="cls-1" width="166.25" height="232.84" rx="5.94"/><path class="cls-1" d="M149,9.88a.58.58,0,0,1-.57.57.57.57,0,0,1-.57-.57.56.56,0,0,1,.57-.57A.57.57,0,0,1,149,9.88Z"/><path class="cls-1" d="M121.88,9.88a.58.58,0,0,1-.57.57.57.57,0,0,1-.57-.57.56.56,0,0,1,.57-.57A.57.57,0,0,1,121.88,9.88Z"/><path class="cls-1" d="M96.94,9.88a.58.58,0,0,1-.57.57.57.57,0,0,1-.57-.57.56.56,0,0,1,.57-.57A.57.57,0,0,1,96.94,9.88Z"/><circle class="cls-1" cx="71.33" cy="10.06" r="0.57"/><path class="cls-1" d="M149,31a.57.57,0,0,1-.57.57.56.56,0,0,1-.57-.57.57.57,0,0,1,.57-.57A.58.58,0,0,1,149,31Z"/><path class="cls-1" d="M149,50.3a.58.58,0,0,1-.57.57.57.57,0,1,1,0-1.14A.58.58,0,0,1,149,50.3Z"/><path class="cls-1" d="M149,70.51a.57.57,0,0,1-.57.57.56.56,0,0,1-.57-.57.57.57,0,0,1,.57-.57A.58.58,0,0,1,149,70.51Z"/><path class="cls-1" d="M149,83.29a.57.57,0,0,1-.57.57.56.56,0,0,1-.57-.57.57.57,0,0,1,.57-.57A.58.58,0,0,1,149,83.29Z"/><path class="cls-1" d="M149,96.12a.58.58,0,0,1-.57.57.57.57,0,0,1-.57-.57.56.56,0,0,1,.57-.57A.57.57,0,0,1,149,96.12Z"/><circle class="cls-1" cx="18.21" cy="10.45" r="0.57"/><path class="cls-1" d="M46.2,10.06a.58.58,0,0,1-.57.57.57.57,0,1,1,0-1.14A.58.58,0,0,1,46.2,10.06Z"/><circle class="cls-1" cx="18.21" cy="30.56" r="0.57"/><circle class="cls-1" cx="18.21" cy="50.43" r="0.57"/><circle class="cls-1" cx="18.21" cy="70.37" r="0.57"/><circle class="cls-1" cx="18.21" cy="83.29" r="0.57"/><circle class="cls-1" cx="18.21" cy="96.69" r="0.57"/><circle class="cls-1" cx="18.21" cy="109.62" r="0.57"/><circle class="cls-1" cx="18.21" cy="122.54" r="0.57"/><circle class="cls-1" cx="18.21" cy="135.93" r="0.57"/><circle class="cls-1" cx="18.21" cy="149.36" r="0.57"/><circle class="cls-1" cx="18.21" cy="161.35" r="0.57"/><path class="cls-1" d="M18.77,174.75a.57.57,0,1,1-.56-.57A.56.56,0,0,1,18.77,174.75Z"/><circle class="cls-1" cx="18.21" cy="187.79" r="0.57"/><circle class="cls-1" cx="18.44" cy="206.97" r="0.57"/><circle class="cls-1" cx="38.95" cy="207.54" r="0.57"/><circle class="cls-1" cx="65.38" cy="207.54" r="0.57"/><circle class="cls-1" cx="91.77" cy="207.54" r="0.57"/><circle class="cls-1" cx="117.48" cy="207.54" r="0.57"/><path class="cls-1" d="M149,109.3a.58.58,0,0,1-.57.57.57.57,0,0,1-.57-.57.56.56,0,0,1,.57-.57A.57.57,0,0,1,149,109.3Z"/><path class="cls-1" d="M149,121.62a.57.57,0,0,1-.57.57.57.57,0,1,1,.57-.57Z"/><path class="cls-1" d="M149,134.91a.57.57,0,0,1-.57.57.56.56,0,0,1-.57-.57.57.57,0,0,1,.57-.57A.58.58,0,0,1,149,134.91Z"/><path class="cls-1" d="M149,148a.57.57,0,0,1-.57.57.56.56,0,0,1-.57-.57.57.57,0,0,1,.57-.57A.58.58,0,0,1,149,148Z"/><path class="cls-1" d="M149,160.77a.57.57,0,0,1-.57.56.57.57,0,1,1,0-1.13A.57.57,0,0,1,149,160.77Z"/><path class="cls-1" d="M149,173.34a.58.58,0,0,1-.57.57.57.57,0,0,1-.57-.57.56.56,0,0,1,.57-.57A.57.57,0,0,1,149,173.34Z"/><path class="cls-1" d="M149,186.17a.57.57,0,0,1-.57.57.56.56,0,0,1-.57-.57.57.57,0,0,1,.57-.57A.58.58,0,0,1,149,186.17Z"/><path class="cls-1" d="M149,205.74a.58.58,0,0,1-.57.57.57.57,0,0,1-.57-.57.56.56,0,0,1,.57-.57A.57.57,0,0,1,149,205.74Z"/><polygon class="cls-2" points="15.08 28.15 10.36 33.36 14.56 39.09 19.41 33.83 15.08 28.15"/><polygon class="cls-2" points="147.46 191.54 142.74 196.76 146.95 202.48 151.79 197.23 147.46 191.54"/><path class="cls-3" d="M12.82,23.66a2.9,2.9,0,0,1-1.22-1,2.62,2.62,0,0,1-.43-1.45,1.93,1.93,0,0,1,.47-1.39,1.43,1.43,0,0,1,1.08-.49,1.1,1.1,0,0,1,.83.32,1.13,1.13,0,0,1,.3.81,1,1,0,0,1-.19.61,1.23,1.23,0,0,1-.51.42,2.3,2.3,0,0,0-.43.27.46.46,0,0,0-.15.36,1.12,1.12,0,0,0,.48,1,2.89,2.89,0,0,0,1.65.35,2.17,2.17,0,0,0,2.08-1.24A6.78,6.78,0,0,0,17.42,19a5.08,5.08,0,0,0-.62-2.74,2.25,2.25,0,0,0-2-.95,2.59,2.59,0,0,0-1,.17,2.46,2.46,0,0,0-.83.59,1.44,1.44,0,0,0-.32.51,1.49,1.49,0,0,0-.13.56.51.51,0,0,1-.11.35.33.33,0,0,1-.28.13c-.2,0-.31-.16-.31-.48v-6.7l.43-.33a3.22,3.22,0,0,0,1.19.59,5.39,5.39,0,0,0,1.47.23,7.21,7.21,0,0,0,1.68-.18,5.37,5.37,0,0,0,1.56-.64l.23.27a5.41,5.41,0,0,1-1.72,1.47,4.45,4.45,0,0,1-2.16.55,6.71,6.71,0,0,1-1.14-.08,2.94,2.94,0,0,1-.84-.31v3.71l.12,0a3.4,3.4,0,0,1,2.52-1.15,4.16,4.16,0,0,1,3.17,1.21A4.42,4.42,0,0,1,19.47,19a5.12,5.12,0,0,1-.64,2.56,5,5,0,0,1-1.74,1.8A4.61,4.61,0,0,1,14.7,24,4.38,4.38,0,0,1,12.82,23.66Z"/><path class="cls-3" d="M149.6,206a3,3,0,0,1,1.22,1,2.62,2.62,0,0,1,.42,1.45,1.93,1.93,0,0,1-.46,1.39,1.44,1.44,0,0,1-1.09.49,1.08,1.08,0,0,1-.82-.32,1.13,1.13,0,0,1-.3-.81,1,1,0,0,1,.19-.61,1.23,1.23,0,0,1,.51-.42,1.91,1.91,0,0,0,.42-.27.44.44,0,0,0,.16-.37,1.13,1.13,0,0,0-.49-1,2.94,2.94,0,0,0-1.65-.34,2.17,2.17,0,0,0-2.07,1.24,6.75,6.75,0,0,0-.64,3.14,5.08,5.08,0,0,0,.62,2.74,2.24,2.24,0,0,0,2,1,2.27,2.27,0,0,0,1.8-.76,1.44,1.44,0,0,0,.32-.51,1.71,1.71,0,0,0,.13-.56.56.56,0,0,1,.1-.35.34.34,0,0,1,.28-.13c.21,0,.31.16.31.48v6.7l-.42.33a3.19,3.19,0,0,0-1.2-.59,5.32,5.32,0,0,0-1.46-.23,7.36,7.36,0,0,0-1.69.18,5.43,5.43,0,0,0-1.55.64l-.23-.27a5.31,5.31,0,0,1,1.72-1.47,4.42,4.42,0,0,1,2.16-.55,6.71,6.71,0,0,1,1.14.08,3.38,3.38,0,0,1,.84.3v-3.7l-.12,0a3.25,3.25,0,0,1-1.13.84,3.38,3.38,0,0,1-1.39.3,4.14,4.14,0,0,1-3.17-1.2,4.43,4.43,0,0,1-1.14-3.18,5.13,5.13,0,0,1,.65-2.56,4.93,4.93,0,0,1,1.74-1.8,4.58,4.58,0,0,1,2.38-.65A4.39,4.39,0,0,1,149.6,206Z"/><polygon class="cls-2" points="52.06 21.95 38.76 38.1 52.06 54.51 65.69 38.23 52.06 21.95"/><polygon class="cls-2" points="52.06 171.53 38.76 187.67 52.06 204.08 65.69 187.8 52.06 171.53"/><polygon class="cls-2" points="110.24 21.95 96.95 38.1 110.24 54.51 123.88 38.23 110.24 21.95"/><polygon class="cls-2" points="110.24 171.53 96.95 187.67 110.24 204.08 123.88 187.8 110.24 171.53"/><polygon class="cls-2" points="80.61 96.74 67.32 112.89 80.61 129.29 94.25 113.02 80.61 96.74"/></g></g></svg>