<svg xmlns="http://www.w3.org/2000/svg" viewBox="0 0 166.25 232.84"><defs><style>.cls-1{fill:#fff;}.cls-2{fill:#af0f07;}.cls-3{fill:#a43e32;}</style></defs><g id="Layer_2" data-name="Layer 2"><g id="Objects"><rect class="cls-1" width="166.25" height="232.84" rx="5.94"/><path class="cls-1" d="M147.91,22.83a.56.56,0,0,1-.57.57.57.57,0,0,1-.57-.57.58.58,0,0,1,.57-.57A.57.57,0,0,1,147.91,22.83Z"/><circle class="cls-1" cx="120.23" cy="22.83" r="0.57"/><path class="cls-1" d="M95.86,22.83a.56.56,0,0,1-.57.57.57.57,0,0,1-.57-.57.58.58,0,0,1,.57-.57A.57.57,0,0,1,95.86,22.83Z"/><circle class="cls-1" cx="70.26" cy="23.01" r="0.57"/><path class="cls-1" d="M147.91,44a.57.57,0,0,1-.57.57.58.58,0,0,1-.57-.57.57.57,0,0,1,.57-.57A.56.56,0,0,1,147.91,44Z"/><path class="cls-1" d="M147.91,63.26a.56.56,0,0,1-.57.56.57.57,0,1,1,.57-.56Z"/><path class="cls-1" d="M147.91,83.47a.57.57,0,0,1-.57.57.58.58,0,0,1-.57-.57.57.57,0,0,1,.57-.57A.56.56,0,0,1,147.91,83.47Z"/><path class="cls-1" d="M147.91,96.25a.57.57,0,0,1-.57.57.58.58,0,0,1-.57-.57.57.57,0,0,1,.57-.57A.56.56,0,0,1,147.91,96.25Z"/><path class="cls-1" d="M147.91,109.07a.56.56,0,0,1-.57.57.57.57,0,0,1-.57-.57.58.58,0,0,1,.57-.57A.57.57,0,0,1,147.91,109.07Z"/><circle class="cls-1" cx="17.13" cy="23.4" r="0.57"/><circle class="cls-1" cx="44.55" cy="23.01" r="0.57"/><circle class="cls-1" cx="17.13" cy="43.52" r="0.57"/><circle class="cls-1" cx="17.13" cy="63.39" r="0.57"/><circle class="cls-1" cx="17.13" cy="83.33" r="0.57"/><circle class="cls-1" cx="17.13" cy="96.25" r="0.57"/><circle class="cls-1" cx="17.13" cy="109.64" r="0.57"/><circle class="cls-1" cx="17.13" cy="122.57" r="0.57"/><circle class="cls-1" cx="17.13" cy="135.49" r="0.57"/><circle class="cls-1" cx="17.13" cy="148.89" r="0.57"/><circle class="cls-1" cx="17.13" cy="162.31" r="0.57"/><circle class="cls-1" cx="17.13" cy="174.31" r="0.57"/><path class="cls-1" d="M17.7,187.7a.57.57,0,1,1-1.14,0,.57.57,0,0,1,1.14,0Z"/><circle class="cls-1" cx="17.13" cy="200.75" r="0.57"/><circle class="cls-1" cx="17.36" cy="219.93" r="0.57"/><circle class="cls-1" cx="37.87" cy="220.49" r="0.57"/><circle class="cls-1" cx="64.31" cy="220.49" r="0.57"/><circle class="cls-1" cx="90.7" cy="220.49" r="0.57"/><path class="cls-1" d="M117,220.49a.56.56,0,0,1-.57.57.57.57,0,1,1,0-1.13A.56.56,0,0,1,117,220.49Z"/><path class="cls-1" d="M147.91,122.25a.56.56,0,0,1-.57.57.57.57,0,0,1-.57-.57.58.58,0,0,1,.57-.57A.57.57,0,0,1,147.91,122.25Z"/><path class="cls-1" d="M147.91,134.58a.57.57,0,0,1-.57.57.57.57,0,0,1,0-1.14A.57.57,0,0,1,147.91,134.58Z"/><path class="cls-1" d="M147.91,147.87a.57.57,0,0,1-.57.57.58.58,0,0,1-.57-.57.57.57,0,0,1,.57-.57A.56.56,0,0,1,147.91,147.87Z"/><path class="cls-1" d="M147.91,161a.57.57,0,0,1-.57.57.58.58,0,0,1-.57-.57.57.57,0,0,1,.57-.57A.56.56,0,0,1,147.91,161Z"/><path class="cls-1" d="M147.91,173.72a.57.57,0,0,1-.57.57.57.57,0,0,1,0-1.14A.57.57,0,0,1,147.91,173.72Z"/><path class="cls-1" d="M147.91,186.29a.56.56,0,0,1-.57.57.57.57,0,0,1-.57-.57.58.58,0,0,1,.57-.57A.57.57,0,0,1,147.91,186.29Z"/><path class="cls-1" d="M147.91,199.13a.57.57,0,0,1-.57.57.58.58,0,0,1-.57-.57.57.57,0,0,1,.57-.57A.56.56,0,0,1,147.91,199.13Z"/><path class="cls-1" d="M147.91,218.69a.56.56,0,0,1-.57.57.57.57,0,0,1-.57-.57.58.58,0,0,1,.57-.57A.57.57,0,0,1,147.91,218.69Z"/><polygon class="cls-2" points="81.19 21.65 67.9 37.8 81.19 54.2 94.83 37.92 81.19 21.65"/><polygon class="cls-2" points="81.19 171.22 67.9 187.37 81.19 203.77 94.83 187.5 81.19 171.22"/><polygon class="cls-2" points="16.06 28.79 11.34 34 15.55 39.73 20.39 34.47 16.06 28.79"/><polygon class="cls-2" points="148.16 190.11 143.44 195.33 147.65 201.05 152.49 195.8 148.16 190.11"/><path class="cls-3" d="M12.09,23.56a6,6,0,0,1,1.83-2.25l1.86-1.59a5.53,5.53,0,0,0,1.39-1.67,4.57,4.57,0,0,0,.47-2.1,3.39,3.39,0,0,0-.74-2.33,2.66,2.66,0,0,0-2.09-.83,2.61,2.61,0,0,0-1.19.29,2.65,2.65,0,0,0-.94.77,1.59,1.59,0,0,0-.35,1,1,1,0,0,0,.21.69,1,1,0,0,0,.58.28,1.5,1.5,0,0,1,.92.42,1.07,1.07,0,0,1,.3.76.79.79,0,0,1-.26.62,1,1,0,0,1-.73.26A1.65,1.65,0,0,1,12,17.23a2.57,2.57,0,0,1-.52-1.66,3.33,3.33,0,0,1,.5-1.79,3.36,3.36,0,0,1,1.37-1.24,4.29,4.29,0,0,1,2-.45,5.17,5.17,0,0,1,2.23.47,3.63,3.63,0,0,1,1.55,1.34,3.67,3.67,0,0,1,.57,2,3.15,3.15,0,0,1-.84,2.14A12.69,12.69,0,0,1,16.67,20l-1.9,1.47a6.79,6.79,0,0,0-1.25,1.08,1.64,1.64,0,0,0-.44,1.06c0,.31.2.46.6.46h3.67a1.51,1.51,0,0,0,1.1-.33,1.94,1.94,0,0,0,.43-1l.21-1.14h.43l-.27,4H11.69A5.82,5.82,0,0,1,12.09,23.56Z"/><path class="cls-2" d="M150.47,208a6.18,6.18,0,0,1-1.82,2.26l-1.86,1.59a5.41,5.41,0,0,0-1.39,1.67,4.38,4.38,0,0,0-.48,2.09,3.4,3.4,0,0,0,.74,2.34,2.66,2.66,0,0,0,2.1.82,2.52,2.52,0,0,0,1.19-.29,2.68,2.68,0,0,0,.93-.76,1.63,1.63,0,0,0,.36-1,.94.94,0,0,0-.22-.69.91.91,0,0,0-.58-.28,1.61,1.61,0,0,1-.92-.42,1.08,1.08,0,0,1-.3-.77.85.85,0,0,1,.26-.62,1,1,0,0,1,.73-.25,1.65,1.65,0,0,1,1.32.63,2.5,2.5,0,0,1,.52,1.66,3.29,3.29,0,0,1-.49,1.78,3.41,3.41,0,0,1-1.38,1.25,4.39,4.39,0,0,1-2,.44A5.17,5.17,0,0,1,145,219a3.68,3.68,0,0,1-1.55-1.34,3.76,3.76,0,0,1-.56-2.06,3.16,3.16,0,0,1,.83-2.13,12.6,12.6,0,0,1,2.19-1.92l1.9-1.48a6.2,6.2,0,0,0,1.26-1.08,1.6,1.6,0,0,0,.43-1c0-.31-.2-.47-.6-.47h-3.67a1.44,1.44,0,0,0-1.09.34,2,2,0,0,0-.44,1l-.21,1.14H143l.27-4h7.57A5.78,5.78,0,0,1,150.47,208Z"/></g></g></svg>