<svg xmlns="http://www.w3.org/2000/svg" viewBox="0 0 166.25 232.84"><defs><style>.cls-1{fill:#fff;}.cls-2{fill:#af0f07;}.cls-3{fill:#a43e32;}</style></defs><g id="Layer_2" data-name="Layer 2"><g id="Objects"><rect class="cls-1" width="166.25" height="232.84" rx="5.94"/><polygon class="cls-2" points="19.7 26.69 14.98 31.91 19.19 37.64 24.03 32.38 19.7 26.69"/><polygon class="cls-2" points="152.07 188.02 147.35 193.24 151.56 198.96 156.4 193.71 152.07 188.02"/><path class="cls-3" d="M17.39,23.22a2.17,2.17,0,0,1-1-1.95,1.82,1.82,0,0,1,.4-1.19,1.33,1.33,0,0,1,1.07-.49,1.22,1.22,0,0,1,.88.3,1,1,0,0,1,.32.82,1.11,1.11,0,0,1-.24.71.77.77,0,0,1-.63.3c-.45,0-.68.11-.68.33,0,.81.82,1.22,2.45,1.22a2.24,2.24,0,0,0,2-1A4.16,4.16,0,0,0,22.62,20,3.44,3.44,0,0,0,22,17.65a2.22,2.22,0,0,0-2.11-.74,3.4,3.4,0,0,0-.46.13,3.14,3.14,0,0,1-1,.22,1,1,0,0,1-.51-.14.45.45,0,0,1-.22-.41.44.44,0,0,1,.21-.4,1,1,0,0,1,.52-.14,5.47,5.47,0,0,1,.92.1,7.2,7.2,0,0,0,1.06.06,1.58,1.58,0,0,0,1.43-.85,3.72,3.72,0,0,0,.49-1.93,3.53,3.53,0,0,0-.58-2.09A1.93,1.93,0,0,0,20,10.62,2.68,2.68,0,0,0,18.4,11a1.06,1.06,0,0,0-.47.83.59.59,0,0,0,.13.36.91.91,0,0,0,.37.3,1,1,0,0,1,.7.95.87.87,0,0,1-.27.67,1.06,1.06,0,0,1-.78.27,1.27,1.27,0,0,1-1-.48,1.61,1.61,0,0,1-.41-1.06,2.4,2.4,0,0,1,1-2.09A4.21,4.21,0,0,1,20.24,10a4.16,4.16,0,0,1,2.84.94,3.12,3.12,0,0,1,1.07,2.48,2.76,2.76,0,0,1-.37,1.44,3.48,3.48,0,0,1-1,1,3.34,3.34,0,0,1-1.16.53v.16a3.85,3.85,0,0,1,1.34.55,3.69,3.69,0,0,1,1.18,1.18A2.93,2.93,0,0,1,24.68,20,3.42,3.42,0,0,1,24,22.06a4.16,4.16,0,0,1-1.72,1.36,5.93,5.93,0,0,1-2.37.47A4.49,4.49,0,0,1,17.39,23.22Z"/><path class="cls-2" d="M155,204.16a2.21,2.21,0,0,1,1,2,1.84,1.84,0,0,1-.41,1.2,1.31,1.31,0,0,1-1.07.49,1.24,1.24,0,0,1-.88-.3,1.08,1.08,0,0,1-.32-.82,1.11,1.11,0,0,1,.24-.71.77.77,0,0,1,.63-.3c.45,0,.68-.11.68-.33,0-.82-.81-1.22-2.44-1.22a2.25,2.25,0,0,0-2.05,1,4.15,4.15,0,0,0-.63,2.32,3.45,3.45,0,0,0,.67,2.33,2.08,2.08,0,0,0,1.64.78,2.05,2.05,0,0,0,.47,0,2.3,2.3,0,0,0,.46-.14,3.5,3.5,0,0,1,1-.21,1,1,0,0,1,.51.14.44.44,0,0,1,.23.4.45.45,0,0,1-.22.41.94.94,0,0,1-.52.14,5.37,5.37,0,0,1-.91-.1,7.45,7.45,0,0,0-1.07-.06,1.54,1.54,0,0,0-1.42.85,3.63,3.63,0,0,0-.5,1.93,3.53,3.53,0,0,0,.58,2.09,1.93,1.93,0,0,0,1.69.84,2.76,2.76,0,0,0,1.62-.37,1.05,1.05,0,0,0,.47-.84.59.59,0,0,0-.13-.35,1,1,0,0,0-.37-.31,1,1,0,0,1-.7-1,.9.9,0,0,1,.27-.67,1.1,1.1,0,0,1,.78-.26,1.27,1.27,0,0,1,1,.48,1.55,1.55,0,0,1,.42,1.06,2.42,2.42,0,0,1-1,2.09,4.71,4.71,0,0,1-5.36-.2,3.17,3.17,0,0,1-1.07-2.48,2.67,2.67,0,0,1,.38-1.44,3.41,3.41,0,0,1,2.1-1.56v-.16a3.92,3.92,0,0,1-1.34-.55,3.8,3.8,0,0,1-1.18-1.18,3,3,0,0,1-.49-1.68,3.48,3.48,0,0,1,.64-2.07,4.16,4.16,0,0,1,1.72-1.36,5.78,5.78,0,0,1,2.38-.47A4.59,4.59,0,0,1,155,204.16Z"/><polygon class="cls-2" points="86.02 19.55 72.73 35.7 86.02 52.11 99.66 35.83 86.02 19.55"/><polygon class="cls-2" points="86.02 169.13 72.73 185.27 86.02 201.68 99.66 185.4 86.02 169.13"/><polygon class="cls-2" points="86.02 94.34 72.73 110.49 86.02 126.89 99.66 110.62 86.02 94.34"/></g></g></svg>