<svg xmlns="http://www.w3.org/2000/svg" viewBox="0 0 166.25 232.84"><defs><style>.cls-1{fill:#fff;}.cls-2{fill:#af0f07;}.cls-3{fill:#a43e32;}</style></defs><g id="Layer_2" data-name="Layer 2"><g id="Objects"><rect class="cls-1" width="166.25" height="232.84" rx="5.94"/><path class="cls-1" d="M149,18.14a.58.58,0,0,1-.57.57.57.57,0,0,1-.57-.57.56.56,0,0,1,.57-.57A.57.57,0,0,1,149,18.14Z"/><circle class="cls-1" cx="121.31" cy="18.14" r="0.57"/><path class="cls-1" d="M96.94,18.14a.58.58,0,0,1-.57.57.57.57,0,0,1-.57-.57.56.56,0,0,1,.57-.57A.57.57,0,0,1,96.94,18.14Z"/><circle class="cls-1" cx="71.33" cy="18.32" r="0.57"/><path class="cls-1" d="M149,39.27a.57.57,0,0,1-.57.57.57.57,0,1,1,.57-.57Z"/><path class="cls-1" d="M149,58.56a.57.57,0,0,1-.57.57.56.56,0,0,1-.57-.57.57.57,0,0,1,.57-.57A.58.58,0,0,1,149,58.56Z"/><path class="cls-1" d="M149,78.77a.57.57,0,0,1-.57.57.57.57,0,1,1,.57-.57Z"/><path class="cls-1" d="M149,91.55a.57.57,0,0,1-.57.57.56.56,0,0,1-.57-.57.57.57,0,0,1,.57-.57A.58.58,0,0,1,149,91.55Z"/><path class="cls-1" d="M149,104.38a.58.58,0,0,1-.57.57.57.57,0,0,1,0-1.14A.58.58,0,0,1,149,104.38Z"/><circle class="cls-1" cx="18.21" cy="18.71" r="0.57"/><circle class="cls-1" cx="45.63" cy="18.32" r="0.57"/><circle class="cls-1" cx="18.21" cy="38.83" r="0.57"/><circle class="cls-1" cx="18.21" cy="58.69" r="0.57"/><circle class="cls-1" cx="18.21" cy="78.63" r="0.57"/><circle class="cls-1" cx="18.21" cy="91.55" r="0.57"/><circle class="cls-1" cx="18.21" cy="104.95" r="0.57"/><circle class="cls-1" cx="18.21" cy="117.88" r="0.57"/><circle class="cls-1" cx="18.21" cy="130.8" r="0.57"/><circle class="cls-1" cx="18.21" cy="144.19" r="0.57"/><circle class="cls-1" cx="18.21" cy="157.62" r="0.57"/><circle class="cls-1" cx="18.21" cy="169.61" r="0.57"/><path class="cls-1" d="M18.77,183a.57.57,0,1,1-.56-.57A.56.56,0,0,1,18.77,183Z"/><circle class="cls-1" cx="18.21" cy="196.05" r="0.57"/><circle class="cls-1" cx="18.44" cy="215.23" r="0.57"/><circle class="cls-1" cx="38.95" cy="215.8" r="0.57"/><circle class="cls-1" cx="65.38" cy="215.8" r="0.57"/><circle class="cls-1" cx="91.77" cy="215.8" r="0.57"/><circle class="cls-1" cx="117.48" cy="215.8" r="0.57"/><path class="cls-1" d="M149,117.56a.58.58,0,0,1-.57.57.57.57,0,0,1,0-1.14A.58.58,0,0,1,149,117.56Z"/><path class="cls-1" d="M149,129.89a.58.58,0,0,1-.57.57.57.57,0,0,1-.57-.57.56.56,0,0,1,.57-.57A.57.57,0,0,1,149,129.89Z"/><path class="cls-1" d="M149,143.18a.57.57,0,0,1-.57.56.57.57,0,1,1,0-1.13A.57.57,0,0,1,149,143.18Z"/><path class="cls-1" d="M149,156.27a.57.57,0,0,1-.57.57.57.57,0,1,1,.57-.57Z"/><path class="cls-1" d="M149,169a.58.58,0,0,1-.57.57.57.57,0,0,1-.57-.57.56.56,0,0,1,.57-.57A.57.57,0,0,1,149,169Z"/><path class="cls-1" d="M149,181.6a.58.58,0,0,1-.57.57.57.57,0,0,1-.57-.57.56.56,0,0,1,.57-.57A.57.57,0,0,1,149,181.6Z"/><path class="cls-1" d="M149,194.43a.57.57,0,0,1-.57.57.57.57,0,1,1,.57-.57Z"/><path class="cls-1" d="M149,214a.58.58,0,0,1-.57.57.57.57,0,1,1,0-1.14A.58.58,0,0,1,149,214Z"/><polygon class="cls-2" points="16.68 28.03 11.95 33.25 16.16 38.97 21 33.72 16.68 28.03"/><polygon class="cls-2" points="149.37 192.8 144.65 198.02 148.85 203.75 153.7 198.49 149.37 192.8"/><path class="cls-3" d="M14.43,24.85a3.74,3.74,0,0,1-1.57-1.28,3.28,3.28,0,0,1-.6-2,3,3,0,0,1,.8-2.21,3.91,3.91,0,0,1,1.69-1v-.08l-.22-.09A3.31,3.31,0,0,1,12.42,15,3,3,0,0,1,13,13.14a4.08,4.08,0,0,1,1.61-1.28,4.91,4.91,0,0,1,2.06-.46,4.81,4.81,0,0,1,2.24.48,3.42,3.42,0,0,1,1.38,1.24,3.07,3.07,0,0,1,.47,1.62,2.66,2.66,0,0,1-.67,1.82,4.64,4.64,0,0,1-1.56,1.17v.08L19,18a3.1,3.1,0,0,1,2.29,2.93,4.44,4.44,0,0,1-.55,2.2,4.05,4.05,0,0,1-1.63,1.6,5.3,5.3,0,0,1-2.57.59A5,5,0,0,1,14.43,24.85Zm4.08-.62a2.71,2.71,0,0,0,1-1.08,2.75,2.75,0,0,0,.3-1.19,2.38,2.38,0,0,0-.47-1.61,3.67,3.67,0,0,0-1.39-.89l-2.62-.95a2.64,2.64,0,0,0-1.24,1,4,4,0,0,0-.45,2.1,2.75,2.75,0,0,0,.94,2.29,3.48,3.48,0,0,0,2.2.74A3.09,3.09,0,0,0,18.51,24.23Zm.7-7.78a3.45,3.45,0,0,0,.35-1.59,2.79,2.79,0,0,0-.39-1.45,2.83,2.83,0,0,0-1-1A2.88,2.88,0,0,0,16.71,12a3.09,3.09,0,0,0-2,.67,2.24,2.24,0,0,0-.82,1.81,2,2,0,0,0,.39,1.3,3.2,3.2,0,0,0,1.25.83l2.51.95A2.77,2.77,0,0,0,19.21,16.45Z"/><path class="cls-3" d="M151.18,207.31a3.82,3.82,0,0,1,1.57,1.28,3.28,3.28,0,0,1,.6,2,3,3,0,0,1-.8,2.21,3.91,3.91,0,0,1-1.69,1.05v.08l.22.1a3.3,3.3,0,0,1,1.57,1.26,3.47,3.47,0,0,1,.54,1.94,3,3,0,0,1-.62,1.83A4.08,4.08,0,0,1,151,220.3a4.76,4.76,0,0,1-2.06.46,4.81,4.81,0,0,1-2.24-.48,3.35,3.35,0,0,1-1.38-1.24,3.07,3.07,0,0,1-.47-1.62,2.64,2.64,0,0,1,.67-1.81,4.81,4.81,0,0,1,1.56-1.18v-.07l-.44-.18a3.1,3.1,0,0,1-2.29-2.93,4.44,4.44,0,0,1,.55-2.2,4,4,0,0,1,1.63-1.59,5.19,5.19,0,0,1,2.57-.59A5,5,0,0,1,151.18,207.31Zm-4.08.62a2.71,2.71,0,0,0-1,1.08,2.79,2.79,0,0,0-.3,1.19,2.31,2.31,0,0,0,.48,1.61,3.67,3.67,0,0,0,1.38.9l2.62.95a2.6,2.6,0,0,0,1.24-1,4,4,0,0,0,.45-2.1,2.74,2.74,0,0,0-.94-2.29,3.47,3.47,0,0,0-2.2-.73A3.2,3.2,0,0,0,147.1,207.93Zm-.7,7.78a3.52,3.52,0,0,0-.35,1.6,2.75,2.75,0,0,0,.39,1.44,2.84,2.84,0,0,0,2.46,1.39,3.09,3.09,0,0,0,2-.68,2.22,2.22,0,0,0,.82-1.81,2,2,0,0,0-.39-1.3,3.13,3.13,0,0,0-1.25-.83l-2.51-1A2.83,2.83,0,0,0,146.4,215.71Z"/><polygon class="cls-2" points="50.6 23.22 37.31 39.36 50.6 55.77 64.24 39.49 50.6 23.22"/><polygon class="cls-2" points="82.93 55.66 69.63 71.81 82.93 88.21 96.56 71.94 82.93 55.66"/><polygon class="cls-2" points="82.93 140.12 69.63 156.27 82.93 172.68 96.56 156.4 82.93 140.12"/><polygon class="cls-2" points="50.6 172.79 37.31 188.94 50.6 205.34 64.24 189.06 50.6 172.79"/><polygon class="cls-2" points="50.6 98 37.31 114.15 50.6 130.56 64.24 114.28 50.6 98"/><polygon class="cls-2" points="115.25 23.22 101.96 39.36 115.25 55.77 128.89 39.49 115.25 23.22"/><polygon class="cls-2" points="115.25 172.79 101.96 188.94 115.25 205.34 128.89 189.06 115.25 172.79"/><polygon class="cls-2" points="115.25 98 101.96 114.15 115.25 130.56 128.89 114.28 115.25 98"/></g></g></svg>