<svg xmlns="http://www.w3.org/2000/svg" viewBox="0 0 166.25 232.84"><defs><style>.cls-1{fill:#fff;}.cls-2{fill:#af0f07;}.cls-3{fill:#a43e32;}</style></defs><g id="Layer_2" data-name="Layer 2"><g id="Objects"><rect class="cls-1" width="166.25" height="232.84" rx="5.94"/><circle class="cls-1" cx="148.42" cy="18.36" r="0.57"/><circle class="cls-1" cx="121.31" cy="18.36" r="0.57"/><circle class="cls-1" cx="71.33" cy="18.54" r="0.57"/><circle class="cls-1" cx="148.42" cy="39.5" r="0.57"/><circle class="cls-1" cx="148.42" cy="58.78" r="0.57"/><circle class="cls-1" cx="18.21" cy="18.93" r="0.57"/><path class="cls-1" d="M46.2,18.54a.57.57,0,0,1-.57.57.57.57,0,1,1,.57-.57Z"/><circle class="cls-1" cx="18.21" cy="39.05" r="0.57"/><circle class="cls-1" cx="18.21" cy="58.91" r="0.57"/><circle class="cls-1" cx="18.21" cy="78.85" r="0.57"/><circle class="cls-1" cx="18.21" cy="91.78" r="0.57"/><circle class="cls-1" cx="18.21" cy="105.17" r="0.57"/><circle class="cls-1" cx="18.21" cy="118.1" r="0.57"/><circle class="cls-1" cx="18.21" cy="169.84" r="0.57"/><path class="cls-1" d="M18.77,183.23a.57.57,0,1,1-.56-.57A.57.57,0,0,1,18.77,183.23Z"/><circle class="cls-1" cx="18.21" cy="196.27" r="0.57"/><path class="cls-1" d="M19,215.45a.57.57,0,0,1-.57.57.57.57,0,1,1,.57-.57Z"/><path class="cls-1" d="M66,216a.56.56,0,0,1-.57.57.57.57,0,0,1-.57-.57.58.58,0,0,1,.57-.57A.57.57,0,0,1,66,216Z"/><circle class="cls-1" cx="91.77" cy="216.02" r="0.57"/><circle class="cls-1" cx="117.48" cy="216.02" r="0.57"/><circle class="cls-1" cx="148.42" cy="156.5" r="0.57"/><circle class="cls-1" cx="148.42" cy="169.25" r="0.57"/><circle class="cls-1" cx="148.42" cy="181.82" r="0.57"/><circle class="cls-1" cx="148.42" cy="194.66" r="0.57"/><circle class="cls-1" cx="148.42" cy="214.22" r="0.57"/><polygon class="cls-2" points="19.07 24.32 14.35 29.53 18.55 35.26 23.39 30 19.07 24.32"/><polygon class="cls-2" points="146.82 188.36 142.09 193.58 146.3 199.3 151.15 194.05 146.82 188.36"/><path class="cls-3" d="M15.56,20.58h1.88a.64.64,0,0,0,.4-.11.54.54,0,0,0,.12-.39v-2.6H13v-.7l6-8.87h.7v8.87H22.1v.7H19.75v2.6a.54.54,0,0,0,.12.39.64.64,0,0,0,.4.11h1.88v.62H15.56Zm-1.63-3.8h4V10.84Z"/><path class="cls-2" d="M150.76,202.05h-1.89a.54.54,0,0,0-.39.12.46.46,0,0,0-.13.38v2.6h4.93v.7l-6,8.87h-.69v-8.87h-2.35v-.7h2.35v-2.6a.49.49,0,0,0-.13-.38.56.56,0,0,0-.4-.12h-1.88v-.62h6.6Zm1.62,3.8h-4v5.94Z"/><polygon class="cls-2" points="55.22 17.18 41.92 33.32 55.22 49.73 68.86 33.45 55.22 17.18"/><polygon class="cls-2" points="55.22 166.75 41.92 182.9 55.22 199.3 68.86 183.02 55.22 166.75"/><polygon class="cls-2" points="111.56 17.18 98.27 33.32 111.56 49.73 125.2 33.45 111.56 17.18"/><polygon class="cls-2" points="111.56 166.75 98.27 182.9 111.56 199.3 125.2 183.02 111.56 166.75"/></g></g></svg>