<svg xmlns="http://www.w3.org/2000/svg" viewBox="0 0 166.25 232.84"><defs><style>.cls-1{fill:#fff;}.cls-2{fill:#af0f07;}.cls-3{fill:#a43e32;}</style></defs><g id="Layer_2" data-name="Layer 2"><g id="Objects"><rect class="cls-1" width="166.25" height="232.84" rx="5.94"/><circle class="cls-1" cx="154" cy="21.86" r="0.57"/><path class="cls-1" d="M127.46,21.86a.57.57,0,1,1-.57-.57A.57.57,0,0,1,127.46,21.86Z"/><circle class="cls-1" cx="101.96" cy="21.86" r="0.57"/><path class="cls-1" d="M77.49,22a.57.57,0,0,1-1.14,0,.57.57,0,0,1,1.14,0Z"/><circle class="cls-1" cx="154" cy="43" r="0.57"/><circle class="cls-1" cx="154" cy="62.28" r="0.57"/><circle class="cls-1" cx="154" cy="82.5" r="0.57"/><circle class="cls-1" cx="154" cy="95.27" r="0.57"/><circle class="cls-1" cx="154" cy="108.1" r="0.57"/><path class="cls-1" d="M24.36,22.43a.57.57,0,0,1-.57.57.58.58,0,0,1-.57-.57.57.57,0,0,1,.57-.57A.56.56,0,0,1,24.36,22.43Z"/><circle class="cls-1" cx="51.21" cy="22.04" r="0.57"/><path class="cls-1" d="M24.36,42.55a.57.57,0,0,1-.57.57.58.58,0,0,1-.57-.57.57.57,0,0,1,.57-.57A.56.56,0,0,1,24.36,42.55Z"/><path class="cls-1" d="M24.36,62.41a.56.56,0,0,1-.57.57.57.57,0,1,1,0-1.13A.56.56,0,0,1,24.36,62.41Z"/><path class="cls-1" d="M24.36,82.35a.56.56,0,0,1-.57.57.57.57,0,0,1-.57-.57.58.58,0,0,1,.57-.57A.57.57,0,0,1,24.36,82.35Z"/><path class="cls-1" d="M24.36,95.27a.56.56,0,0,1-.57.57.57.57,0,1,1,0-1.13A.56.56,0,0,1,24.36,95.27Z"/><path class="cls-1" d="M24.36,108.67a.57.57,0,0,1-.57.57.57.57,0,0,1,0-1.14A.57.57,0,0,1,24.36,108.67Z"/><path class="cls-1" d="M24.36,121.6a.57.57,0,0,1-.57.57.58.58,0,0,1-.57-.57.57.57,0,0,1,.57-.57A.56.56,0,0,1,24.36,121.6Z"/><path class="cls-1" d="M24.36,134.52a.57.57,0,0,1-.57.57.58.58,0,0,1-.57-.57.57.57,0,0,1,.57-.57A.56.56,0,0,1,24.36,134.52Z"/><path class="cls-1" d="M24.36,147.91a.56.56,0,0,1-.57.57.57.57,0,0,1-.57-.57.58.58,0,0,1,.57-.57A.57.57,0,0,1,24.36,147.91Z"/><path class="cls-1" d="M24.36,161.34a.57.57,0,0,1-.57.57.58.58,0,0,1-.57-.57.57.57,0,0,1,.57-.57A.56.56,0,0,1,24.36,161.34Z"/><path class="cls-1" d="M24.36,173.34a.56.56,0,0,1-.57.56.57.57,0,1,1,.57-.56Z"/><path class="cls-1" d="M24.36,186.73a.57.57,0,0,1-.57.57.57.57,0,0,1,0-1.14A.57.57,0,0,1,24.36,186.73Z"/><path class="cls-1" d="M24.36,199.77a.56.56,0,0,1-.57.57.57.57,0,1,1,0-1.13A.56.56,0,0,1,24.36,199.77Z"/><path class="cls-1" d="M24.59,219a.56.56,0,0,1-.57.57.57.57,0,1,1,0-1.13A.56.56,0,0,1,24.59,219Z"/><path class="cls-1" d="M45.11,219.52a.57.57,0,0,1-.57.57.56.56,0,0,1-.57-.57.57.57,0,0,1,.57-.57A.58.58,0,0,1,45.11,219.52Z"/><circle class="cls-1" cx="70.97" cy="219.52" r="0.57"/><path class="cls-1" d="M97.93,219.52a.57.57,0,0,1-.57.57.56.56,0,0,1-.57-.57.57.57,0,0,1,.57-.57A.58.58,0,0,1,97.93,219.52Z"/><path class="cls-1" d="M123.63,219.52a.57.57,0,1,1-.57-.57A.57.57,0,0,1,123.63,219.52Z"/><circle class="cls-1" cx="154" cy="121.28" r="0.57"/><circle class="cls-1" cx="154" cy="133.61" r="0.57"/><circle class="cls-1" cx="154" cy="146.9" r="0.57"/><circle class="cls-1" cx="154" cy="160" r="0.57"/><circle class="cls-1" cx="154" cy="172.75" r="0.57"/><circle class="cls-1" cx="154" cy="185.32" r="0.57"/><circle class="cls-1" cx="154" cy="198.16" r="0.57"/><circle class="cls-1" cx="154" cy="217.72" r="0.57"/><polygon class="cls-2" points="16.2 28.75 11.47 33.97 15.68 39.69 20.52 34.44 16.2 28.75"/><polygon class="cls-2" points="148.63 193.53 143.91 198.74 148.12 204.47 152.96 199.21 148.63 193.53"/><path class="cls-3" d="M14.18,25.24A4.91,4.91,0,0,1,12.7,23a10,10,0,0,1-.53-3.4,12.16,12.16,0,0,1,.41-3.13A7,7,0,0,1,13.77,14a4.09,4.09,0,0,1,3.31-1.82,2.88,2.88,0,0,1,2.23.93,2,2,0,0,1,.42.77,3,3,0,0,1,.13.76,1.44,1.44,0,0,1-.49,1.11,1.17,1.17,0,0,1-.79.29.82.82,0,0,1-.7-.35.75.75,0,0,1-.13-.25,1.39,1.39,0,0,1,0-.32,1,1,0,0,1,.25-.58,2.25,2.25,0,0,1,.37-.33.72.72,0,0,0,.25-.24.67.67,0,0,0,.06-.3.74.74,0,0,0-.39-.61A2.21,2.21,0,0,0,17,12.75a2.43,2.43,0,0,0-1.33.4,3.07,3.07,0,0,0-1.05,1.36,7.16,7.16,0,0,0-.51,1.81A12.53,12.53,0,0,0,14,18.14V19l.13.06a3.05,3.05,0,0,1,1.08-1.21,2.57,2.57,0,0,1,1.41-.48,3.73,3.73,0,0,1,2.19.64A3.55,3.55,0,0,1,20,19.49a4.83,4.83,0,0,1,.41,2,5,5,0,0,1-.47,2.1,4.45,4.45,0,0,1-1.36,1.76,3.35,3.35,0,0,1-2.13.7A3.42,3.42,0,0,1,14.18,25.24Zm3.94-1a5.83,5.83,0,0,0,.53-2.56,6.3,6.3,0,0,0-.46-2.58,1.59,1.59,0,0,0-1.55-1,1.89,1.89,0,0,0-1.23.45,3,3,0,0,0-.86,1.27,5.27,5.27,0,0,0-.32,1.89,6,6,0,0,0,.51,2.65,1.72,1.72,0,0,0,1.66,1A1.8,1.8,0,0,0,18.12,24.27Z"/><path class="cls-3" d="M150.47,208.36a5,5,0,0,1,1.49,2.22,10,10,0,0,1,.52,3.41,12.15,12.15,0,0,1-.41,3.12,7.09,7.09,0,0,1-1.18,2.55,4.13,4.13,0,0,1-3.32,1.82,2.9,2.9,0,0,1-2.23-.93,2.09,2.09,0,0,1-.41-.78,2.46,2.46,0,0,1-.13-.75,1.4,1.4,0,0,1,.48-1.11,1.19,1.19,0,0,1,.8-.29.8.8,0,0,1,.7.35.81.81,0,0,1,.12.25,1.3,1.3,0,0,1,0,.31.88.88,0,0,1-.25.58,2.25,2.25,0,0,1-.37.33.91.91,0,0,0-.24.24.74.74,0,0,0-.07.31.76.76,0,0,0,.4.61,2.29,2.29,0,0,0,1.21.26,2.42,2.42,0,0,0,1.33-.41,3,3,0,0,0,1.06-1.36,6.82,6.82,0,0,0,.5-1.8,11.54,11.54,0,0,0,.18-1.83v-.87l-.14-.06a2.94,2.94,0,0,1-1.08,1.22,2.6,2.6,0,0,1-1.4.47,3.62,3.62,0,0,1-2.19-.64,3.46,3.46,0,0,1-1.17-1.46,4.85,4.85,0,0,1-.4-2,5.22,5.22,0,0,1,.46-2.11,4.45,4.45,0,0,1,1.37-1.75,3.34,3.34,0,0,1,2.12-.7A3.46,3.46,0,0,1,150.47,208.36Zm-3.93,1a5.87,5.87,0,0,0-.54,2.56,6.23,6.23,0,0,0,.47,2.58,1.59,1.59,0,0,0,1.55,1,1.91,1.91,0,0,0,1.22-.44,3,3,0,0,0,.86-1.27,5.08,5.08,0,0,0,.32-1.9,6,6,0,0,0-.5-2.64,1.72,1.72,0,0,0-1.67-1A1.77,1.77,0,0,0,146.54,209.33Z"/><polygon class="cls-2" points="50.26 23.94 36.97 40.09 50.26 56.49 63.9 40.22 50.26 23.94"/><polygon class="cls-2" points="50.26 173.51 36.97 189.66 50.26 206.06 63.9 189.78 50.26 173.51"/><polygon class="cls-2" points="50.26 98.72 36.97 114.87 50.26 131.28 63.9 115 50.26 98.72"/><polygon class="cls-2" points="114.91 23.94 101.62 40.09 114.91 56.49 128.55 40.22 114.91 23.94"/><polygon class="cls-2" points="114.91 173.51 101.62 189.66 114.91 206.06 128.55 189.78 114.91 173.51"/><polygon class="cls-2" points="114.91 98.72 101.62 114.87 114.91 131.28 128.55 115 114.91 98.72"/></g></g></svg>