<svg xmlns="http://www.w3.org/2000/svg" viewBox="0 0 166.25 232.84"><defs><style>.cls-1{fill:#fff;}.cls-2{fill:#af0f07;}.cls-3{fill:#a43e32;}</style></defs><g id="Layer_2" data-name="Layer 2"><g id="Objects"><rect class="cls-1" width="166.25" height="232.84" rx="5.94"/><circle class="cls-1" cx="159.64" cy="28.36" r="0.57"/><circle class="cls-1" cx="132.53" cy="28.36" r="0.57"/><circle class="cls-1" cx="107.59" cy="28.36" r="0.57"/><circle class="cls-1" cx="82.56" cy="28.54" r="0.57"/><circle class="cls-1" cx="159.64" cy="49.49" r="0.57"/><circle class="cls-1" cx="159.64" cy="68.78" r="0.57"/><circle class="cls-1" cx="159.64" cy="88.99" r="0.57"/><circle class="cls-1" cx="159.64" cy="101.77" r="0.57"/><circle class="cls-1" cx="159.64" cy="114.6" r="0.57"/><circle class="cls-1" cx="29.43" cy="28.93" r="0.57"/><path class="cls-1" d="M57.42,28.54a.56.56,0,0,1-.57.57.57.57,0,0,1-.57-.57.58.58,0,0,1,.57-.57A.57.57,0,0,1,57.42,28.54Z"/><circle class="cls-1" cx="29.43" cy="49.05" r="0.57"/><circle class="cls-1" cx="29.43" cy="68.91" r="0.57"/><circle class="cls-1" cx="29.43" cy="88.85" r="0.57"/><circle class="cls-1" cx="29.43" cy="101.77" r="0.57"/><circle class="cls-1" cx="29.43" cy="115.17" r="0.57"/><circle class="cls-1" cx="29.43" cy="128.1" r="0.57"/><circle class="cls-1" cx="29.43" cy="141.02" r="0.57"/><circle class="cls-1" cx="29.43" cy="154.41" r="0.57"/><circle class="cls-1" cx="29.43" cy="167.84" r="0.57"/><circle class="cls-1" cx="29.43" cy="179.83" r="0.57"/><path class="cls-1" d="M30,193.23a.57.57,0,0,1-1.14,0,.57.57,0,0,1,1.14,0Z"/><circle class="cls-1" cx="29.43" cy="206.27" r="0.57"/><circle class="cls-1" cx="29.66" cy="225.45" r="0.57"/><circle class="cls-1" cx="50.18" cy="226.02" r="0.57"/><path class="cls-1" d="M77.18,226a.57.57,0,0,1-.57.57A.56.56,0,0,1,76,226a.57.57,0,0,1,.57-.57A.58.58,0,0,1,77.18,226Z"/><circle class="cls-1" cx="103" cy="226.02" r="0.57"/><circle class="cls-1" cx="128.7" cy="226.02" r="0.57"/><circle class="cls-1" cx="159.64" cy="127.78" r="0.57"/><circle class="cls-1" cx="159.64" cy="140.11" r="0.57"/><circle class="cls-1" cx="159.64" cy="153.39" r="0.57"/><circle class="cls-1" cx="159.64" cy="166.49" r="0.57"/><circle class="cls-1" cx="159.64" cy="179.25" r="0.57"/><circle class="cls-1" cx="159.64" cy="191.82" r="0.57"/><circle class="cls-1" cx="159.64" cy="204.65" r="0.57"/><circle class="cls-1" cx="159.64" cy="224.22" r="0.57"/><polygon class="cls-2" points="82.44 92.12 57.71 122.17 82.44 152.69 107.82 122.41 82.44 92.12"/><polygon class="cls-2" points="20.17 31.85 15.45 37.07 19.66 42.8 24.5 37.54 20.17 31.85"/><polygon class="cls-2" points="149.69 191.64 144.96 196.86 149.17 202.58 154.01 197.33 149.69 191.64"/><path class="cls-3" d="M13.47,26.58h.72c.76,0,1.32-.47,1.67-1.41L20,13.39h.48l4.21,12.34a1.44,1.44,0,0,0,.47.67,1.23,1.23,0,0,0,.7.18H27v.62H21v-.62h1.28a.86.86,0,0,0,.49-.14.44.44,0,0,0,.19-.34,1.1,1.1,0,0,0-.08-.43l-.91-2.58H17.39l-.46,1.3a3.74,3.74,0,0,0-.28,1.12,1.33,1.33,0,0,0,.22.75.8.8,0,0,0,.73.32h1.19v.62H13.47Zm4.13-4.11h4.12l-2-5.92Z"/><path class="cls-2" d="M141.86,207.43h5.31v.62H146a.81.81,0,0,0-.74.32,1.31,1.31,0,0,0-.21.74,3.94,3.94,0,0,0,.27,1.13l.47,1.3h4.53l.92-2.58a1.11,1.11,0,0,0,.07-.43.42.42,0,0,0-.19-.34.84.84,0,0,0-.49-.14h-1.28v-.62h6v.62h-1.09a1.25,1.25,0,0,0-.7.18,1.43,1.43,0,0,0-.46.67l-4.21,12.34h-.49l-4.17-11.78c-.35-.94-.9-1.41-1.66-1.41h-.72Zm6.22,10.65,2-5.92H146Z"/></g></g></svg>