<svg xmlns="http://www.w3.org/2000/svg" viewBox="0 0 166.25 232.84"><defs><style>.cls-1{fill:#fff;}.cls-2{fill:#af0f07;}.cls-3{fill:#a43e32;}</style></defs><g id="Layer_2" data-name="Layer 2"><g id="Objects"><rect class="cls-1" width="166.25" height="232.84" rx="5.94"/><circle class="cls-1" cx="148.42" cy="20.24" r="0.57"/><circle class="cls-1" cx="121.31" cy="20.24" r="0.57"/><circle class="cls-1" cx="96.37" cy="20.24" r="0.57"/><path class="cls-1" d="M71.9,20.42a.56.56,0,0,1-.57.57.57.57,0,1,1,0-1.13A.56.56,0,0,1,71.9,20.42Z"/><circle class="cls-1" cx="148.42" cy="41.38" r="0.57"/><circle class="cls-1" cx="148.42" cy="60.66" r="0.57"/><circle class="cls-1" cx="148.42" cy="80.88" r="0.57"/><circle class="cls-1" cx="148.42" cy="93.66" r="0.57"/><circle class="cls-1" cx="148.42" cy="106.48" r="0.57"/><circle class="cls-1" cx="18.21" cy="20.81" r="0.57"/><circle class="cls-1" cx="45.63" cy="20.42" r="0.57"/><circle class="cls-1" cx="18.21" cy="40.93" r="0.57"/><circle class="cls-1" cx="18.21" cy="60.8" r="0.57"/><circle class="cls-1" cx="18.21" cy="80.73" r="0.57"/><circle class="cls-1" cx="18.21" cy="93.66" r="0.57"/><circle class="cls-1" cx="18.21" cy="107.05" r="0.57"/><circle class="cls-1" cx="18.21" cy="119.98" r="0.57"/><circle class="cls-1" cx="18.21" cy="132.9" r="0.57"/><circle class="cls-1" cx="18.21" cy="146.29" r="0.57"/><circle class="cls-1" cx="18.21" cy="159.72" r="0.57"/><circle class="cls-1" cx="18.21" cy="171.72" r="0.57"/><circle class="cls-1" cx="18.21" cy="185.11" r="0.57"/><circle class="cls-1" cx="18.21" cy="198.16" r="0.57"/><circle class="cls-1" cx="18.44" cy="217.34" r="0.57"/><path class="cls-1" d="M39.52,217.9a.57.57,0,1,1-.57-.56A.57.57,0,0,1,39.52,217.9Z"/><circle class="cls-1" cx="65.38" cy="217.9" r="0.57"/><circle class="cls-1" cx="91.77" cy="217.9" r="0.57"/><path class="cls-1" d="M118.05,217.9a.57.57,0,0,1-.57.57.57.57,0,1,1,.57-.57Z"/><circle class="cls-1" cx="148.42" cy="119.66" r="0.57"/><circle class="cls-1" cx="148.42" cy="131.99" r="0.57"/><circle class="cls-1" cx="148.42" cy="145.28" r="0.57"/><circle class="cls-1" cx="148.42" cy="158.38" r="0.57"/><circle class="cls-1" cx="148.42" cy="171.13" r="0.57"/><circle class="cls-1" cx="148.42" cy="183.7" r="0.57"/><circle class="cls-1" cx="148.42" cy="196.54" r="0.57"/><path class="cls-1" d="M149,216.1a.57.57,0,0,1-.57.57.56.56,0,0,1-.57-.57.57.57,0,0,1,.57-.57A.58.58,0,0,1,149,216.1Z"/><polygon class="cls-2" points="148.17 194.77 143.45 199.99 147.66 205.72 152.5 200.46 148.17 194.77"/><polygon class="cls-2" points="15.27 31.83 10.55 37.05 14.76 42.77 19.6 37.52 15.27 31.83"/><path class="cls-3" d="M12.58,26.7a2.12,2.12,0,0,1-.42-.78,2.88,2.88,0,0,1-.13-.76,1.4,1.4,0,0,1,.49-1.1,1.18,1.18,0,0,1,.8-.29.79.79,0,0,1,.69.35.67.67,0,0,1,.13.25,1.3,1.3,0,0,1,0,.31.93.93,0,0,1-.25.58,2.25,2.25,0,0,1-.37.33.68.68,0,0,0-.24.24.6.6,0,0,0-.07.3.72.72,0,0,0,.39.61,2.21,2.21,0,0,0,1.22.27,2.44,2.44,0,0,0,1.33-.41,3,3,0,0,0,1.05-1.36,7.16,7.16,0,0,0,.51-1.81,12.78,12.78,0,0,0,.17-1.82v-.87l-.13-.06a3,3,0,0,1-1.08,1.21,2.54,2.54,0,0,1-1.41.48,3.66,3.66,0,0,1-2.19-.64,3.48,3.48,0,0,1-1.16-1.47,4.83,4.83,0,0,1-.41-2,5.19,5.19,0,0,1,.47-2.1,4.45,4.45,0,0,1,1.36-1.76,3.57,3.57,0,0,1,4.35.08,5,5,0,0,1,1.48,2.22,10,10,0,0,1,.53,3.41,12.15,12.15,0,0,1-.41,3.12,7.21,7.21,0,0,1-1.18,2.54,4.13,4.13,0,0,1-3.32,1.83A2.88,2.88,0,0,1,12.58,26.7Zm3.9-5.5a2.94,2.94,0,0,0,.86-1.27A5.27,5.27,0,0,0,17.66,18a6,6,0,0,0-.51-2.65,1.71,1.71,0,0,0-1.66-1,1.79,1.79,0,0,0-1.72,1.12A6,6,0,0,0,13.24,18a6.24,6.24,0,0,0,.46,2.58,1.59,1.59,0,0,0,1.55,1A1.89,1.89,0,0,0,16.48,21.2Z"/><path class="cls-2" d="M150.86,210.15a2,2,0,0,1,.42.77,3,3,0,0,1,.13.76,1.4,1.4,0,0,1-.49,1.1,1.19,1.19,0,0,1-.8.3.82.82,0,0,1-.69-.35.7.7,0,0,1-.13-.26,1.24,1.24,0,0,1,0-.31,1,1,0,0,1,.25-.58,2.25,2.25,0,0,1,.37-.33.61.61,0,0,0,.24-.24.58.58,0,0,0,.07-.3.74.74,0,0,0-.39-.61,2.21,2.21,0,0,0-1.22-.26,2.43,2.43,0,0,0-1.33.4,3,3,0,0,0-1,1.36,7.13,7.13,0,0,0-.51,1.82,12.66,12.66,0,0,0-.17,1.81v.87l.13.06a3.05,3.05,0,0,1,1.08-1.21,2.54,2.54,0,0,1,1.41-.48,3.73,3.73,0,0,1,2.19.64,3.55,3.55,0,0,1,1.16,1.47,4.83,4.83,0,0,1,.41,2,5.16,5.16,0,0,1-.47,2.1,4.45,4.45,0,0,1-1.36,1.76,3.57,3.57,0,0,1-4.35-.08,5,5,0,0,1-1.48-2.22,10,10,0,0,1-.53-3.41,12.15,12.15,0,0,1,.41-3.12,7.21,7.21,0,0,1,1.18-2.54,4.12,4.12,0,0,1,3.32-1.82A2.88,2.88,0,0,1,150.86,210.15Zm-3.9,5.49a2.94,2.94,0,0,0-.86,1.27,5.27,5.27,0,0,0-.32,1.89,6.17,6.17,0,0,0,.5,2.65,1.74,1.74,0,0,0,1.67,1,1.8,1.8,0,0,0,1.72-1.13,6,6,0,0,0,.53-2.56,6.27,6.27,0,0,0-.46-2.58,1.59,1.59,0,0,0-1.55-1A1.89,1.89,0,0,0,147,215.64Z"/><polygon class="cls-2" points="48.52 26.68 35.23 42.83 48.52 59.23 62.16 42.95 48.52 26.68"/><polygon class="cls-2" points="83.28 103.61 69.98 119.76 83.28 136.16 96.91 119.89 83.28 103.61"/><polygon class="cls-2" points="48.52 76.53 35.23 92.68 48.52 109.09 62.16 92.81 48.52 76.53"/><polygon class="cls-2" points="48.52 126.39 35.23 142.54 48.52 158.94 62.16 142.67 48.52 126.39"/><polygon class="cls-2" points="48.52 176.25 35.23 192.4 48.52 208.8 62.16 192.53 48.52 176.25"/><polygon class="cls-2" points="117.79 26.68 104.5 42.83 117.79 59.23 131.43 42.95 117.79 26.68"/><polygon class="cls-2" points="117.79 76.53 104.5 92.68 117.79 109.09 131.43 92.81 117.79 76.53"/><polygon class="cls-2" points="117.79 126.39 104.5 142.54 117.79 158.94 131.43 142.67 117.79 126.39"/><polygon class="cls-2" points="117.79 176.25 104.5 192.4 117.79 208.8 131.43 192.53 117.79 176.25"/></g></g></svg>