<svg xmlns="http://www.w3.org/2000/svg" viewBox="0 0 166.25 232.84"><defs><style>.cls-1{fill:#fff;}.cls-2{fill:#af0f07;}.cls-3{fill:#a43e32;}</style></defs><g id="Layer_2" data-name="Layer 2"><g id="Objects"><rect class="cls-1" width="166.25" height="232.84" rx="5.94"/><path class="cls-1" d="M140.34,7.66a.57.57,0,1,1-.57-.56A.56.56,0,0,1,140.34,7.66Z"/><circle class="cls-1" cx="112.66" cy="7.66" r="0.57"/><path class="cls-1" d="M88.29,7.66a.57.57,0,1,1-.57-.56A.56.56,0,0,1,88.29,7.66Z"/><path class="cls-1" d="M63.26,7.85a.58.58,0,0,1-.57.57.57.57,0,0,1-.57-.57.56.56,0,0,1,.57-.57A.57.57,0,0,1,63.26,7.85Z"/><path class="cls-1" d="M140.34,28.8a.57.57,0,1,1-.57-.57A.57.57,0,0,1,140.34,28.8Z"/><path class="cls-1" d="M140.34,48.09a.57.57,0,1,1-1.13,0,.57.57,0,1,1,1.13,0Z"/><path class="cls-1" d="M140.34,68.3a.57.57,0,1,1-.57-.57A.57.57,0,0,1,140.34,68.3Z"/><path class="cls-1" d="M140.34,81.08a.57.57,0,1,1-1.13,0,.57.57,0,1,1,1.13,0Z"/><path class="cls-1" d="M140.34,93.9a.57.57,0,1,1-.57-.56A.56.56,0,0,1,140.34,93.9Z"/><circle class="cls-1" cx="9.56" cy="8.23" r="0.57"/><path class="cls-1" d="M37.55,7.85a.57.57,0,0,1-.57.57.58.58,0,0,1-.57-.57A.57.57,0,0,1,37,7.28.56.56,0,0,1,37.55,7.85Z"/><circle class="cls-1" cx="9.56" cy="28.35" r="0.57"/><circle class="cls-1" cx="9.56" cy="48.22" r="0.57"/><circle class="cls-1" cx="9.56" cy="68.16" r="0.57"/><circle class="cls-1" cx="9.56" cy="81.08" r="0.57"/><circle class="cls-1" cx="9.56" cy="94.47" r="0.57"/><circle class="cls-1" cx="9.56" cy="107.4" r="0.57"/><circle class="cls-1" cx="9.56" cy="120.32" r="0.57"/><circle class="cls-1" cx="9.56" cy="133.72" r="0.57"/><circle class="cls-1" cx="9.56" cy="147.14" r="0.57"/><circle class="cls-1" cx="9.56" cy="159.14" r="0.57"/><path class="cls-1" d="M10.13,172.53a.56.56,0,0,1-.57.57.57.57,0,1,1,0-1.13A.56.56,0,0,1,10.13,172.53Z"/><circle class="cls-1" cx="9.56" cy="185.58" r="0.57"/><circle class="cls-1" cx="9.79" cy="204.76" r="0.57"/><path class="cls-1" d="M30.87,205.33a.57.57,0,1,1-.56-.57A.56.56,0,0,1,30.87,205.33Z"/><path class="cls-1" d="M57.31,205.33a.58.58,0,0,1-.57.57.57.57,0,0,1-.57-.57.56.56,0,0,1,.57-.57A.57.57,0,0,1,57.31,205.33Z"/><path class="cls-1" d="M83.7,205.33a.58.58,0,0,1-.57.57.57.57,0,0,1-.57-.57.56.56,0,0,1,.57-.57A.57.57,0,0,1,83.7,205.33Z"/><circle class="cls-1" cx="108.83" cy="205.33" r="0.57"/><path class="cls-1" d="M140.34,107.09a.57.57,0,1,1-.57-.57A.56.56,0,0,1,140.34,107.09Z"/><path class="cls-1" d="M140.34,119.41a.57.57,0,1,1-.57-.57A.57.57,0,0,1,140.34,119.41Z"/><path class="cls-1" d="M140.34,132.7a.57.57,0,1,1-.57-.57A.57.57,0,0,1,140.34,132.7Z"/><path class="cls-1" d="M140.34,145.8a.57.57,0,1,1-.57-.57A.57.57,0,0,1,140.34,145.8Z"/><path class="cls-1" d="M140.34,158.55a.57.57,0,1,1-.57-.57A.57.57,0,0,1,140.34,158.55Z"/><path class="cls-1" d="M140.34,171.12a.57.57,0,1,1-.57-.56A.56.56,0,0,1,140.34,171.12Z"/><path class="cls-1" d="M140.34,184a.57.57,0,1,1-.57-.57A.57.57,0,0,1,140.34,184Z"/><path class="cls-1" d="M140.34,203.52a.57.57,0,1,1-.57-.56A.56.56,0,0,1,140.34,203.52Z"/><polygon class="cls-2" points="16.5 28.56 11.78 33.77 15.98 39.5 20.82 34.24 16.5 28.56"/><polygon class="cls-2" points="148.87 193.33 144.14 198.55 148.35 204.27 153.19 199.02 148.87 193.33"/><path class="cls-3" d="M15.3,25.32A2.07,2.07,0,0,1,14.88,24a5.72,5.72,0,0,1,.57-2.4,17,17,0,0,1,1.47-2.51l1.55-2.23a6.73,6.73,0,0,0,.71-1.29,3.21,3.21,0,0,0,.28-1.19.45.45,0,0,0-.15-.4.76.76,0,0,0-.45-.11h-4a1.44,1.44,0,0,0-1.09.34,1.87,1.87,0,0,0-.44,1l-.21,1.15h-.43l.27-4h7.45a10.46,10.46,0,0,1-.3,2.31,7,7,0,0,1-1,2.37L18,18.59a4.36,4.36,0,0,0-.8,2.52,7.71,7.71,0,0,0,.12,1.45l.11.68a6.62,6.62,0,0,1,.16,1.36c0,.82-.38,1.22-1.15,1.22A1.39,1.39,0,0,1,15.3,25.32Z"/><path class="cls-3" d="M150,207.9a2,2,0,0,1,.41,1.35,5.69,5.69,0,0,1-.57,2.4,16.9,16.9,0,0,1-1.46,2.51l-1.55,2.23a6.22,6.22,0,0,0-.71,1.29,3.21,3.21,0,0,0-.28,1.2.51.51,0,0,0,.14.4.81.81,0,0,0,.46.1h4a1.45,1.45,0,0,0,1.1-.34,1.87,1.87,0,0,0,.44-1l.21-1.14h.43l-.28,4h-7.44a10.46,10.46,0,0,1,.3-2.31,7,7,0,0,1,1-2.36l1.1-1.67a4.4,4.4,0,0,0,.8-2.52,7.75,7.75,0,0,0-.12-1.46l-.12-.68a7.3,7.3,0,0,1-.15-1.36c0-.81.38-1.22,1.14-1.22A1.37,1.37,0,0,1,150,207.9Z"/><polygon class="cls-2" points="50.49 23.74 37.2 39.89 50.49 56.3 64.13 40.02 50.49 23.74"/><polygon class="cls-2" points="82.82 56.19 69.53 72.33 82.82 88.74 96.46 72.46 82.82 56.19"/><polygon class="cls-2" points="50.49 173.31 37.2 189.46 50.49 205.87 64.13 189.59 50.49 173.31"/><polygon class="cls-2" points="50.49 98.53 37.2 114.67 50.49 131.08 64.13 114.8 50.49 98.53"/><polygon class="cls-2" points="115.15 23.74 101.85 39.89 115.15 56.3 128.78 40.02 115.15 23.74"/><polygon class="cls-2" points="115.15 173.31 101.85 189.46 115.15 205.87 128.78 189.59 115.15 173.31"/><polygon class="cls-2" points="115.15 98.53 101.85 114.67 115.15 131.08 128.78 114.8 115.15 98.53"/></g></g></svg>