<svg xmlns="http://www.w3.org/2000/svg" viewBox="0 0 166.36 232.9"><defs><style>.cls-1{fill:#fff;}.cls-2{fill:#a43e32;}.cls-3{fill:#af0f07;}</style></defs><g id="Layer_2" data-name="Layer 2"><g id="Objects"><rect class="cls-1" width="166.36" height="232.9" rx="5.94"/><path class="cls-1" d="M148.09,14.63a.57.57,0,0,1-.57.56.57.57,0,1,1,0-1.13A.57.57,0,0,1,148.09,14.63Z"/><path class="cls-1" d="M121,14.63a.56.56,0,0,1-.57.56.57.57,0,1,1,.57-.56Z"/><path class="cls-1" d="M96,14.63a.57.57,0,0,1-.57.56.57.57,0,1,1,0-1.13A.57.57,0,0,1,96,14.63Z"/><path class="cls-1" d="M71,14.81a.57.57,0,1,1-.56-.57A.57.57,0,0,1,71,14.81Z"/><path class="cls-1" d="M148.09,35.77a.58.58,0,0,1-.57.57.57.57,0,0,1-.57-.57.56.56,0,0,1,.57-.57A.57.57,0,0,1,148.09,35.77Z"/><path class="cls-1" d="M148.09,55.06a.58.58,0,0,1-.57.57.57.57,0,0,1,0-1.14A.58.58,0,0,1,148.09,55.06Z"/><path class="cls-1" d="M148.09,75.28a.58.58,0,0,1-.57.57.57.57,0,0,1-.57-.57.56.56,0,0,1,.57-.57A.57.57,0,0,1,148.09,75.28Z"/><path class="cls-1" d="M148.09,88.06a.58.58,0,0,1-.57.57.57.57,0,1,1,0-1.14A.58.58,0,0,1,148.09,88.06Z"/><path class="cls-1" d="M148.09,100.89a.58.58,0,0,1-.57.57.57.57,0,0,1-.57-.57.56.56,0,0,1,.57-.57A.57.57,0,0,1,148.09,100.89Z"/><path class="cls-1" d="M17.79,15.19a.57.57,0,1,1-.56-.56A.56.56,0,0,1,17.79,15.19Z"/><path class="cls-1" d="M45.23,14.81a.57.57,0,0,1-.57.57.57.57,0,0,1,0-1.14A.57.57,0,0,1,45.23,14.81Z"/><path class="cls-1" d="M17.79,35.32a.57.57,0,1,1-.56-.57A.56.56,0,0,1,17.79,35.32Z"/><path class="cls-1" d="M17.79,55.19a.57.57,0,1,1-.56-.57A.57.57,0,0,1,17.79,55.19Z"/><path class="cls-1" d="M17.79,75.14a.57.57,0,1,1-.56-.57A.56.56,0,0,1,17.79,75.14Z"/><path class="cls-1" d="M17.79,88.06a.57.57,0,1,1-.56-.57A.57.57,0,0,1,17.79,88.06Z"/><path class="cls-1" d="M17.79,101.46a.57.57,0,1,1-.56-.57A.56.56,0,0,1,17.79,101.46Z"/><path class="cls-1" d="M17.79,114.39a.57.57,0,1,1-.56-.57A.57.57,0,0,1,17.79,114.39Z"/><path class="cls-1" d="M17.79,127.31a.57.57,0,1,1-1.13,0,.57.57,0,1,1,1.13,0Z"/><path class="cls-1" d="M17.79,140.71a.57.57,0,1,1-1.13,0,.57.57,0,1,1,1.13,0Z"/><path class="cls-1" d="M17.79,154.14a.57.57,0,1,1-.56-.57A.57.57,0,0,1,17.79,154.14Z"/><path class="cls-1" d="M17.79,166.14a.57.57,0,1,1-.56-.57A.57.57,0,0,1,17.79,166.14Z"/><path class="cls-1" d="M17.79,179.54a.57.57,0,1,1-.56-.57A.56.56,0,0,1,17.79,179.54Z"/><path class="cls-1" d="M17.79,192.59a.57.57,0,1,1-.56-.57A.56.56,0,0,1,17.79,192.59Z"/><path class="cls-1" d="M18,211.77a.57.57,0,0,1-.57.57.56.56,0,0,1-.57-.57.57.57,0,0,1,.57-.57A.58.58,0,0,1,18,211.77Z"/><path class="cls-1" d="M38.55,212.34a.57.57,0,0,1-.57.57.57.57,0,0,1,0-1.14A.57.57,0,0,1,38.55,212.34Z"/><path class="cls-1" d="M65,212.34a.57.57,0,0,1-.57.57.57.57,0,0,1,0-1.14A.57.57,0,0,1,65,212.34Z"/><path class="cls-1" d="M91.41,212.34a.58.58,0,0,1-.57.57.57.57,0,0,1,0-1.14A.58.58,0,0,1,91.41,212.34Z"/><path class="cls-1" d="M117.13,212.34a.58.58,0,0,1-.57.57.57.57,0,0,1,0-1.14A.58.58,0,0,1,117.13,212.34Z"/><path class="cls-1" d="M148.09,114.07a.57.57,0,0,1-.57.57.56.56,0,0,1-.57-.57.57.57,0,0,1,.57-.57A.58.58,0,0,1,148.09,114.07Z"/><path class="cls-1" d="M148.09,126.4a.57.57,0,0,1-.57.57.56.56,0,0,1-.57-.57.57.57,0,0,1,.57-.57A.58.58,0,0,1,148.09,126.4Z"/><path class="cls-1" d="M148.09,139.69a.57.57,0,0,1-.57.57.57.57,0,1,1,.57-.57Z"/><path class="cls-1" d="M148.09,152.8a.58.58,0,0,1-.57.57.57.57,0,0,1-.57-.57.56.56,0,0,1,.57-.57A.57.57,0,0,1,148.09,152.8Z"/><path class="cls-1" d="M148.09,165.55a.57.57,0,0,1-.57.57.56.56,0,0,1-.57-.57.57.57,0,0,1,.57-.57A.58.58,0,0,1,148.09,165.55Z"/><path class="cls-1" d="M148.09,178.13a.58.58,0,0,1-.57.57.57.57,0,0,1-.57-.57.56.56,0,0,1,.57-.57A.57.57,0,0,1,148.09,178.13Z"/><path class="cls-1" d="M148.09,191a.58.58,0,0,1-.57.57A.57.57,0,0,1,147,191a.56.56,0,0,1,.57-.57A.57.57,0,0,1,148.09,191Z"/><path class="cls-1" d="M148.09,210.54a.58.58,0,0,1-.57.57.57.57,0,0,1-.57-.57.56.56,0,0,1,.57-.57A.57.57,0,0,1,148.09,210.54Z"/><path class="cls-2" d="M13.91,24.83a3.73,3.73,0,0,1-1.57-1.28,3.26,3.26,0,0,1-.6-2,3,3,0,0,1,.8-2.21,3.91,3.91,0,0,1,1.69-1.05v-.08L14,18.16a3.41,3.41,0,0,1-1.58-1.27A3.47,3.47,0,0,1,11.9,15a3,3,0,0,1,.62-1.83,4.08,4.08,0,0,1,1.61-1.28,5,5,0,0,1,2.06-.46,4.78,4.78,0,0,1,2.24.48,3.38,3.38,0,0,1,1.39,1.24,3.06,3.06,0,0,1,.46,1.62,2.68,2.68,0,0,1-.67,1.82,4.45,4.45,0,0,1-1.56,1.17v.08l.45.17a3.1,3.1,0,0,1,2.29,2.93,4.58,4.58,0,0,1-.55,2.21,4.16,4.16,0,0,1-1.63,1.59,5.34,5.34,0,0,1-2.58.59A5,5,0,0,1,13.91,24.83ZM18,24.21a2.58,2.58,0,0,0,1-1.08,2.64,2.64,0,0,0,.31-1.19,2.33,2.33,0,0,0-.48-1.61,3.67,3.67,0,0,0-1.39-.89l-2.62-1a2.64,2.64,0,0,0-1.24,1,4,4,0,0,0-.45,2.1A2.74,2.74,0,0,0,14,23.92a3.51,3.51,0,0,0,2.21.74A3.08,3.08,0,0,0,18,24.21Zm.7-7.78A3.33,3.33,0,0,0,19,14.84a2.83,2.83,0,0,0-1.42-2.47A2.93,2.93,0,0,0,16.19,12a3.11,3.11,0,0,0-2,.68,2.24,2.24,0,0,0-.82,1.81,2,2,0,0,0,.39,1.3,3.17,3.17,0,0,0,1.26.83l2.5.95A2.77,2.77,0,0,0,18.69,16.43Z"/><path class="cls-2" d="M150.75,207.34a3.81,3.81,0,0,1,1.57,1.28,3.27,3.27,0,0,1,.59,2,3,3,0,0,1-.79,2.21,3.91,3.91,0,0,1-1.69,1.05v.08l.21.1a3.33,3.33,0,0,1,1.58,1.26,3.49,3.49,0,0,1,.54,1.94,3,3,0,0,1-.62,1.83,4.15,4.15,0,0,1-1.61,1.28,4.8,4.8,0,0,1-2.06.46,4.91,4.91,0,0,1-2.24-.47,3.4,3.4,0,0,1-1.39-1.25,3.07,3.07,0,0,1-.47-1.62,2.68,2.68,0,0,1,.67-1.81,4.74,4.74,0,0,1,1.57-1.18v-.07l-.45-.18a3.1,3.1,0,0,1-2.29-2.93,4.44,4.44,0,0,1,.55-2.2,4,4,0,0,1,1.63-1.59,5.22,5.22,0,0,1,2.57-.6A5,5,0,0,1,150.75,207.34Zm-4.09.62a2.77,2.77,0,0,0-1.28,2.27,2.31,2.31,0,0,0,.48,1.61,3.8,3.8,0,0,0,1.39.9l2.62.95a2.6,2.6,0,0,0,1.24-1.05,4,4,0,0,0,.44-2.1,2.73,2.73,0,0,0-.94-2.29,3.45,3.45,0,0,0-2.2-.73A3.14,3.14,0,0,0,146.66,208Zm-.69,7.79a3.33,3.33,0,0,0-.35,1.59,2.82,2.82,0,0,0,2.85,2.83,3.11,3.11,0,0,0,2-.68,2.2,2.2,0,0,0,.82-1.8,2,2,0,0,0-.39-1.31,3.17,3.17,0,0,0-1.26-.83l-2.5-1A2.73,2.73,0,0,0,146,215.75Z"/><path class="cls-3" d="M18.74,30.82a2.26,2.26,0,0,0-2.44,2.1,2.26,2.26,0,0,0-2.44-2.1c-2.5.06-2.83,2.86-2,4.28a13.12,13.12,0,0,0,2.2,2.77,21.63,21.63,0,0,1,2.17,2.4s0,.06,0,0,0,0,0,0a19.78,19.78,0,0,1,2.17-2.4,13.44,13.44,0,0,0,2.2-2.77C21.57,33.68,21.24,30.88,18.74,30.82Z"/><path class="cls-3" d="M150,203a2.26,2.26,0,0,1-2.44-2.11A2.27,2.27,0,0,1,145.1,203c-2.51-.06-2.84-2.86-2-4.28a12.56,12.56,0,0,1,2.2-2.77,21.63,21.63,0,0,0,2.17-2.4s0-.07,0-.05,0,.05,0,.05a20.44,20.44,0,0,0,2.16,2.4,12.56,12.56,0,0,1,2.2,2.77C152.81,200.12,152.48,202.92,150,203Z"/><path class="cls-3" d="M63.53,24.8c-5.48-.14-6.74,4.05-7,6.07-.29-2-1.55-6.21-7-6.07-7.21.17-8.16,8.25-5.64,12.33a37.6,37.6,0,0,0,6.34,8c2.37,2.46,5.2,5.22,6.25,6.91,0,0,.06.2.09.14s.09-.14.09-.14c1-1.69,3.88-4.45,6.25-6.91a37.6,37.6,0,0,0,6.34-8C71.7,33.05,70.74,25,63.53,24.8Z"/><path class="cls-3" d="M63.53,100.59c-5.48-.13-6.74,4.06-7,6.07-.29-2-1.55-6.2-7-6.07-7.21.18-8.16,8.25-5.64,12.34a37.85,37.85,0,0,0,6.34,8c2.37,2.45,5.2,5.21,6.25,6.9,0,0,.06.2.09.15s.09-.15.09-.15c1-1.69,3.88-4.45,6.25-6.9a37.85,37.85,0,0,0,6.34-8C71.7,108.84,70.74,100.77,63.53,100.59Z"/><path class="cls-3" d="M63.53,203.77c-5.48.13-6.74-4.05-7-6.07-.29,2-1.55,6.2-7,6.07-7.21-.17-8.16-8.25-5.64-12.33a37.6,37.6,0,0,1,6.34-8c2.37-2.46,5.2-5.22,6.25-6.91,0,0,.06-.2.09-.15s.09.15.09.15c1,1.69,3.88,4.45,6.25,6.91a37.6,37.6,0,0,1,6.34,8C71.7,195.52,70.74,203.6,63.53,203.77Z"/><path class="cls-3" d="M116.21,24.8c-5.48-.14-6.74,4.05-7,6.07-.29-2-1.55-6.21-7-6.07C94.93,25,94,33.05,96.5,37.13a37.6,37.6,0,0,0,6.34,8c2.37,2.46,5.2,5.22,6.25,6.91,0,0,.06.2.09.14s.09-.14.09-.14c1-1.69,3.88-4.45,6.25-6.91a37.6,37.6,0,0,0,6.34-8C124.38,33.05,123.42,25,116.21,24.8Z"/><path class="cls-3" d="M116.21,100.59c-5.48-.13-6.74,4.06-7,6.07-.29-2-1.55-6.2-7-6.07-7.21.18-8.16,8.25-5.64,12.34a37.85,37.85,0,0,0,6.34,8c2.37,2.45,5.2,5.21,6.25,6.9,0,0,.06.2.09.15s.09-.15.09-.15c1-1.69,3.88-4.45,6.25-6.9a37.85,37.85,0,0,0,6.34-8C124.38,108.84,123.42,100.77,116.21,100.59Z"/><path class="cls-3" d="M116.21,203.77c-5.48.13-6.74-4.05-7-6.07-.29,2-1.55,6.2-7,6.07-7.21-.17-8.16-8.25-5.64-12.33a37.6,37.6,0,0,1,6.34-8c2.37-2.46,5.2-5.22,6.25-6.91,0,0,.06-.2.09-.15s.09.15.09.15c1,1.69,3.88,4.45,6.25,6.91a37.6,37.6,0,0,1,6.34,8C124.38,195.52,123.42,203.6,116.21,203.77Z"/><path class="cls-3" d="M89.41,63.62c-5.48-.13-6.74,4.05-7,6.07-.29-2-1.56-6.2-7-6.07-7.21.17-8.16,8.25-5.64,12.33a37.29,37.29,0,0,0,6.34,8c2.37,2.46,5.2,5.22,6.25,6.91,0,0,.06.2.09.15s.08-.15.08-.15c1.05-1.69,3.88-4.45,6.26-6.91a37.6,37.6,0,0,0,6.34-8C97.58,71.87,96.62,63.79,89.41,63.62Z"/><path class="cls-3" d="M89.41,164c-5.48.14-6.74-4-7-6.06-.29,2-1.56,6.2-7,6.06-7.21-.17-8.16-8.25-5.64-12.33a37.29,37.29,0,0,1,6.34-8c2.37-2.45,5.2-5.22,6.25-6.91,0,0,.06-.2.09-.14s.08.14.08.14c1.05,1.69,3.88,4.46,6.26,6.91a37.6,37.6,0,0,1,6.34,8C97.58,155.76,96.62,163.84,89.41,164Z"/></g></g></svg>