<svg xmlns="http://www.w3.org/2000/svg" viewBox="0 0 166.25 232.84"><defs><style>.cls-1{fill:#fff;}.cls-2{fill:#a43e32;}.cls-3{fill:#af0f07;}</style></defs><g id="Layer_2" data-name="Layer 2"><g id="Objects"><rect class="cls-1" width="166.25" height="232.84" rx="5.94"/><path class="cls-2" d="M12.84,22.59H14.7a.6.6,0,0,0,.42-.11.54.54,0,0,0,.12-.39V12.56h-2.4v-.7h1.07a2.46,2.46,0,0,0,1.69-.56,2.35,2.35,0,0,0,.81-1.36H17V22.09a.5.5,0,0,0,.13.39.58.58,0,0,0,.41.11h1.86v.63H12.84Z"/><path class="cls-2" d="M24.94,22.54A6.69,6.69,0,0,1,23.28,20a9.92,9.92,0,0,1,0-6.74,6.69,6.69,0,0,1,1.66-2.59,3.5,3.5,0,0,1,4.88,0,6.6,6.6,0,0,1,1.67,2.59,9.92,9.92,0,0,1,0,6.74,6.6,6.6,0,0,1-1.67,2.59,3.5,3.5,0,0,1-4.88,0Zm4.57-1.46a17,17,0,0,0,.51-4.5,16.9,16.9,0,0,0-.51-4.5,2.15,2.15,0,0,0-4.25,0,16.93,16.93,0,0,0-.51,4.51,16.93,16.93,0,0,0,.51,4.51,2.15,2.15,0,0,0,4.25,0Z"/><path class="cls-3" d="M151.59,206h-1.86a.6.6,0,0,0-.42.12.54.54,0,0,0-.12.39v9.52h2.4v.7h-1.07a2.51,2.51,0,0,0-1.69.56,2.39,2.39,0,0,0-.81,1.36h-.62V206.55a.54.54,0,0,0-.12-.39.62.62,0,0,0-.42-.12H145v-.62h6.59Z"/><path class="cls-3" d="M139.49,206.1a6.62,6.62,0,0,1,1.66,2.59,9.89,9.89,0,0,1,0,6.73,6.62,6.62,0,0,1-1.66,2.59,3.5,3.5,0,0,1-4.88,0,6.53,6.53,0,0,1-1.67-2.59,9.89,9.89,0,0,1,0-6.73,6.53,6.53,0,0,1,1.67-2.59,3.5,3.5,0,0,1,4.88,0Zm-4.57,1.46a20.11,20.11,0,0,0,0,9,2.15,2.15,0,0,0,4.25,0,20.2,20.2,0,0,0,0-9,2.15,2.15,0,0,0-4.25,0Z"/><path class="cls-3" d="M147.36,200.89a2.24,2.24,0,0,1-2.44-2.1,2.25,2.25,0,0,1-2.44,2.1c-2.5-.06-2.83-2.86-2-4.28a13.06,13.06,0,0,1,2.2-2.77,22.62,22.62,0,0,0,2.17-2.39s0-.07,0,0,0,0,0,0a21.32,21.32,0,0,0,2.16,2.39,13.06,13.06,0,0,1,2.2,2.77C150.19,198,149.85,200.83,147.36,200.89Z"/><path class="cls-3" d="M22.72,28.45a2.26,2.26,0,0,0-2.44,2.11,2.26,2.26,0,0,0-2.44-2.11c-2.5.06-2.83,2.87-2,4.28a13.18,13.18,0,0,0,2.2,2.77,21.63,21.63,0,0,1,2.17,2.4s0,.07,0,.05,0-.05,0-.05a19.78,19.78,0,0,1,2.17-2.4,12.85,12.85,0,0,0,2.19-2.77C25.55,31.32,25.22,28.51,22.72,28.45Z"/><path class="cls-3" d="M54.49,26.32c-5.48-.13-6.74,4.06-7,6.07-.29-2-1.55-6.2-7-6.07-7.21.18-8.16,8.25-5.65,12.33a37.6,37.6,0,0,0,6.34,8c2.37,2.45,5.2,5.22,6.25,6.91,0,0,.06.19.09.14s.08-.14.08-.14c1.05-1.69,3.88-4.46,6.25-6.91a37.6,37.6,0,0,0,6.34-8C62.65,34.57,61.69,26.5,54.49,26.32Z"/><path class="cls-3" d="M89,49.46c-5.48-.13-6.74,4-7,6.06-.29-2-1.55-6.19-7-6.06-7.21.17-8.16,8.25-5.64,12.33a37.53,37.53,0,0,0,6.33,8c2.37,2.45,5.2,5.21,6.25,6.9,0,0,.06.2.09.15s.08-.15.08-.15c1-1.69,3.88-4.45,6.25-6.9a37.85,37.85,0,0,0,6.34-8C97.19,57.71,96.23,49.63,89,49.46Z"/><path class="cls-3" d="M89.36,182.78c-5.48.13-6.74-4.05-7-6.07-.29,2-1.55,6.2-7,6.07-7.2-.17-8.16-8.25-5.64-12.33a38.17,38.17,0,0,1,6.33-8c2.38-2.45,5.21-5.21,6.25-6.9,0,0,.06-.2.09-.15s.09.15.09.15c1,1.69,3.88,4.45,6.25,6.9a37.84,37.84,0,0,1,6.33,8C97.52,174.53,96.57,182.61,89.36,182.78Z"/><path class="cls-3" d="M54.49,76.84c-5.48-.13-6.74,4-7,6.07-.29-2-1.55-6.2-7-6.07-7.21.17-8.16,8.25-5.65,12.33a37.85,37.85,0,0,0,6.34,8c2.37,2.45,5.2,5.21,6.25,6.9,0,0,.06.2.09.15s.08-.15.08-.15c1.05-1.69,3.88-4.45,6.25-6.9a37.85,37.85,0,0,0,6.34-8C62.65,85.09,61.69,77,54.49,76.84Z"/><path class="cls-3" d="M54.49,205.25c-5.48.13-6.74-4.05-7-6.07-.29,2-1.55,6.2-7,6.07-7.21-.17-8.16-8.25-5.65-12.33a37.85,37.85,0,0,1,6.34-8c2.37-2.45,5.2-5.21,6.25-6.91,0,0,.06-.19.09-.14s.08.14.08.14c1.05,1.7,3.88,4.46,6.25,6.91a37.85,37.85,0,0,1,6.34,8C62.65,197,61.69,205.08,54.49,205.25Z"/><path class="cls-3" d="M54.49,154.73c-5.48.13-6.74-4-7-6.06-.29,2-1.55,6.19-7,6.06-7.21-.17-8.16-8.25-5.65-12.33a37.85,37.85,0,0,1,6.34-8c2.37-2.45,5.2-5.21,6.25-6.9,0,0,.06-.2.09-.15s.08.15.08.15c1.05,1.69,3.88,4.45,6.25,6.9a37.85,37.85,0,0,1,6.34,8C62.65,146.48,61.69,154.56,54.49,154.73Z"/><path class="cls-3" d="M128.38,26.32c-5.48-.13-6.74,4.06-7,6.07-.29-2-1.55-6.2-7-6.07-7.21.18-8.16,8.25-5.64,12.33a37.28,37.28,0,0,0,6.33,8c2.37,2.45,5.2,5.22,6.25,6.91,0,0,.06.19.09.14s.08-.14.08-.14c1-1.69,3.88-4.46,6.25-6.91a37.6,37.6,0,0,0,6.34-8C136.54,34.57,135.58,26.5,128.38,26.32Z"/><path class="cls-3" d="M128.38,76.84c-5.48-.13-6.74,4-7,6.07-.29-2-1.55-6.2-7-6.07-7.21.17-8.16,8.25-5.64,12.33a37.53,37.53,0,0,0,6.33,8c2.37,2.45,5.2,5.21,6.25,6.9,0,0,.06.2.09.15s.08-.15.08-.15c1-1.69,3.88-4.45,6.25-6.9a37.85,37.85,0,0,0,6.34-8C136.54,85.09,135.58,77,128.38,76.84Z"/><path class="cls-3" d="M128.38,205.25c-5.48.13-6.74-4.05-7-6.07-.29,2-1.55,6.2-7,6.07-7.21-.17-8.16-8.25-5.64-12.33a37.53,37.53,0,0,1,6.33-8c2.37-2.45,5.2-5.21,6.25-6.91,0,0,.06-.19.09-.14s.08.14.08.14c1,1.7,3.88,4.46,6.25,6.91a37.85,37.85,0,0,1,6.34,8C136.54,197,135.58,205.08,128.38,205.25Z"/><path class="cls-3" d="M128.38,154.73c-5.48.13-6.74-4-7-6.06-.29,2-1.55,6.19-7,6.06-7.21-.17-8.16-8.25-5.64-12.33a37.53,37.53,0,0,1,6.33-8c2.37-2.45,5.2-5.21,6.25-6.9,0,0,.06-.2.09-.15s.08.15.08.15c1,1.69,3.88,4.45,6.25,6.9a37.85,37.85,0,0,1,6.34,8C136.54,146.48,135.58,154.56,128.38,154.73Z"/><circle class="cls-1" cx="139.2" cy="9.62" r="0.57"/><circle class="cls-1" cx="112.09" cy="9.62" r="0.57"/><circle class="cls-1" cx="87.16" cy="9.62" r="0.57"/><path class="cls-1" d="M62.69,9.8a.57.57,0,0,1-1.14,0,.57.57,0,0,1,1.14,0Z"/><circle class="cls-1" cx="139.2" cy="30.76" r="0.57"/><circle class="cls-1" cx="139.2" cy="50.04" r="0.57"/><circle class="cls-1" cx="139.2" cy="70.26" r="0.57"/><circle class="cls-1" cx="139.2" cy="83.04" r="0.57"/><circle class="cls-1" cx="139.2" cy="95.86" r="0.57"/><circle class="cls-1" cx="8.99" cy="10.19" r="0.57"/><path class="cls-1" d="M37,9.8a.57.57,0,1,1-.57-.57A.57.57,0,0,1,37,9.8Z"/><path class="cls-1" d="M9.56,30.31a.57.57,0,0,1-.57.57.58.58,0,0,1-.57-.57A.57.57,0,0,1,9,29.74.56.56,0,0,1,9.56,30.31Z"/><circle class="cls-1" cx="8.99" cy="50.17" r="0.57"/><circle class="cls-1" cx="8.99" cy="70.11" r="0.57"/><circle class="cls-1" cx="8.99" cy="83.04" r="0.57"/><circle class="cls-1" cx="8.99" cy="96.43" r="0.57"/><circle class="cls-1" cx="8.99" cy="109.36" r="0.57"/><circle class="cls-1" cx="8.99" cy="122.28" r="0.57"/><circle class="cls-1" cx="8.99" cy="135.67" r="0.57"/><circle class="cls-1" cx="8.99" cy="149.1" r="0.57"/><circle class="cls-1" cx="8.99" cy="161.1" r="0.57"/><path class="cls-1" d="M9.56,174.49a.57.57,0,0,1-.57.57.57.57,0,0,1,0-1.14A.57.57,0,0,1,9.56,174.49Z"/><circle class="cls-1" cx="8.99" cy="187.53" r="0.57"/><circle class="cls-1" cx="9.22" cy="206.71" r="0.57"/><path class="cls-1" d="M30.31,207.28a.57.57,0,0,1-.57.57.56.56,0,0,1-.57-.57.57.57,0,0,1,.57-.57A.58.58,0,0,1,30.31,207.28Z"/><path class="cls-1" d="M56.74,207.28a.57.57,0,1,1-1.14,0,.57.57,0,0,1,1.14,0Z"/><circle class="cls-1" cx="82.56" cy="207.28" r="0.57"/><circle class="cls-1" cx="108.26" cy="207.28" r="0.57"/><circle class="cls-1" cx="139.2" cy="109.04" r="0.57"/><circle class="cls-1" cx="139.2" cy="121.37" r="0.57"/><circle class="cls-1" cx="139.2" cy="134.66" r="0.57"/><circle class="cls-1" cx="139.2" cy="147.76" r="0.57"/><circle class="cls-1" cx="139.2" cy="160.51" r="0.57"/><circle class="cls-1" cx="139.2" cy="173.08" r="0.57"/><circle class="cls-1" cx="139.2" cy="185.92" r="0.57"/><circle class="cls-1" cx="139.2" cy="205.48" r="0.57"/></g></g></svg>