<svg xmlns="http://www.w3.org/2000/svg" viewBox="0 0 166.36 220.59"><defs><style>.cls-1{fill:#fff;}.cls-2{fill:#a43e32;}.cls-3{fill:#af0f07;}</style></defs><g id="Layer_2" data-name="Layer 2"><g id="Objects"><path class="cls-1" d="M160.42,220.59H5.94A5.78,5.78,0,0,1,0,215V6.56A5.78,5.78,0,0,1,5.94,1H160.42a5.78,5.78,0,0,1,5.94,5.6V215A5.78,5.78,0,0,1,160.42,220.59Z"/><path class="cls-1" d="M90.51.57a.58.58,0,0,1-.57.57.57.57,0,0,1-.57-.57A.56.56,0,0,1,89.94,0,.57.57,0,0,1,90.51.57Z"/><path class="cls-1" d="M65.46.75a.57.57,0,0,1-.57.57.56.56,0,0,1-.57-.57.57.57,0,0,1,.57-.57A.58.58,0,0,1,65.46.75Z"/><path class="cls-1" d="M12.3,1.14a.58.58,0,0,1-.57.57.57.57,0,0,1-.57-.57.56.56,0,0,1,.57-.57A.57.57,0,0,1,12.3,1.14Z"/><path class="cls-1" d="M39.73.75a.57.57,0,1,1-1.13,0,.57.57,0,1,1,1.13,0Z"/><path class="cls-1" d="M12.3,21.26a.57.57,0,0,1-.57.57.56.56,0,0,1-.57-.57.57.57,0,0,1,.57-.57A.58.58,0,0,1,12.3,21.26Z"/><path class="cls-1" d="M12.3,41.13a.57.57,0,0,1-.57.57.57.57,0,1,1,.57-.57Z"/><path class="cls-1" d="M12.3,61.08a.58.58,0,0,1-.57.57.57.57,0,0,1-.57-.57.56.56,0,0,1,.57-.57A.57.57,0,0,1,12.3,61.08Z"/><path class="cls-1" d="M12.3,74a.57.57,0,0,1-.57.57.56.56,0,0,1-.57-.57.57.57,0,0,1,.57-.57A.58.58,0,0,1,12.3,74Z"/><path class="cls-1" d="M12.3,87.4a.57.57,0,0,1-.57.57.56.56,0,0,1-.57-.57.57.57,0,0,1,.57-.57A.58.58,0,0,1,12.3,87.4Z"/><path class="cls-1" d="M12.3,100.33a.57.57,0,0,1-.57.57.56.56,0,0,1-.57-.57.57.57,0,0,1,.57-.57A.58.58,0,0,1,12.3,100.33Z"/><path class="cls-1" d="M12.3,113.26a.58.58,0,0,1-.57.57.57.57,0,0,1-.57-.57.56.56,0,0,1,.57-.57A.57.57,0,0,1,12.3,113.26Z"/><path class="cls-1" d="M12.3,126.66a.57.57,0,0,1-.57.56.57.57,0,1,1,0-1.13A.57.57,0,0,1,12.3,126.66Z"/><path class="cls-1" d="M12.3,140.08a.57.57,0,0,1-.57.57.56.56,0,0,1-.57-.57.57.57,0,0,1,.57-.57A.58.58,0,0,1,12.3,140.08Z"/><path class="cls-1" d="M12.3,152.08a.57.57,0,0,1-.57.57.56.56,0,0,1-.57-.57.57.57,0,0,1,.57-.57A.58.58,0,0,1,12.3,152.08Z"/><path class="cls-1" d="M12.3,165.48a.57.57,0,0,1-.57.57.56.56,0,0,1-.57-.57.57.57,0,0,1,.57-.57A.58.58,0,0,1,12.3,165.48Z"/><path class="cls-1" d="M12.3,178.53a.58.58,0,0,1-.57.57.57.57,0,0,1,0-1.14A.58.58,0,0,1,12.3,178.53Z"/><path class="cls-2" d="M13.93,20.72a2.07,2.07,0,0,1-.42-1.36,5.69,5.69,0,0,1,.57-2.4,17,17,0,0,1,1.47-2.51l1.55-2.23a6.22,6.22,0,0,0,.71-1.29,3.21,3.21,0,0,0,.28-1.2A.47.47,0,0,0,18,9.34a.73.73,0,0,0-.46-.11h-4a1.42,1.42,0,0,0-1.09.34,1.79,1.79,0,0,0-.44,1l-.22,1.14H11.3l.27-4H19a10.46,10.46,0,0,1-.3,2.31,7,7,0,0,1-1,2.36L16.6,14a4.41,4.41,0,0,0-.8,2.53A7.71,7.71,0,0,0,15.92,18l.11.68A6.62,6.62,0,0,1,16.19,20c0,.81-.38,1.22-1.15,1.22A1.39,1.39,0,0,1,13.93,20.72Z"/><path class="cls-2" d="M148.67,203.34a2.07,2.07,0,0,1,.42,1.36,5.69,5.69,0,0,1-.57,2.4,17,17,0,0,1-1.47,2.51l-1.55,2.23a6.22,6.22,0,0,0-.71,1.29,3.21,3.21,0,0,0-.28,1.2.47.47,0,0,0,.14.39.73.73,0,0,0,.46.11h4a1.44,1.44,0,0,0,1.09-.34,1.79,1.79,0,0,0,.44-1l.21-1.14h.43l-.27,4h-7.45a10.46,10.46,0,0,1,.3-2.31,7,7,0,0,1,1-2.36l1.1-1.67a4.41,4.41,0,0,0,.8-2.53,7.71,7.71,0,0,0-.12-1.45l-.11-.68a6.62,6.62,0,0,1-.16-1.36c0-.81.38-1.22,1.14-1.22A1.39,1.39,0,0,1,148.67,203.34Z"/><path class="cls-3" d="M18.09,26.76a2.26,2.26,0,0,0-2.44,2.11,2.26,2.26,0,0,0-2.44-2.11c-2.5.06-2.83,2.86-2,4.28a13.18,13.18,0,0,0,2.2,2.77,20.67,20.67,0,0,1,2.17,2.4s0,.07,0,0,0,0,0,0a20.67,20.67,0,0,1,2.17-2.4A12.86,12.86,0,0,0,20.05,31C20.92,29.62,20.59,26.82,18.09,26.76Z"/><path class="cls-3" d="M149.33,198.92a2.26,2.26,0,0,1-2.44-2.1,2.26,2.26,0,0,1-2.44,2.1c-2.5-.06-2.83-2.86-2-4.28a13.12,13.12,0,0,1,2.2-2.77,21.63,21.63,0,0,0,2.17-2.4s0-.06,0-.05,0,.05,0,.05a19.78,19.78,0,0,0,2.17,2.4,13.44,13.44,0,0,1,2.2,2.77C152.16,196.06,151.83,198.86,149.33,198.92Z"/><path class="cls-3" d="M62.57,20.74c-5.48-.13-6.74,4.05-7,6.07-.29-2-1.55-6.2-7-6.07-7.21.17-8.16,8.25-5.64,12.33a37.34,37.34,0,0,0,6.34,8c2.37,2.46,5.2,5.22,6.25,6.91,0,0,.06.2.09.15s.09-.15.09-.15c1-1.69,3.88-4.45,6.25-6.91a37.34,37.34,0,0,0,6.34-8C70.74,29,69.78,20.91,62.57,20.74Z"/><path class="cls-3" d="M62.57,96.54c-5.48-.14-6.74,4-7,6.06-.29-2-1.55-6.2-7-6.06-7.21.17-8.16,8.25-5.64,12.33a37.85,37.85,0,0,0,6.34,8c2.37,2.45,5.2,5.22,6.25,6.91,0,0,.06.2.09.14s.09-.14.09-.14c1-1.69,3.88-4.46,6.25-6.91a37.85,37.85,0,0,0,6.34-8C70.74,104.79,69.78,96.71,62.57,96.54Z"/><path class="cls-3" d="M62.57,199.71c-5.48.14-6.74-4.05-7-6.06-.29,2-1.55,6.2-7,6.06-7.21-.17-8.16-8.25-5.64-12.33a37.85,37.85,0,0,1,6.34-8c2.37-2.45,5.2-5.22,6.25-6.91,0,0,.06-.2.09-.14s.09.14.09.14c1,1.69,3.88,4.46,6.25,6.91a37.85,37.85,0,0,1,6.34,8C70.74,191.46,69.78,199.54,62.57,199.71Z"/><path class="cls-3" d="M115.25,20.74c-5.48-.13-6.74,4.05-7,6.07-.29-2-1.55-6.2-7-6.07C94,20.91,93,29,95.54,33.07a37.34,37.34,0,0,0,6.34,8c2.37,2.46,5.2,5.22,6.25,6.91,0,0,.06.2.09.15s.09-.15.09-.15c1-1.69,3.88-4.45,6.25-6.91a37.34,37.34,0,0,0,6.34-8C123.42,29,122.46,20.91,115.25,20.74Z"/><path class="cls-3" d="M115.25,96.54c-5.48-.14-6.74,4-7,6.06-.29-2-1.55-6.2-7-6.06-7.21.17-8.16,8.25-5.64,12.33a37.85,37.85,0,0,0,6.34,8c2.37,2.45,5.2,5.22,6.25,6.91,0,0,.06.2.09.14s.09-.14.09-.14c1-1.69,3.88-4.46,6.25-6.91a37.85,37.85,0,0,0,6.34-8C123.42,104.79,122.46,96.71,115.25,96.54Z"/><path class="cls-3" d="M115.25,199.71c-5.48.14-6.74-4.05-7-6.06-.29,2-1.55,6.2-7,6.06-7.21-.17-8.16-8.25-5.64-12.33a37.85,37.85,0,0,1,6.34-8c2.37-2.45,5.2-5.22,6.25-6.91,0,0,.06-.2.09-.14s.09.14.09.14c1,1.69,3.88,4.46,6.25,6.91a37.85,37.85,0,0,1,6.34,8C123.42,191.46,122.46,199.54,115.25,199.71Z"/><path class="cls-3" d="M88.45,59.56c-5.48-.13-6.74,4.06-7,6.07-.29-2-1.56-6.2-7-6.07-7.21.18-8.16,8.25-5.64,12.34a37.54,37.54,0,0,0,6.34,8c2.37,2.45,5.2,5.21,6.25,6.9,0,0,.06.2.09.15s.08-.15.08-.15c1-1.69,3.88-4.45,6.26-6.9a37.85,37.85,0,0,0,6.34-8C96.62,67.81,95.66,59.74,88.45,59.56Z"/></g></g></svg>