<svg xmlns="http://www.w3.org/2000/svg" viewBox="0 0 166.36 232.9"><defs><style>.cls-1{fill:#fff;}.cls-2{fill:#af0f07;}.cls-3{fill:#a43e32;}</style></defs><g id="Layer_2" data-name="Layer 2"><g id="Objects"><rect class="cls-1" width="166.36" height="232.9" rx="5.94"/><path class="cls-2" d="M87.93,23.51c-5.49-.14-6.75,4-7,6.06-.29-2-1.55-6.2-7-6.06-7.21.17-8.17,8.25-5.65,12.33a37.85,37.85,0,0,0,6.34,8c2.37,2.45,5.21,5.22,6.25,6.91,0,0,.06.2.09.14s.09-.14.09-.14c1-1.69,3.88-4.46,6.25-6.91a37.85,37.85,0,0,0,6.34-8C96.09,31.76,95.13,23.68,87.93,23.51Z"/><path class="cls-2" d="M87.93,99.3c-5.49-.13-6.75,4.06-7,6.07-.29-2-1.55-6.2-7-6.07-7.21.18-8.17,8.25-5.65,12.34a37.85,37.85,0,0,0,6.34,8c2.37,2.45,5.21,5.21,6.25,6.9,0,0,.06.2.09.15s.09-.15.09-.15c1-1.69,3.88-4.45,6.25-6.9a37.85,37.85,0,0,0,6.34-8C96.09,107.55,95.13,99.48,87.93,99.3Z"/><path class="cls-2" d="M87.93,202.48c-5.49.13-6.75-4-7-6.07-.29,2-1.55,6.2-7,6.07-7.21-.17-8.17-8.25-5.65-12.33a37.34,37.34,0,0,1,6.34-8c2.37-2.46,5.21-5.22,6.25-6.91,0,0,.06-.2.09-.15s.09.15.09.15c1,1.69,3.88,4.45,6.25,6.91a37.34,37.34,0,0,1,6.34,8C96.09,194.23,95.13,202.31,87.93,202.48Z"/><path class="cls-2" d="M18.49,31.38a2.26,2.26,0,0,0-2.44,2.11,2.26,2.26,0,0,0-2.44-2.11c-2.5.06-2.83,2.86-2,4.28a12.86,12.86,0,0,0,2.2,2.77A20.67,20.67,0,0,1,16,40.83s0,.07,0,.05,0-.05,0-.05a20.67,20.67,0,0,1,2.17-2.4,13.18,13.18,0,0,0,2.2-2.77C21.32,34.24,21,31.44,18.49,31.38Z"/><path class="cls-3" d="M12.28,26.71a2.19,2.19,0,0,1-1-1.95,1.83,1.83,0,0,1,.41-1.19,1.32,1.32,0,0,1,1.07-.5,1.24,1.24,0,0,1,.88.3,1.08,1.08,0,0,1,.32.83,1.11,1.11,0,0,1-.24.71.77.77,0,0,1-.63.3c-.45,0-.68.11-.68.33,0,.81.81,1.22,2.44,1.22a2.25,2.25,0,0,0,2.05-1,4.18,4.18,0,0,0,.63-2.33,3.48,3.48,0,0,0-.67-2.33,2.09,2.09,0,0,0-1.64-.77,3,3,0,0,0-.47,0l-.46.14a3.43,3.43,0,0,1-1,.21,1,1,0,0,1-.51-.13.45.45,0,0,1-.23-.41.47.47,0,0,1,.22-.41.93.93,0,0,1,.52-.13,6.23,6.23,0,0,1,.91.09,7.45,7.45,0,0,0,1.07.06A1.57,1.57,0,0,0,16.7,19,3.74,3.74,0,0,0,17.19,17a3.59,3.59,0,0,0-.58-2.1,1.94,1.94,0,0,0-1.69-.83,2.68,2.68,0,0,0-1.62.37,1,1,0,0,0-.47.83.59.59,0,0,0,.13.36,1.11,1.11,0,0,0,.37.3,1,1,0,0,1,.7,1,.89.89,0,0,1-.27.67,1.05,1.05,0,0,1-.78.26,1.29,1.29,0,0,1-1-.47,1.57,1.57,0,0,1-.42-1.06,2.44,2.44,0,0,1,1-2.1,4.24,4.24,0,0,1,2.52-.73,4.16,4.16,0,0,1,2.84.94,3.11,3.11,0,0,1,1.08,2.47,2.8,2.8,0,0,1-.38,1.45,3.35,3.35,0,0,1-.95,1,3.53,3.53,0,0,1-1.16.53v.16a3.66,3.66,0,0,1,1.34.55,3.76,3.76,0,0,1,1.18,1.17,3,3,0,0,1,.49,1.69,3.42,3.42,0,0,1-.64,2.07,4.16,4.16,0,0,1-1.72,1.36,6,6,0,0,1-2.38.47A4.54,4.54,0,0,1,12.28,26.71Z"/><path class="cls-2" d="M150,207.7a2.21,2.21,0,0,1,1,2,1.84,1.84,0,0,1-.41,1.2,1.31,1.31,0,0,1-1.07.49,1.24,1.24,0,0,1-.88-.3,1.19,1.19,0,0,1-.08-1.53.77.77,0,0,1,.63-.3c.46,0,.68-.11.68-.33,0-.82-.81-1.23-2.44-1.23a2.27,2.27,0,0,0-2,1,4.21,4.21,0,0,0-.63,2.33,3.47,3.47,0,0,0,.67,2.33,2.07,2.07,0,0,0,1.64.78,2.84,2.84,0,0,0,.47,0,3.23,3.23,0,0,0,.46-.14,3.5,3.5,0,0,1,1-.21,1,1,0,0,1,.51.14.44.44,0,0,1,.23.4.45.45,0,0,1-.22.41.94.94,0,0,1-.52.14,6.67,6.67,0,0,1-.91-.1,7.45,7.45,0,0,0-1.07-.06,1.56,1.56,0,0,0-1.43.85,3.72,3.72,0,0,0-.49,1.93,3.53,3.53,0,0,0,.58,2.09,1.93,1.93,0,0,0,1.69.84,2.76,2.76,0,0,0,1.62-.37,1.07,1.07,0,0,0,.48-.84.6.6,0,0,0-.14-.35,1,1,0,0,0-.37-.31,1,1,0,0,1-.7-.95.9.9,0,0,1,.27-.67,1.11,1.11,0,0,1,.78-.26,1.26,1.26,0,0,1,1,.48,1.55,1.55,0,0,1,.42,1.06,2.42,2.42,0,0,1-1,2.09,4.23,4.23,0,0,1-2.51.74,4.17,4.17,0,0,1-2.85-.94,3.13,3.13,0,0,1-1.07-2.48,2.76,2.76,0,0,1,.37-1.44,3.27,3.27,0,0,1,1-1,3.43,3.43,0,0,1,1.15-.54v-.15a4,4,0,0,1-2.52-1.73,2.94,2.94,0,0,1-.49-1.69,3.43,3.43,0,0,1,.64-2.06,4.09,4.09,0,0,1,1.72-1.36,5.78,5.78,0,0,1,2.38-.48A4.59,4.59,0,0,1,150,207.7Z"/><path class="cls-2" d="M148.8,202.62a2.26,2.26,0,0,1-2.44-2.11,2.26,2.26,0,0,1-2.44,2.11c-2.5-.06-2.83-2.87-2-4.28a13.18,13.18,0,0,1,2.2-2.77,19.78,19.78,0,0,0,2.17-2.4s0-.07,0,0,0,0,0,0a21.63,21.63,0,0,0,2.17,2.4,12.86,12.86,0,0,1,2.2,2.77C151.63,199.75,151.3,202.56,148.8,202.62Z"/></g></g></svg>