<svg xmlns="http://www.w3.org/2000/svg" viewBox="0 0 166.36 232.9"><defs><style>.cls-1{fill:#fff;}.cls-2{fill:#af0f07;}.cls-3{fill:#a43e32;}</style></defs><g id="Layer_2" data-name="Layer 2"><g id="Objects"><rect class="cls-1" width="166.36" height="232.9" rx="5.94"/><path class="cls-1" d="M150.86,11.55a.57.57,0,1,1-.57-.57A.57.57,0,0,1,150.86,11.55Z"/><path class="cls-1" d="M123.73,11.55a.56.56,0,0,1-.57.56.57.57,0,1,1,.57-.56Z"/><path class="cls-1" d="M98.78,11.55a.57.57,0,0,1-.57.56.57.57,0,1,1,0-1.13A.57.57,0,0,1,98.78,11.55Z"/><path class="cls-1" d="M73.73,11.73a.58.58,0,0,1-.57.57.57.57,0,0,1-.57-.57.56.56,0,0,1,.57-.57A.57.57,0,0,1,73.73,11.73Z"/><path class="cls-1" d="M150.86,32.69a.57.57,0,0,1-1.14,0,.57.57,0,0,1,1.14,0Z"/><path class="cls-1" d="M150.86,52a.57.57,0,1,1-.57-.57A.58.58,0,0,1,150.86,52Z"/><path class="cls-1" d="M150.86,72.2a.57.57,0,1,1-1.14,0,.57.57,0,1,1,1.14,0Z"/><path class="cls-1" d="M150.86,85a.57.57,0,1,1-.57-.57A.58.58,0,0,1,150.86,85Z"/><path class="cls-1" d="M150.86,97.81a.57.57,0,0,1-1.14,0,.57.57,0,1,1,1.14,0Z"/><path class="cls-1" d="M20.57,12.11a.57.57,0,0,1-.57.57.57.57,0,1,1,.57-.57Z"/><path class="cls-1" d="M48,11.73a.57.57,0,1,1-.56-.57A.56.56,0,0,1,48,11.73Z"/><path class="cls-1" d="M20.57,32.24a.58.58,0,0,1-.57.57.57.57,0,0,1-.57-.57.56.56,0,0,1,.57-.57A.57.57,0,0,1,20.57,32.24Z"/><path class="cls-1" d="M20.57,52.11a.58.58,0,0,1-.57.57.57.57,0,0,1,0-1.14A.58.58,0,0,1,20.57,52.11Z"/><path class="cls-1" d="M20.57,72.06a.57.57,0,0,1-.57.56.57.57,0,1,1,0-1.13A.57.57,0,0,1,20.57,72.06Z"/><path class="cls-1" d="M20.57,85a.58.58,0,0,1-.57.57.57.57,0,0,1,0-1.14A.58.58,0,0,1,20.57,85Z"/><path class="cls-1" d="M20.57,98.38A.58.58,0,0,1,20,99a.57.57,0,0,1-.57-.57.56.56,0,0,1,.57-.57A.57.57,0,0,1,20.57,98.38Z"/><path class="cls-1" d="M20.57,111.31a.58.58,0,0,1-.57.57.57.57,0,0,1,0-1.14A.58.58,0,0,1,20.57,111.31Z"/><path class="cls-1" d="M20.57,124.23a.57.57,0,0,1-.57.57.56.56,0,0,1-.57-.57.57.57,0,0,1,.57-.57A.58.58,0,0,1,20.57,124.23Z"/><path class="cls-1" d="M20.57,137.63a.57.57,0,0,1-.57.57.56.56,0,0,1-.57-.57.57.57,0,0,1,.57-.57A.58.58,0,0,1,20.57,137.63Z"/><path class="cls-1" d="M20.57,151.06a.58.58,0,0,1-.57.57.57.57,0,0,1,0-1.14A.58.58,0,0,1,20.57,151.06Z"/><path class="cls-1" d="M20.57,163.06a.58.58,0,0,1-.57.57.57.57,0,0,1,0-1.14A.58.58,0,0,1,20.57,163.06Z"/><path class="cls-1" d="M20.57,176.46A.58.58,0,0,1,20,177a.57.57,0,0,1-.57-.57.56.56,0,0,1,.57-.57A.57.57,0,0,1,20.57,176.46Z"/><path class="cls-1" d="M20.57,189.51a.57.57,0,0,1-.57.56.57.57,0,1,1,0-1.13A.57.57,0,0,1,20.57,189.51Z"/><path class="cls-1" d="M20.8,208.69a.58.58,0,0,1-.57.57.57.57,0,0,1,0-1.14A.58.58,0,0,1,20.8,208.69Z"/><path class="cls-1" d="M41.32,209.26a.57.57,0,1,1-.57-.57A.57.57,0,0,1,41.32,209.26Z"/><path class="cls-1" d="M67.77,209.26a.57.57,0,0,1-.57.57.57.57,0,1,1,0-1.14A.57.57,0,0,1,67.77,209.26Z"/><path class="cls-1" d="M94.18,209.26a.58.58,0,0,1-.57.57.57.57,0,0,1,0-1.14A.58.58,0,0,1,94.18,209.26Z"/><path class="cls-1" d="M119.9,209.26a.57.57,0,1,1-.57-.57A.58.58,0,0,1,119.9,209.26Z"/><path class="cls-1" d="M150.86,111a.57.57,0,0,1-1.14,0,.57.57,0,1,1,1.14,0Z"/><path class="cls-1" d="M150.86,123.32a.57.57,0,0,1-1.14,0,.57.57,0,1,1,1.14,0Z"/><path class="cls-1" d="M150.86,136.61a.57.57,0,1,1-.57-.56A.57.57,0,0,1,150.86,136.61Z"/><path class="cls-1" d="M150.86,149.72a.57.57,0,0,1-1.14,0,.57.57,0,1,1,1.14,0Z"/><path class="cls-1" d="M150.86,162.47a.57.57,0,0,1-1.14,0,.57.57,0,1,1,1.14,0Z"/><path class="cls-1" d="M150.86,175.05a.57.57,0,0,1-1.14,0,.57.57,0,1,1,1.14,0Z"/><path class="cls-1" d="M150.86,187.89a.57.57,0,1,1-1.14,0,.57.57,0,1,1,1.14,0Z"/><path class="cls-1" d="M150.86,207.46a.57.57,0,0,1-1.14,0,.57.57,0,0,1,1.14,0Z"/><path class="cls-2" d="M94.48,91.11c-10.6-.26-13,7.84-13.61,11.74-.56-3.9-3-12-13.61-11.74-13.94.33-15.79,16-10.92,23.86s7.39,10.42,12.27,15.46c4.59,4.74,10.07,10.09,12.09,13.36,0,0,.11.38.17.28.06.1.17-.28.17-.28,2-3.27,7.51-8.62,12.1-13.36,4.87-5,7.39-7.56,12.26-15.46S108.43,91.44,94.48,91.11Z"/><path class="cls-2" d="M19.68,29.66a2.24,2.24,0,0,0-2.44,2.1,2.26,2.26,0,0,0-2.44-2.1c-2.51.06-2.84,2.86-2,4.28A13.06,13.06,0,0,0,15,36.71a22.62,22.62,0,0,1,2.17,2.39s0,.07,0,0,0,0,0,0a21.32,21.32,0,0,1,2.16-2.39,13.06,13.06,0,0,0,2.2-2.77C22.51,32.52,22.18,29.72,19.68,29.66Z"/><path class="cls-3" d="M11.19,24.73h.72c.76,0,1.32-.48,1.67-1.42l4.17-11.78h.49l4.21,12.34a1.37,1.37,0,0,0,.47.67,1.22,1.22,0,0,0,.69.19H24.7v.62h-6v-.62H20a.77.77,0,0,0,.49-.15.42.42,0,0,0,.19-.34,1.11,1.11,0,0,0-.07-.43l-.92-2.58H15.11l-.46,1.3a3.94,3.94,0,0,0-.27,1.13,1.37,1.37,0,0,0,.21.75.83.83,0,0,0,.74.32h1.18v.62H11.19Zm4.14-4.12h4.11l-2-5.92Z"/><path class="cls-2" d="M139.66,205.62H145v.62h-1.18a.84.84,0,0,0-.74.32,1.32,1.32,0,0,0-.21.75,4,4,0,0,0,.27,1.12l.47,1.3h4.54l.91-2.58a1.1,1.1,0,0,0,.08-.43.44.44,0,0,0-.19-.34.86.86,0,0,0-.49-.14h-1.28v-.62h6v.62h-1.09a1.23,1.23,0,0,0-.7.18,1.5,1.5,0,0,0-.47.67l-4.21,12.35h-.48L142,207.66c-.35-.95-.9-1.42-1.66-1.42h-.72Zm6.23,10.65,2-5.92h-4.12Z"/><path class="cls-2" d="M150,200.89a2.25,2.25,0,0,1-2.44-2.1,2.25,2.25,0,0,1-2.44,2.1c-2.5-.06-2.83-2.86-2-4.28a13.38,13.38,0,0,1,2.2-2.77,21.56,21.56,0,0,0,2.17-2.39s0-.07,0,0,0,0,0,0a21.56,21.56,0,0,0,2.17,2.39,13.72,13.72,0,0,1,2.2,2.77C152.82,198,152.49,200.83,150,200.89Z"/></g></g></svg>