<svg xmlns="http://www.w3.org/2000/svg" viewBox="0 0 166.25 232.84"><defs><style>.cls-1{fill:#fff;}.cls-2{fill:#a43e32;}.cls-3{fill:#af0f07;}</style></defs><g id="Layer_2" data-name="Layer 2"><g id="Objects"><rect class="cls-1" width="166.25" height="232.84" rx="5.94"/><path class="cls-2" d="M13.37,25.26a2,2,0,0,1-.42-.78,2.88,2.88,0,0,1-.13-.76,1.37,1.37,0,0,1,.49-1.1,1.17,1.17,0,0,1,.79-.29.8.8,0,0,1,.7.35.67.67,0,0,1,.13.25,1.3,1.3,0,0,1,0,.31.89.89,0,0,1-.26.58,1.86,1.86,0,0,1-.36.33.83.83,0,0,0-.25.24.73.73,0,0,0-.06.3.75.75,0,0,0,.39.62,2.29,2.29,0,0,0,1.21.26A2.42,2.42,0,0,0,17,25.16,3,3,0,0,0,18,23.8,7.16,7.16,0,0,0,18.53,22a12.78,12.78,0,0,0,.17-1.82V19.3l-.14-.06a2.89,2.89,0,0,1-1.07,1.21,2.59,2.59,0,0,1-1.41.48,3.62,3.62,0,0,1-2.19-.64,3.48,3.48,0,0,1-1.16-1.47,4.66,4.66,0,0,1-.41-2,5.22,5.22,0,0,1,.46-2.11A4.55,4.55,0,0,1,14.15,13a3.61,3.61,0,0,1,4.35.08A5,5,0,0,1,20,15.29a10,10,0,0,1,.52,3.41,12.14,12.14,0,0,1-.4,3.12,7,7,0,0,1-1.19,2.54,4.12,4.12,0,0,1-3.31,1.83A2.88,2.88,0,0,1,13.37,25.26Zm3.9-5.49a3.14,3.14,0,0,0,.86-1.28,5.23,5.23,0,0,0,.32-1.89A6,6,0,0,0,17.94,14a1.71,1.71,0,0,0-1.66-1A1.78,1.78,0,0,0,14.56,14,5.86,5.86,0,0,0,14,16.6a6.24,6.24,0,0,0,.46,2.58,1.59,1.59,0,0,0,1.55,1A1.93,1.93,0,0,0,17.27,19.77Z"/><path class="cls-3" d="M151.65,208.7a2.28,2.28,0,0,1,.42.78,2.88,2.88,0,0,1,.13.76,1.4,1.4,0,0,1-.49,1.1,1.18,1.18,0,0,1-.8.29.78.78,0,0,1-.69-.35.67.67,0,0,1-.13-.25,1.3,1.3,0,0,1,0-.31.93.93,0,0,1,.25-.58,2.25,2.25,0,0,1,.37-.33.68.68,0,0,0,.24-.24.6.6,0,0,0,.07-.3.72.72,0,0,0-.4-.61,2.15,2.15,0,0,0-1.21-.27,2.44,2.44,0,0,0-1.33.41,3,3,0,0,0-1.05,1.36,7.16,7.16,0,0,0-.51,1.81,12.78,12.78,0,0,0-.17,1.82v.87l.13.06a2.92,2.92,0,0,1,1.08-1.21,2.54,2.54,0,0,1,1.41-.48,3.66,3.66,0,0,1,2.19.64,3.48,3.48,0,0,1,1.16,1.47,4.83,4.83,0,0,1,.41,2,5.19,5.19,0,0,1-.47,2.1,4.45,4.45,0,0,1-1.36,1.76,3.57,3.57,0,0,1-4.35-.08,5,5,0,0,1-1.48-2.22,10,10,0,0,1-.53-3.41,12.15,12.15,0,0,1,.41-3.12,7.21,7.21,0,0,1,1.18-2.54,4.13,4.13,0,0,1,3.32-1.83A2.88,2.88,0,0,1,151.65,208.7Zm-3.9,5.49a3,3,0,0,0-.86,1.28,5.27,5.27,0,0,0-.32,1.89,6.2,6.2,0,0,0,.5,2.65,1.73,1.73,0,0,0,1.67,1,1.79,1.79,0,0,0,1.72-1.12,6,6,0,0,0,.53-2.56,6.24,6.24,0,0,0-.46-2.58,1.59,1.59,0,0,0-1.56-1A1.93,1.93,0,0,0,147.75,214.19Z"/><path class="cls-3" d="M151.2,203.55a2.25,2.25,0,0,1-2.44-2.1,2.25,2.25,0,0,1-2.44,2.1c-2.5-.06-2.83-2.86-1.95-4.27a12.85,12.85,0,0,1,2.19-2.77,20.56,20.56,0,0,0,2.17-2.4s0-.07,0-.05,0,.05,0,.05a21.52,21.52,0,0,0,2.17,2.4,13.18,13.18,0,0,1,2.2,2.77C154,200.69,153.7,203.49,151.2,203.55Z"/><path class="cls-3" d="M18.92,31.12a2.26,2.26,0,0,0-2.44,2.1,2.24,2.24,0,0,0-2.43-2.1c-2.5.06-2.83,2.86-2,4.27a12.56,12.56,0,0,0,2.2,2.77,21.28,21.28,0,0,1,2.16,2.4s0,.07,0,0,0,0,0,0a22.57,22.57,0,0,1,2.17-2.4,12.56,12.56,0,0,0,2.2-2.77C21.75,34,21.42,31.18,18.92,31.12Z"/><path class="cls-3" d="M51.16,29c-5.48-.13-6.74,4.06-7,6.07-.29-2-1.56-6.2-7-6.07-7.21.18-8.16,8.25-5.65,12.34a37.51,37.51,0,0,0,6.34,8c2.37,2.46,5.2,5.22,6.25,6.91,0,0,.06.2.09.14s.08-.14.08-.14c1-1.69,3.88-4.45,6.25-6.91a37.51,37.51,0,0,0,6.34-8C59.32,37.23,58.36,29.16,51.16,29Z"/><path class="cls-3" d="M86.21,104.76c-5.48-.13-6.74,4-7,6.07-.29-2-1.55-6.2-7-6.07-7.2.17-8.16,8.25-5.64,12.33a37.9,37.9,0,0,0,6.33,8c2.38,2.45,5.21,5.21,6.25,6.91,0,0,.06.19.09.14s.09-.14.09-.14c1-1.7,3.88-4.46,6.25-6.91a37.28,37.28,0,0,0,6.33-8C94.37,113,93.42,104.93,86.21,104.76Z"/><path class="cls-3" d="M51.16,79.5c-5.48-.13-6.74,4.06-7,6.07-.29-2-1.56-6.2-7-6.07-7.21.18-8.16,8.25-5.65,12.33a37.6,37.6,0,0,0,6.34,8c2.37,2.45,5.2,5.22,6.25,6.91,0,0,.06.2.09.14s.08-.14.08-.14c1-1.69,3.88-4.46,6.25-6.91a37.6,37.6,0,0,0,6.34-8C59.32,87.75,58.36,79.68,51.16,79.5Z"/><path class="cls-3" d="M51.16,207.91c-5.48.13-6.74-4-7-6.06-.29,2-1.56,6.19-7,6.06-7.21-.17-8.16-8.25-5.65-12.33a37.85,37.85,0,0,1,6.34-8c2.37-2.45,5.2-5.21,6.25-6.9,0,0,.06-.2.09-.15s.08.15.08.15c1,1.69,3.88,4.45,6.25,6.9a37.85,37.85,0,0,1,6.34,8C59.32,199.66,58.36,207.74,51.16,207.91Z"/><path class="cls-3" d="M51.16,157.4c-5.48.13-6.74-4.06-7-6.07-.29,2-1.56,6.2-7,6.07-7.21-.18-8.16-8.25-5.65-12.34a37.51,37.51,0,0,1,6.34-8c2.37-2.46,5.2-5.22,6.25-6.91,0,0,.06-.2.09-.14s.08.14.08.14c1,1.69,3.88,4.45,6.25,6.91a37.51,37.51,0,0,1,6.34,8C59.32,149.15,58.36,157.22,51.16,157.4Z"/><path class="cls-3" d="M125.05,29c-5.48-.13-6.74,4.06-7,6.07-.29-2-1.56-6.2-7-6.07-7.21.18-8.16,8.25-5.65,12.34a37.51,37.51,0,0,0,6.34,8c2.37,2.46,5.2,5.22,6.25,6.91,0,0,.06.2.09.14s.08-.14.08-.14c1.05-1.69,3.88-4.45,6.25-6.91a37.51,37.51,0,0,0,6.34-8C133.21,37.23,132.25,29.16,125.05,29Z"/><path class="cls-3" d="M125.05,79.5c-5.48-.13-6.74,4.06-7,6.07-.29-2-1.56-6.2-7-6.07-7.21.18-8.16,8.25-5.65,12.33a37.6,37.6,0,0,0,6.34,8c2.37,2.45,5.2,5.22,6.25,6.91,0,0,.06.2.09.14s.08-.14.08-.14c1.05-1.69,3.88-4.46,6.25-6.91a37.6,37.6,0,0,0,6.34-8C133.21,87.75,132.25,79.68,125.05,79.5Z"/><path class="cls-3" d="M125.05,207.91c-5.48.13-6.74-4-7-6.06-.29,2-1.56,6.19-7,6.06-7.21-.17-8.16-8.25-5.65-12.33a37.85,37.85,0,0,1,6.34-8c2.37-2.45,5.2-5.21,6.25-6.9,0,0,.06-.2.09-.15s.08.15.08.15c1.05,1.69,3.88,4.45,6.25,6.9a37.85,37.85,0,0,1,6.34,8C133.21,199.66,132.25,207.74,125.05,207.91Z"/><path class="cls-3" d="M125.05,157.4c-5.48.13-6.74-4.06-7-6.07-.29,2-1.56,6.2-7,6.07-7.21-.18-8.16-8.25-5.65-12.34a37.51,37.51,0,0,1,6.34-8c2.37-2.46,5.2-5.22,6.25-6.91,0,0,.06-.2.09-.14s.08.14.08.14c1.05,1.69,3.88,4.45,6.25,6.91a37.51,37.51,0,0,1,6.34,8C133.21,149.15,132.25,157.22,125.05,157.4Z"/><path class="cls-1" d="M148.13,20.28a.57.57,0,0,1-1.14,0,.57.57,0,1,1,1.14,0Z"/><circle class="cls-1" cx="120.45" cy="20.28" r="0.57"/><path class="cls-1" d="M96.08,20.28a.56.56,0,0,1-.57.57.57.57,0,0,1-.57-.57.58.58,0,0,1,.57-.57A.57.57,0,0,1,96.08,20.28Z"/><circle class="cls-1" cx="70.48" cy="20.47" r="0.57"/><path class="cls-1" d="M148.13,41.42a.57.57,0,0,1-1.14,0,.57.57,0,1,1,1.14,0Z"/><path class="cls-1" d="M148.13,60.71a.57.57,0,1,1-.57-.57A.57.57,0,0,1,148.13,60.71Z"/><path class="cls-1" d="M148.13,80.92a.57.57,0,1,1-1.14,0,.57.57,0,1,1,1.14,0Z"/><path class="cls-1" d="M148.13,93.7a.57.57,0,0,1-1.14,0,.57.57,0,1,1,1.14,0Z"/><path class="cls-1" d="M148.13,106.52a.57.57,0,1,1-1.14,0,.57.57,0,1,1,1.14,0Z"/><circle class="cls-1" cx="17.35" cy="20.85" r="0.57"/><circle class="cls-1" cx="44.77" cy="20.47" r="0.57"/><path class="cls-1" d="M17.92,41a.58.58,0,0,1-.57.57.57.57,0,1,1,0-1.14A.58.58,0,0,1,17.92,41Z"/><circle class="cls-1" cx="17.35" cy="60.84" r="0.57"/><circle class="cls-1" cx="17.35" cy="80.78" r="0.57"/><circle class="cls-1" cx="17.35" cy="93.7" r="0.57"/><circle class="cls-1" cx="17.35" cy="107.09" r="0.57"/><circle class="cls-1" cx="17.35" cy="120.02" r="0.57"/><circle class="cls-1" cx="17.35" cy="132.94" r="0.57"/><circle class="cls-1" cx="17.35" cy="146.34" r="0.57"/><circle class="cls-1" cx="17.35" cy="159.76" r="0.57"/><circle class="cls-1" cx="17.35" cy="171.76" r="0.57"/><circle class="cls-1" cx="17.35" cy="185.15" r="0.57"/><circle class="cls-1" cx="17.35" cy="198.2" r="0.57"/><circle class="cls-1" cx="17.58" cy="217.38" r="0.57"/><circle class="cls-1" cx="38.09" cy="217.95" r="0.57"/><circle class="cls-1" cx="64.53" cy="217.95" r="0.57"/><circle class="cls-1" cx="90.91" cy="217.95" r="0.57"/><circle class="cls-1" cx="116.62" cy="217.95" r="0.57"/><path class="cls-1" d="M148.13,119.7a.57.57,0,1,1-.57-.56A.57.57,0,0,1,148.13,119.7Z"/><path class="cls-1" d="M148.13,132a.57.57,0,1,1-.57-.57A.58.58,0,0,1,148.13,132Z"/><path class="cls-1" d="M148.13,145.32a.57.57,0,0,1-1.14,0,.57.57,0,0,1,1.14,0Z"/><path class="cls-1" d="M148.13,158.42a.57.57,0,1,1-1.14,0,.57.57,0,0,1,1.14,0Z"/><path class="cls-1" d="M148.13,171.17a.57.57,0,1,1-.57-.57A.58.58,0,0,1,148.13,171.17Z"/><path class="cls-1" d="M148.13,183.74a.57.57,0,0,1-1.14,0,.57.57,0,0,1,1.14,0Z"/><path class="cls-1" d="M148.13,196.58a.57.57,0,0,1-1.14,0,.57.57,0,0,1,1.14,0Z"/><path class="cls-1" d="M148.13,216.14a.57.57,0,0,1-1.14,0,.57.57,0,0,1,1.14,0Z"/></g></g></svg>