<svg xmlns="http://www.w3.org/2000/svg" viewBox="0 0 166.36 232.9"><defs><style>.cls-1{fill:#fff;}.cls-2{fill:#af0f07;}.cls-3{fill:#a43e32;}</style></defs><g id="Layer_2" data-name="Layer 2"><g id="Objects"><rect class="cls-1" width="166.36" height="232.9" rx="5.94"/><path class="cls-1" d="M149.63,14.07a.57.57,0,1,1-.57-.57A.58.58,0,0,1,149.63,14.07Z"/><path class="cls-1" d="M122.5,14.07a.57.57,0,0,1-.57.57.57.57,0,0,1,0-1.14A.57.57,0,0,1,122.5,14.07Z"/><path class="cls-1" d="M97.55,14.07a.58.58,0,0,1-.57.57.57.57,0,1,1,0-1.14A.58.58,0,0,1,97.55,14.07Z"/><path class="cls-1" d="M72.49,14.25a.57.57,0,1,1-.56-.56A.56.56,0,0,1,72.49,14.25Z"/><path class="cls-1" d="M149.63,35.21a.57.57,0,0,1-1.14,0,.57.57,0,1,1,1.14,0Z"/><path class="cls-1" d="M149.63,54.5a.57.57,0,1,1-.57-.56A.57.57,0,0,1,149.63,54.5Z"/><path class="cls-1" d="M149.63,74.72a.57.57,0,0,1-1.14,0,.57.57,0,0,1,1.14,0Z"/><path class="cls-1" d="M149.63,87.5a.57.57,0,1,1-.57-.56A.57.57,0,0,1,149.63,87.5Z"/><path class="cls-1" d="M149.63,100.33a.57.57,0,1,1-1.14,0,.57.57,0,1,1,1.14,0Z"/><path class="cls-1" d="M19.33,14.64a.57.57,0,1,1-.56-.57A.56.56,0,0,1,19.33,14.64Z"/><path class="cls-1" d="M46.77,14.25a.57.57,0,1,1-.57-.56A.56.56,0,0,1,46.77,14.25Z"/><path class="cls-1" d="M19.33,34.76a.57.57,0,1,1-1.13,0,.57.57,0,1,1,1.13,0Z"/><path class="cls-1" d="M19.33,54.64a.57.57,0,1,1-.56-.57A.56.56,0,0,1,19.33,54.64Z"/><path class="cls-1" d="M19.33,74.58a.57.57,0,1,1-.56-.57A.57.57,0,0,1,19.33,74.58Z"/><path class="cls-1" d="M19.33,87.5a.57.57,0,1,1-.56-.56A.56.56,0,0,1,19.33,87.5Z"/><path class="cls-1" d="M19.33,100.9a.57.57,0,1,1-1.13,0,.57.57,0,1,1,1.13,0Z"/><path class="cls-1" d="M19.33,113.83a.57.57,0,1,1-.56-.56A.56.56,0,0,1,19.33,113.83Z"/><path class="cls-1" d="M19.33,126.76a.57.57,0,1,1-.56-.57A.56.56,0,0,1,19.33,126.76Z"/><path class="cls-1" d="M19.33,140.16a.57.57,0,1,1-.56-.57A.56.56,0,0,1,19.33,140.16Z"/><path class="cls-1" d="M19.33,153.59a.57.57,0,1,1-.56-.57A.56.56,0,0,1,19.33,153.59Z"/><path class="cls-1" d="M19.33,165.59a.57.57,0,1,1-.56-.57A.56.56,0,0,1,19.33,165.59Z"/><path class="cls-1" d="M19.33,179a.57.57,0,1,1-1.13,0,.57.57,0,1,1,1.13,0Z"/><path class="cls-1" d="M19.33,192a.57.57,0,1,1-1.13,0,.57.57,0,1,1,1.13,0Z"/><path class="cls-1" d="M19.57,211.22a.57.57,0,0,1-.57.56.57.57,0,1,1,0-1.13A.57.57,0,0,1,19.57,211.22Z"/><path class="cls-1" d="M40.09,211.78a.56.56,0,0,1-.57.57.57.57,0,1,1,0-1.13A.56.56,0,0,1,40.09,211.78Z"/><path class="cls-1" d="M66.54,211.78a.56.56,0,0,1-.57.57.57.57,0,1,1,0-1.13A.56.56,0,0,1,66.54,211.78Z"/><path class="cls-1" d="M93,211.78a.57.57,0,0,1-.57.57.57.57,0,1,1,.57-.57Z"/><path class="cls-1" d="M118.67,211.78a.57.57,0,0,1-.57.57.57.57,0,1,1,.57-.57Z"/><path class="cls-1" d="M149.63,113.52a.57.57,0,0,1-1.14,0,.57.57,0,1,1,1.14,0Z"/><path class="cls-1" d="M149.63,125.85a.57.57,0,0,1-1.14,0,.57.57,0,1,1,1.14,0Z"/><path class="cls-1" d="M149.63,139.14a.57.57,0,1,1-.57-.57A.58.58,0,0,1,149.63,139.14Z"/><path class="cls-1" d="M149.63,152.24a.57.57,0,0,1-1.14,0,.57.57,0,0,1,1.14,0Z"/><path class="cls-1" d="M149.63,165a.57.57,0,0,1-1.14,0,.57.57,0,0,1,1.14,0Z"/><path class="cls-1" d="M149.63,177.57a.57.57,0,0,1-1.14,0,.57.57,0,0,1,1.14,0Z"/><path class="cls-1" d="M149.63,190.41a.57.57,0,1,1-1.14,0,.57.57,0,0,1,1.14,0Z"/><path class="cls-1" d="M149.63,210a.57.57,0,1,1-1.14,0,.57.57,0,1,1,1.14,0Z"/><path class="cls-2" d="M65.07,24.24c-5.48-.13-6.74,4.06-7,6.07-.29-2-1.56-6.2-7-6.07-7.21.18-8.16,8.25-5.64,12.33a37.68,37.68,0,0,0,6.34,8c2.37,2.45,5.2,5.21,6.25,6.9,0,0,.06.2.09.15s.08-.15.08-.15c1.05-1.69,3.89-4.45,6.26-6.9a37.68,37.68,0,0,0,6.34-8C73.24,32.49,72.28,24.42,65.07,24.24Z"/><path class="cls-2" d="M65.07,100c-5.48-.13-6.74,4-7,6.07-.29-2-1.56-6.2-7-6.07-7.21.17-8.16,8.25-5.64,12.33a37.6,37.6,0,0,0,6.34,8c2.37,2.46,5.2,5.22,6.25,6.91,0,0,.06.2.09.14s.08-.14.08-.14c1.05-1.69,3.89-4.45,6.26-6.91a37.6,37.6,0,0,0,6.34-8C73.24,108.29,72.28,100.21,65.07,100Z"/><path class="cls-2" d="M65.07,203.22c-5.48.13-6.74-4.06-7-6.07-.29,2-1.56,6.2-7,6.07-7.21-.18-8.16-8.26-5.64-12.34a37.85,37.85,0,0,1,6.34-8c2.37-2.45,5.2-5.21,6.25-6.91,0,0,.06-.19.09-.14s.08.14.08.14c1.05,1.7,3.89,4.46,6.26,6.91a37.85,37.85,0,0,1,6.34,8C73.24,195,72.28,203,65.07,203.22Z"/><path class="cls-2" d="M116.83,24.24c-5.48-.13-6.75,4.06-7,6.07-.29-2-1.55-6.2-7-6.07-7.21.18-8.17,8.25-5.65,12.33a37.68,37.68,0,0,0,6.34,8c2.38,2.45,5.21,5.21,6.26,6.9,0,0,.05.2.08.15s.09-.15.09-.15c1.05-1.69,3.88-4.45,6.25-6.9a37.37,37.37,0,0,0,6.34-8C125,32.49,124,24.42,116.83,24.24Z"/><path class="cls-2" d="M116.83,100c-5.48-.13-6.75,4-7,6.07-.29-2-1.55-6.2-7-6.07-7.21.17-8.17,8.25-5.65,12.33a37.6,37.6,0,0,0,6.34,8c2.38,2.46,5.21,5.22,6.26,6.91,0,0,.05.2.08.14s.09-.14.09-.14c1.05-1.69,3.88-4.45,6.25-6.91a37.29,37.29,0,0,0,6.34-8C125,108.29,124,100.21,116.83,100Z"/><path class="cls-2" d="M116.83,203.22c-5.48.13-6.75-4.06-7-6.07-.29,2-1.55,6.2-7,6.07-7.21-.18-8.17-8.26-5.65-12.34a37.85,37.85,0,0,1,6.34-8c2.38-2.45,5.21-5.21,6.26-6.91,0,0,.05-.19.08-.14s.09.14.09.14c1.05,1.7,3.88,4.46,6.25,6.91a37.54,37.54,0,0,1,6.34,8C125,195,124,203,116.83,203.22Z"/><path class="cls-3" d="M14.62,24a5,5,0,0,1-1.49-2.22,10,10,0,0,1-.52-3.41A12.28,12.28,0,0,1,13,15.19a7,7,0,0,1,1.18-2.54,4.15,4.15,0,0,1,3.32-1.82,2.88,2.88,0,0,1,2.23.93,2.11,2.11,0,0,1,.42.78,2.81,2.81,0,0,1,.13.75,1.43,1.43,0,0,1-.49,1.11,1.19,1.19,0,0,1-.8.29.84.84,0,0,1-.7-.35.81.81,0,0,1-.12-.25,1.3,1.3,0,0,1,0-.31.9.9,0,0,1,.25-.59,2.73,2.73,0,0,1,.37-.32.63.63,0,0,0,.24-.25.56.56,0,0,0,.07-.3.74.74,0,0,0-.4-.61,2.27,2.27,0,0,0-1.21-.26,2.36,2.36,0,0,0-1.33.41,3.06,3.06,0,0,0-1.06,1.35,7.31,7.31,0,0,0-.5,1.81,11.43,11.43,0,0,0-.18,1.82v.88l.14.06a2.88,2.88,0,0,1,1.08-1.22,2.6,2.6,0,0,1,1.4-.47,3.67,3.67,0,0,1,2.2.64,3.52,3.52,0,0,1,1.16,1.46,4.86,4.86,0,0,1,.41,2,5.24,5.24,0,0,1-.47,2.11A4.53,4.53,0,0,1,19,24a3.42,3.42,0,0,1-2.13.69A3.46,3.46,0,0,1,14.62,24Zm3.94-1a6,6,0,0,0,.53-2.56,6.32,6.32,0,0,0-.46-2.59,1.62,1.62,0,0,0-1.56-1,1.86,1.86,0,0,0-1.22.45A3,3,0,0,0,15,18.52a5.08,5.08,0,0,0-.32,1.9,6.05,6.05,0,0,0,.5,2.65,1.72,1.72,0,0,0,1.67,1A1.79,1.79,0,0,0,18.56,23Z"/><path class="cls-3" d="M151,207.12a4.87,4.87,0,0,1,1.49,2.22,10.21,10.21,0,0,1,.52,3.4,12.22,12.22,0,0,1-.41,3.13,7,7,0,0,1-1.18,2.54,4.13,4.13,0,0,1-3.32,1.83,2.89,2.89,0,0,1-2.23-.94,2,2,0,0,1-.42-.77,3,3,0,0,1-.13-.76,1.44,1.44,0,0,1,.49-1.11,1.17,1.17,0,0,1,.79-.29.81.81,0,0,1,.7.35.7.7,0,0,1,.13.26,1.24,1.24,0,0,1,0,.31,1,1,0,0,1-.25.58,2.25,2.25,0,0,1-.37.33.61.61,0,0,0-.24.24.56.56,0,0,0-.07.3.74.74,0,0,0,.39.61,2.21,2.21,0,0,0,1.22.26,2.43,2.43,0,0,0,1.33-.4,3.1,3.1,0,0,0,1.06-1.36A7.19,7.19,0,0,0,151,216a11.26,11.26,0,0,0,.17-1.82v-.87l-.13-.06A2.91,2.91,0,0,1,150,214.5a2.54,2.54,0,0,1-1.41.48,3.73,3.73,0,0,1-2.19-.64,3.61,3.61,0,0,1-1.16-1.47,4.86,4.86,0,0,1-.41-2,5.08,5.08,0,0,1,.47-2.11,4.42,4.42,0,0,1,1.36-1.75,3.37,3.37,0,0,1,2.13-.7A3.42,3.42,0,0,1,151,207.12Zm-3.94,1a6,6,0,0,0-.53,2.56,6.3,6.3,0,0,0,.46,2.58,1.61,1.61,0,0,0,1.56,1,1.86,1.86,0,0,0,1.22-.45,3,3,0,0,0,.86-1.27,5.06,5.06,0,0,0,.32-1.89,6.14,6.14,0,0,0-.5-2.65,1.74,1.74,0,0,0-1.67-1A1.78,1.78,0,0,0,147.05,208.09Z"/><path class="cls-2" d="M20,30.26a2.26,2.26,0,0,0-2.44,2.11,2.26,2.26,0,0,0-2.44-2.11c-2.5.06-2.83,2.87-2,4.28a12.56,12.56,0,0,0,2.2,2.77,22.57,22.57,0,0,1,2.17,2.4s0,.07,0,0,0,0,0,0a20.56,20.56,0,0,1,2.17-2.4,13.18,13.18,0,0,0,2.2-2.77C22.81,33.13,22.48,30.32,20,30.26Z"/><path class="cls-2" d="M151.22,202.42a2.24,2.24,0,0,1-2.44-2.1,2.26,2.26,0,0,1-2.45,2.1c-2.5-.06-2.83-2.86-2-4.28a13.06,13.06,0,0,1,2.2-2.77,22.62,22.62,0,0,0,2.17-2.39s0-.07,0,0,0,0,0,0a21.32,21.32,0,0,0,2.16,2.39,13.06,13.06,0,0,1,2.2,2.77C154.05,199.56,153.72,202.36,151.22,202.42Z"/></g></g></svg>