<svg xmlns="http://www.w3.org/2000/svg" viewBox="0 0 166.36 232.9"><defs><style>.cls-1{fill:#fff;}.cls-2{fill:#151515;}</style></defs><g id="Layer_2" data-name="Layer 2"><g id="Objects"><rect class="cls-1" width="166.36" height="232.9" rx="5.94"/><path class="cls-1" d="M150.93,17.8a.56.56,0,0,1-.57.57.57.57,0,0,1-.57-.57.58.58,0,0,1,.57-.57A.57.57,0,0,1,150.93,17.8Z"/><path class="cls-1" d="M123.8,17.8a.57.57,0,1,1-.57-.57A.57.57,0,0,1,123.8,17.8Z"/><path class="cls-1" d="M98.85,17.8a.56.56,0,0,1-.57.57.57.57,0,0,1-.57-.57.58.58,0,0,1,.57-.57A.57.57,0,0,1,98.85,17.8Z"/><path class="cls-1" d="M73.8,18a.57.57,0,0,1-1.14,0,.57.57,0,1,1,1.14,0Z"/><path class="cls-1" d="M150.93,38.94a.56.56,0,0,1-.57.57.57.57,0,1,1,0-1.13A.56.56,0,0,1,150.93,38.94Z"/><path class="cls-1" d="M150.93,58.24a.57.57,0,0,1-.57.57.58.58,0,0,1-.57-.57.57.57,0,0,1,.57-.57A.56.56,0,0,1,150.93,58.24Z"/><path class="cls-1" d="M150.93,78.45a.56.56,0,0,1-.57.57.57.57,0,1,1,0-1.13A.56.56,0,0,1,150.93,78.45Z"/><path class="cls-1" d="M150.93,91.24a.57.57,0,0,1-.57.57.58.58,0,0,1-.57-.57.57.57,0,0,1,.57-.57A.56.56,0,0,1,150.93,91.24Z"/><path class="cls-1" d="M150.93,104.07a.57.57,0,0,1-.57.57.58.58,0,0,1-.57-.57.57.57,0,0,1,.57-.57A.56.56,0,0,1,150.93,104.07Z"/><path class="cls-1" d="M20.64,18.37a.57.57,0,0,1-.57.57.56.56,0,0,1-.57-.57.57.57,0,0,1,.57-.57A.58.58,0,0,1,20.64,18.37Z"/><path class="cls-1" d="M48.08,18a.58.58,0,0,1-.57.57.57.57,0,0,1-.57-.57.56.56,0,0,1,.57-.57A.57.57,0,0,1,48.08,18Z"/><path class="cls-1" d="M20.64,38.5a.58.58,0,0,1-.57.57.57.57,0,0,1-.57-.57.56.56,0,0,1,.57-.57A.57.57,0,0,1,20.64,38.5Z"/><path class="cls-1" d="M20.64,58.37a.58.58,0,0,1-.57.57.57.57,0,0,1-.57-.57.56.56,0,0,1,.57-.57A.57.57,0,0,1,20.64,58.37Z"/><path class="cls-1" d="M20.64,78.31a.57.57,0,0,1-.57.57.56.56,0,0,1-.57-.57.57.57,0,0,1,.57-.57A.58.58,0,0,1,20.64,78.31Z"/><path class="cls-1" d="M20.64,91.24a.58.58,0,0,1-.57.57.57.57,0,0,1-.57-.57.56.56,0,0,1,.57-.57A.57.57,0,0,1,20.64,91.24Z"/><path class="cls-1" d="M20.64,104.64a.57.57,0,0,1-.57.56.57.57,0,1,1,0-1.13A.57.57,0,0,1,20.64,104.64Z"/><path class="cls-1" d="M20.64,117.57a.58.58,0,0,1-.57.57.57.57,0,0,1-.57-.57.56.56,0,0,1,.57-.57A.57.57,0,0,1,20.64,117.57Z"/><path class="cls-1" d="M20.64,130.49a.57.57,0,0,1-.57.57.56.56,0,0,1-.57-.57.57.57,0,0,1,.57-.57A.58.58,0,0,1,20.64,130.49Z"/><path class="cls-1" d="M20.64,143.89a.58.58,0,0,1-.57.57.57.57,0,1,1,0-1.14A.58.58,0,0,1,20.64,143.89Z"/><path class="cls-1" d="M20.64,157.32a.58.58,0,0,1-.57.57.57.57,0,0,1-.57-.57.56.56,0,0,1,.57-.57A.57.57,0,0,1,20.64,157.32Z"/><path class="cls-1" d="M20.64,169.32a.58.58,0,0,1-.57.57.57.57,0,0,1-.57-.57.56.56,0,0,1,.57-.57A.57.57,0,0,1,20.64,169.32Z"/><path class="cls-1" d="M20.64,182.72a.58.58,0,0,1-.57.57.57.57,0,0,1-.57-.57.56.56,0,0,1,.57-.57A.57.57,0,0,1,20.64,182.72Z"/><path class="cls-1" d="M20.64,195.76a.57.57,0,0,1-.57.57.57.57,0,1,1,.57-.57Z"/><path class="cls-1" d="M20.87,215a.57.57,0,1,1-1.14,0,.57.57,0,0,1,1.14,0Z"/><path class="cls-1" d="M41.4,215.52a.58.58,0,0,1-.57.57.57.57,0,0,1-.57-.57.56.56,0,0,1,.57-.57A.57.57,0,0,1,41.4,215.52Z"/><path class="cls-1" d="M67.84,215.52a.57.57,0,1,1-.56-.57A.56.56,0,0,1,67.84,215.52Z"/><path class="cls-1" d="M94.25,215.52a.57.57,0,1,1-1.14,0,.57.57,0,0,1,1.14,0Z"/><path class="cls-1" d="M120,215.52a.57.57,0,0,1-.57.57.58.58,0,0,1-.57-.57.57.57,0,0,1,.57-.57A.56.56,0,0,1,120,215.52Z"/><path class="cls-1" d="M150.93,117.25a.56.56,0,0,1-.57.57.57.57,0,0,1-.57-.57.58.58,0,0,1,.57-.57A.57.57,0,0,1,150.93,117.25Z"/><path class="cls-1" d="M150.93,129.58a.57.57,0,0,1-.57.57.57.57,0,1,1,0-1.14A.57.57,0,0,1,150.93,129.58Z"/><path class="cls-1" d="M150.93,142.87a.56.56,0,0,1-.57.57.57.57,0,0,1-.57-.57.58.58,0,0,1,.57-.57A.57.57,0,0,1,150.93,142.87Z"/><path class="cls-1" d="M150.93,156a.56.56,0,0,1-.57.56.57.57,0,1,1,.57-.56Z"/><path class="cls-1" d="M150.93,168.73a.56.56,0,0,1-.57.57.57.57,0,0,1-.57-.57.58.58,0,0,1,.57-.57A.57.57,0,0,1,150.93,168.73Z"/><path class="cls-1" d="M150.93,181.31a.57.57,0,0,1-.57.57.58.58,0,0,1-.57-.57.57.57,0,0,1,.57-.57A.56.56,0,0,1,150.93,181.31Z"/><path class="cls-1" d="M150.93,194.14a.56.56,0,0,1-.57.57.57.57,0,1,1,0-1.13A.56.56,0,0,1,150.93,194.14Z"/><path class="cls-1" d="M150.93,213.72a.56.56,0,0,1-.57.56.57.57,0,1,1,.57-.56Z"/><path d="M15.52,22.2a3,3,0,0,1-1.22-1,2.57,2.57,0,0,1-.43-1.45,1.92,1.92,0,0,1,.47-1.39,1.43,1.43,0,0,1,1.08-.49,1.1,1.1,0,0,1,.83.32,1.13,1.13,0,0,1,.3.81,1,1,0,0,1-.19.61,1.21,1.21,0,0,1-.51.41,2.92,2.92,0,0,0-.43.28.46.46,0,0,0-.15.36,1.12,1.12,0,0,0,.48,1A2.89,2.89,0,0,0,17.4,22a2.17,2.17,0,0,0,2.08-1.24,6.78,6.78,0,0,0,.64-3.14,5.08,5.08,0,0,0-.62-2.74,2.24,2.24,0,0,0-2-.95,2.59,2.59,0,0,0-1,.17,2.46,2.46,0,0,0-.83.59,1.44,1.44,0,0,0-.32.51,1.49,1.49,0,0,0-.13.56.53.53,0,0,1-.11.34.34.34,0,0,1-.28.14c-.2,0-.31-.16-.31-.48V9L15,8.68a3.22,3.22,0,0,0,1.19.58,5.08,5.08,0,0,0,1.47.23,7.39,7.39,0,0,0,1.69-.17,5.73,5.73,0,0,0,1.55-.64l.23.27a5.31,5.31,0,0,1-1.72,1.47,4.45,4.45,0,0,1-2.16.55,5.87,5.87,0,0,1-1.15-.09,3.32,3.32,0,0,1-.83-.3v3.71l.12,0a3.15,3.15,0,0,1,1.13-.85,3.38,3.38,0,0,1,1.39-.3A4.11,4.11,0,0,1,21,14.39a4.43,4.43,0,0,1,1.14,3.18,5.13,5.13,0,0,1-.65,2.56,4.93,4.93,0,0,1-1.74,1.8,4.59,4.59,0,0,1-2.39.65A4.38,4.38,0,0,1,15.52,22.2Z"/><path d="M152.38,204.57a2.83,2.83,0,0,1,1.22,1A2.51,2.51,0,0,1,154,207a1.94,1.94,0,0,1-.47,1.4,1.47,1.47,0,0,1-1.08.49,1.1,1.1,0,0,1-.83-.32,1.16,1.16,0,0,1-.3-.81,1.12,1.12,0,0,1,.19-.61,1.16,1.16,0,0,1,.51-.42,2.3,2.3,0,0,0,.43-.27.47.47,0,0,0,.15-.37,1.13,1.13,0,0,0-.48-1,3,3,0,0,0-1.65-.35,2.19,2.19,0,0,0-2.08,1.24,6.82,6.82,0,0,0-.64,3.15,5.08,5.08,0,0,0,.62,2.74,2.24,2.24,0,0,0,2,.95,2.27,2.27,0,0,0,1.8-.76,1.69,1.69,0,0,0,.45-1.07.56.56,0,0,1,.11-.35.33.33,0,0,1,.28-.13c.21,0,.31.16.31.48v6.7l-.43.33a3.07,3.07,0,0,0-1.19-.58,5.06,5.06,0,0,0-1.47-.24,7.21,7.21,0,0,0-1.68.18,5.37,5.37,0,0,0-1.56.64l-.23-.27a5.41,5.41,0,0,1,1.72-1.47,4.45,4.45,0,0,1,2.16-.55,5.87,5.87,0,0,1,1.15.09,2.68,2.68,0,0,1,.83.3v-3.71l-.12,0a3.16,3.16,0,0,1-1.13.84,3.39,3.39,0,0,1-1.39.31,4.16,4.16,0,0,1-3.17-1.21,4.43,4.43,0,0,1-1.14-3.18,5.1,5.1,0,0,1,.65-2.56,4.85,4.85,0,0,1,1.74-1.8,4.59,4.59,0,0,1,2.39-.65A4.38,4.38,0,0,1,152.38,204.57Z"/><path class="cls-2" d="M69.34,34.16c-3.67-4-8-7.91-9.73-10-1.35-1.54-2.29-2.71-2.69-3.2v-.25a1,1,0,0,1-.1.13l-.09-.13V21c-.4.49-1.35,1.66-2.69,3.2-1.78,2.06-6.06,6-9.73,10A12.2,12.2,0,0,0,41,45.5c.7,3.33,4.17,6.45,9.64,5.77a6.11,6.11,0,0,0,3.88-2.06,12.66,12.66,0,0,1-3.16,7.15H62a13.54,13.54,0,0,1-2.87-7.13,6.07,6.07,0,0,0,3.86,2c5.47.68,8.94-2.44,9.64-5.77A12.2,12.2,0,0,0,69.34,34.16Z"/><path class="cls-2" d="M69.34,193.59c-3.67,4-8,7.91-9.73,10-1.35,1.54-2.29,2.71-2.69,3.2V207a1,1,0,0,0-.1-.13l-.09.13v-.25c-.4-.49-1.35-1.66-2.69-3.2-1.78-2.06-6.06-6-9.73-10A12.2,12.2,0,0,1,41,182.25c.7-3.33,4.17-6.45,9.64-5.77a6.16,6.16,0,0,1,3.88,2.06,12.66,12.66,0,0,0-3.16-7.15H62a13.54,13.54,0,0,0-2.87,7.13,6.07,6.07,0,0,1,3.86-2c5.47-.68,8.94,2.44,9.64,5.77A12.2,12.2,0,0,1,69.34,193.59Z"/><path class="cls-2" d="M123.87,34.16c-3.68-4-8-7.91-9.74-10-1.34-1.54-2.29-2.71-2.68-3.2v-.25a1,1,0,0,1-.1.13l-.1-.13V21c-.39.49-1.34,1.66-2.68,3.2-1.79,2.06-6.06,6-9.73,10A12.18,12.18,0,0,0,95.56,45.5c.69,3.33,4.17,6.45,9.63,5.77a6.11,6.11,0,0,0,3.89-2.06,12.74,12.74,0,0,1-3.16,7.15h10.6a13.54,13.54,0,0,1-2.87-7.13,6,6,0,0,0,3.86,2c5.46.68,8.94-2.44,9.64-5.77A12.23,12.23,0,0,0,123.87,34.16Z"/><path class="cls-2" d="M123.87,193.59c-3.68,4-8,7.91-9.74,10-1.34,1.54-2.29,2.71-2.68,3.2V207a1,1,0,0,0-.1-.13l-.1.13v-.25c-.39-.49-1.34-1.66-2.68-3.2-1.79-2.06-6.06-6-9.73-10a12.18,12.18,0,0,1-3.28-11.34c.69-3.33,4.17-6.45,9.63-5.77a6.16,6.16,0,0,1,3.89,2.06,12.74,12.74,0,0,0-3.16-7.15h10.6a13.54,13.54,0,0,0-2.87,7.13,6,6,0,0,1,3.86-2c5.46-.68,8.94,2.44,9.64,5.77A12.23,12.23,0,0,1,123.87,193.59Z"/><path class="cls-2" d="M96.14,110.74c-3.67-4-7.94-7.92-9.73-10-1.34-1.54-2.29-2.71-2.68-3.2v-.25l-.1.13a1,1,0,0,1-.1-.13v.25c-.39.49-1.34,1.66-2.68,3.2-1.79,2-6.06,6-9.74,10a12.23,12.23,0,0,0-3.28,11.34c.7,3.32,4.17,6.45,9.64,5.77a6.1,6.1,0,0,0,3.88-2.07,12.7,12.7,0,0,1-3.15,7.16H88.79a13.55,13.55,0,0,1-2.86-7.13,6.11,6.11,0,0,0,3.86,2c5.46.68,8.93-2.45,9.63-5.77A12.18,12.18,0,0,0,96.14,110.74Z"/><path class="cls-2" d="M153.82,196.34c-1.07,1.17-2.32,2.31-2.84,2.91-.39.45-.67.79-.78.93v.07l0,0,0,0v-.07c-.12-.14-.39-.48-.78-.93-.53-.6-1.77-1.74-2.84-2.91a3.55,3.55,0,0,1-1-3.31,2.37,2.37,0,0,1,2.81-1.68,1.74,1.74,0,0,1,1.13.6,3.74,3.74,0,0,0-.92-2.09h3.09a4,4,0,0,0-.83,2.08,1.77,1.77,0,0,1,1.12-.59,2.37,2.37,0,0,1,2.81,1.68A3.54,3.54,0,0,1,153.82,196.34Z"/><path class="cls-2" d="M23.5,30.19c-1.07-1.17-2.31-2.31-2.84-2.91-.39-.44-.66-.79-.78-.93v-.07l0,0,0,0v.07c-.11.14-.39.49-.78.93-.52.6-1.77,1.74-2.84,2.91a3.54,3.54,0,0,0-.95,3.31,2.37,2.37,0,0,0,2.81,1.68,1.76,1.76,0,0,0,1.13-.6,3.74,3.74,0,0,1-.92,2.09h3.09a4.09,4.09,0,0,1-.84-2.08,1.8,1.8,0,0,0,1.13.59,2.37,2.37,0,0,0,2.81-1.68A3.55,3.55,0,0,0,23.5,30.19Z"/></g></g></svg>