<svg xmlns="http://www.w3.org/2000/svg" viewBox="0 0 166.32 232.9"><defs><style>.cls-1{fill:#fff;}.cls-2{fill:#151515;}</style></defs><g id="Layer_2" data-name="Layer 2"><g id="Objects"><rect class="cls-1" width="166.32" height="232.9" rx="5.94"/><path d="M14,24h1.86a.62.62,0,0,0,.42-.12.54.54,0,0,0,.12-.39V14H14v-.69h1.06a2.48,2.48,0,0,0,1.7-.57,2.41,2.41,0,0,0,.81-1.36h.62V23.49a.54.54,0,0,0,.12.39.62.62,0,0,0,.42.12h1.86v.62H14Z"/><path d="M26.09,23.94a6.49,6.49,0,0,1-1.65-2.59,9.76,9.76,0,0,1,0-6.74A6.56,6.56,0,0,1,26.09,12,3.5,3.5,0,0,1,31,12a6.49,6.49,0,0,1,1.67,2.59,9.76,9.76,0,0,1,0,6.74A6.42,6.42,0,0,1,31,23.94a3.5,3.5,0,0,1-4.88,0Zm4.57-1.46a16.46,16.46,0,0,0,.52-4.5,16.56,16.56,0,0,0-.52-4.5,2.15,2.15,0,0,0-4.25,0A16.93,16.93,0,0,0,25.9,18a16.93,16.93,0,0,0,.51,4.51,2.15,2.15,0,0,0,4.25,0Z"/><path d="M152.79,207.5h-1.86a.62.62,0,0,0-.42.11.54.54,0,0,0-.12.39v9.53h2.4v.7h-1.06a2.52,2.52,0,0,0-1.7.56,2.39,2.39,0,0,0-.81,1.36h-.62V208a.54.54,0,0,0-.12-.39.62.62,0,0,0-.42-.11H146.2v-.63h6.59Z"/><path d="M140.69,207.55a6.53,6.53,0,0,1,1.65,2.6,9.74,9.74,0,0,1,0,6.73,6.49,6.49,0,0,1-1.65,2.59,3.51,3.51,0,0,1-4.89,0,6.51,6.51,0,0,1-1.66-2.59,9.74,9.74,0,0,1,0-6.73,6.55,6.55,0,0,1,1.66-2.6,3.51,3.51,0,0,1,4.89,0ZM136.12,209a19.77,19.77,0,0,0,0,9,2.14,2.14,0,0,0,4.24,0,19.82,19.82,0,0,0,0-9,2.15,2.15,0,0,0-4.24,0Z"/><path class="cls-2" d="M95.53,65.63c-3.63-4-7.85-7.82-9.62-9.85-1.33-1.53-2.26-2.68-2.65-3.17v-.24l-.1.12-.1-.12v.24c-.38.49-1.32,1.64-2.65,3.17-1.77,2-6,5.89-9.62,9.85a12.06,12.06,0,0,0-3.24,11.21c.69,3.29,4.12,6.38,9.52,5.7a6,6,0,0,0,3.84-2,12.58,12.58,0,0,1-3.12,7.08H88.26a13.5,13.5,0,0,1-2.83-7,6,6,0,0,0,3.82,2c5.4.68,8.83-2.41,9.52-5.7A12.06,12.06,0,0,0,95.53,65.63Z"/><path class="cls-2" d="M64,40.39c-3.64-4-7.86-7.83-9.63-9.86-1.32-1.52-2.26-2.67-2.65-3.16v-.24l-.09.12-.1-.12v.24c-.39.49-1.33,1.64-2.65,3.16-1.77,2-6,5.9-9.62,9.86A12,12,0,0,0,36,51.6c.68,3.29,4.12,6.38,9.52,5.7a6,6,0,0,0,3.84-2,12.57,12.57,0,0,1-3.12,7.07H56.73a13.36,13.36,0,0,1-2.83-7,6,6,0,0,0,3.81,2c5.4.68,8.84-2.41,9.53-5.7A12.08,12.08,0,0,0,64,40.39Z"/><path class="cls-2" d="M64,91c-3.64-4-7.86-7.83-9.63-9.86-1.32-1.52-2.26-2.68-2.65-3.16v-.25l-.09.12-.1-.12v.25c-.39.48-1.33,1.64-2.65,3.16-1.77,2-6,5.89-9.62,9.86A12,12,0,0,0,36,102.17c.68,3.28,4.12,6.37,9.52,5.7a6.06,6.06,0,0,0,3.84-2,12.57,12.57,0,0,1-3.12,7.07H56.73a13.39,13.39,0,0,1-2.83-7.05,6,6,0,0,0,3.81,2c5.4.67,8.84-2.42,9.53-5.7A12.08,12.08,0,0,0,64,91Z"/><path class="cls-2" d="M64,200.76c-3.64,4-7.86,7.83-9.63,9.86-1.32,1.52-2.26,2.68-2.65,3.16V214l-.09-.13a1,1,0,0,0-.1.13v-.25c-.39-.48-1.33-1.64-2.65-3.16-1.77-2-6-5.89-9.62-9.86A12,12,0,0,1,36,189.55c.68-3.28,4.12-6.37,9.52-5.7a6.06,6.06,0,0,1,3.84,2,12.57,12.57,0,0,0-3.12-7.07H56.73a13.39,13.39,0,0,0-2.83,7.05,6,6,0,0,1,3.81-2c5.4-.67,8.84,2.42,9.53,5.7A12.08,12.08,0,0,1,64,200.76Z"/><path class="cls-2" d="M128,40.39c-3.63-4-7.86-7.83-9.62-9.86-1.33-1.52-2.27-2.67-2.65-3.16v-.24l-.1.12-.1-.12v.24c-.39.49-1.33,1.64-2.65,3.16-1.77,2-6,5.9-9.62,9.86A12.06,12.06,0,0,0,100,51.6c.69,3.29,4.12,6.38,9.52,5.7a6,6,0,0,0,3.84-2,12.57,12.57,0,0,1-3.12,7.07H120.7a13.36,13.36,0,0,1-2.83-7,6,6,0,0,0,3.81,2c5.4.68,8.84-2.41,9.53-5.7A12.08,12.08,0,0,0,128,40.39Z"/><path class="cls-2" d="M128,91c-3.63-4-7.86-7.83-9.62-9.86-1.33-1.52-2.27-2.68-2.65-3.16v-.25l-.1.12-.1-.12v.25c-.39.48-1.33,1.64-2.65,3.16-1.77,2-6,5.89-9.62,9.86A12.05,12.05,0,0,0,100,102.17c.69,3.28,4.12,6.37,9.52,5.7a6,6,0,0,0,3.84-2,12.57,12.57,0,0,1-3.12,7.07H120.7a13.39,13.39,0,0,1-2.83-7.05,6,6,0,0,0,3.81,2c5.4.67,8.84-2.42,9.53-5.7A12.08,12.08,0,0,0,128,91Z"/><path class="cls-2" d="M128,200.76c-3.63,4-7.86,7.83-9.62,9.86-1.33,1.52-2.27,2.68-2.65,3.16V214l-.1-.13a1,1,0,0,0-.1.13v-.25c-.39-.48-1.33-1.64-2.65-3.16-1.77-2-6-5.89-9.62-9.86A12.05,12.05,0,0,1,100,189.55c.69-3.28,4.12-6.37,9.52-5.7a6,6,0,0,1,3.84,2,12.57,12.57,0,0,0-3.12-7.07H120.7a13.39,13.39,0,0,0-2.83,7.05,6,6,0,0,1,3.81-2c5.4-.67,8.84,2.42,9.53,5.7A12.08,12.08,0,0,1,128,200.76Z"/><path class="cls-2" d="M64,150.2c-3.64,4-7.86,7.83-9.63,9.85-1.32,1.53-2.26,2.68-2.65,3.17v.24l-.09-.12-.1.12v-.24c-.39-.49-1.33-1.64-2.65-3.17-1.77-2-6-5.89-9.62-9.85A12,12,0,0,1,36,139c.68-3.29,4.12-6.38,9.52-5.7a6,6,0,0,1,3.84,2,12.57,12.57,0,0,0-3.12-7.07H56.73a13.36,13.36,0,0,0-2.83,7,6,6,0,0,1,3.81-2c5.4-.68,8.84,2.41,9.53,5.7A12.08,12.08,0,0,1,64,150.2Z"/><path class="cls-2" d="M128,150.2c-3.63,4-7.86,7.83-9.62,9.85-1.33,1.53-2.27,2.68-2.65,3.17v.24l-.1-.12-.1.12v-.24c-.39-.49-1.33-1.64-2.65-3.17-1.77-2-6-5.89-9.62-9.85A12.06,12.06,0,0,1,100,139c.69-3.29,4.12-6.38,9.52-5.7a6,6,0,0,1,3.84,2,12.57,12.57,0,0,0-3.12-7.07H120.7a13.36,13.36,0,0,0-2.83,7,6,6,0,0,1,3.81-2c5.4-.68,8.84,2.41,9.53,5.7A12.08,12.08,0,0,1,128,150.2Z"/><path class="cls-2" d="M95.53,174.12c-3.63,4-7.85,7.83-9.62,9.86-1.33,1.52-2.26,2.68-2.65,3.16v.25l-.1-.12-.1.12v-.25c-.38-.48-1.32-1.64-2.65-3.16-1.77-2-6-5.89-9.62-9.86a12.05,12.05,0,0,1-3.24-11.21c.69-3.28,4.12-6.37,9.52-5.7a6.06,6.06,0,0,1,3.84,2,12.57,12.57,0,0,0-3.12-7.07H88.26a13.47,13.47,0,0,0-2.83,7,6,6,0,0,1,3.82-2c5.4-.67,8.83,2.42,9.52,5.7A12.05,12.05,0,0,1,95.53,174.12Z"/><path class="cls-2" d="M26.1,32.55c-1.07-1.17-2.31-2.31-2.84-2.91s-.66-.79-.78-.93v-.08l0,0,0,0v.08c-.11.14-.39.48-.78.93s-1.77,1.74-2.84,2.91a3.54,3.54,0,0,0-.95,3.31,2.37,2.37,0,0,0,2.81,1.68,1.76,1.76,0,0,0,1.13-.6A3.69,3.69,0,0,1,20.87,39H24a4,4,0,0,1-.84-2.08,1.76,1.76,0,0,0,1.13.6,2.37,2.37,0,0,0,2.81-1.68A3.58,3.58,0,0,0,26.1,32.55Z"/><path class="cls-2" d="M147.15,198.69c-1.07,1.17-2.32,2.31-2.84,2.91s-.67.79-.78.93v.08l0,0,0,0v-.08c-.12-.14-.39-.48-.78-.93s-1.77-1.74-2.84-2.91a3.57,3.57,0,0,1-1-3.3,2.38,2.38,0,0,1,2.81-1.69,1.83,1.83,0,0,1,1.13.6,3.61,3.61,0,0,0-.92-2.08H145a4,4,0,0,0-.83,2.08,1.78,1.78,0,0,1,1.12-.6,2.37,2.37,0,0,1,2.81,1.69A3.53,3.53,0,0,1,147.15,198.69Z"/><path class="cls-1" d="M149.59,6.3a.56.56,0,0,1-.57.57.57.57,0,0,1-.57-.57.58.58,0,0,1,.57-.57A.57.57,0,0,1,149.59,6.3Z"/><path class="cls-1" d="M122.47,6.3a.57.57,0,0,1-1.14,0,.57.57,0,0,1,1.14,0Z"/><path class="cls-1" d="M97.52,6.3a.56.56,0,0,1-.57.57.57.57,0,0,1-.57-.57A.58.58,0,0,1,97,5.73.57.57,0,0,1,97.52,6.3Z"/><path class="cls-1" d="M72.47,6.49a.57.57,0,1,1-.56-.57A.56.56,0,0,1,72.47,6.49Z"/><path class="cls-1" d="M149.59,27.44A.56.56,0,0,1,149,28a.57.57,0,0,1-.57-.57.58.58,0,0,1,.57-.57A.57.57,0,0,1,149.59,27.44Z"/><path class="cls-1" d="M149.59,46.74a.56.56,0,0,1-.57.56.57.57,0,1,1,.57-.56Z"/><path class="cls-1" d="M149.59,67a.56.56,0,0,1-.57.57.57.57,0,0,1-.57-.57.58.58,0,0,1,.57-.57A.57.57,0,0,1,149.59,67Z"/><path class="cls-1" d="M149.59,79.74a.56.56,0,0,1-.57.56.57.57,0,1,1,.57-.56Z"/><path class="cls-1" d="M149.59,92.57a.56.56,0,0,1-.57.56.57.57,0,1,1,.57-.56Z"/><path class="cls-1" d="M19.32,6.87a.57.57,0,1,1-.56-.57A.57.57,0,0,1,19.32,6.87Z"/><path class="cls-1" d="M46.76,6.49a.57.57,0,0,1-.57.56.57.57,0,1,1,0-1.13A.57.57,0,0,1,46.76,6.49Z"/><path class="cls-1" d="M19.32,27a.57.57,0,1,1-.56-.56A.56.56,0,0,1,19.32,27Z"/><path class="cls-1" d="M19.32,46.87a.57.57,0,1,1-.56-.57A.56.56,0,0,1,19.32,46.87Z"/><path class="cls-1" d="M19.32,66.81a.57.57,0,1,1-1.13,0,.57.57,0,1,1,1.13,0Z"/><path class="cls-1" d="M19.32,79.74a.57.57,0,1,1-.56-.57A.56.56,0,0,1,19.32,79.74Z"/><path class="cls-1" d="M19.32,93.13a.57.57,0,1,1-.56-.56A.56.56,0,0,1,19.32,93.13Z"/><path class="cls-1" d="M19.32,106.07a.57.57,0,1,1-.56-.57A.56.56,0,0,1,19.32,106.07Z"/><path class="cls-1" d="M19.32,119a.57.57,0,1,1-.56-.57A.57.57,0,0,1,19.32,119Z"/><path class="cls-1" d="M19.32,132.39a.57.57,0,1,1-.56-.57A.56.56,0,0,1,19.32,132.39Z"/><path class="cls-1" d="M19.32,145.82a.57.57,0,1,1-.56-.57A.56.56,0,0,1,19.32,145.82Z"/><path class="cls-1" d="M19.32,157.82a.57.57,0,1,1-.56-.57A.56.56,0,0,1,19.32,157.82Z"/><path class="cls-1" d="M19.32,171.21a.57.57,0,1,1-.56-.56A.56.56,0,0,1,19.32,171.21Z"/><path class="cls-1" d="M19.32,184.26a.57.57,0,1,1-1.13,0,.57.57,0,1,1,1.13,0Z"/><path class="cls-1" d="M19.56,203.45A.58.58,0,0,1,19,204a.57.57,0,0,1-.57-.57.56.56,0,0,1,.57-.57A.57.57,0,0,1,19.56,203.45Z"/><path class="cls-1" d="M40.08,204a.58.58,0,0,1-.57.57.57.57,0,0,1-.57-.57.56.56,0,0,1,.57-.57A.57.57,0,0,1,40.08,204Z"/><path class="cls-1" d="M66.52,204a.57.57,0,0,1-.57.57.58.58,0,0,1-.57-.57.57.57,0,0,1,.57-.57A.56.56,0,0,1,66.52,204Z"/><path class="cls-1" d="M92.92,204a.57.57,0,0,1-.57.57.58.58,0,0,1-.57-.57.57.57,0,0,1,.57-.57A.56.56,0,0,1,92.92,204Z"/><path class="cls-1" d="M118.64,204a.58.58,0,0,1-.57.57.57.57,0,0,1-.57-.57.56.56,0,0,1,.57-.57A.57.57,0,0,1,118.64,204Z"/><path class="cls-1" d="M149.59,105.75a.57.57,0,0,1-.57.57.58.58,0,0,1-.57-.57.57.57,0,0,1,.57-.57A.56.56,0,0,1,149.59,105.75Z"/><path class="cls-1" d="M149.59,118.08a.57.57,0,0,1-.57.57.58.58,0,0,1-.57-.57.57.57,0,0,1,.57-.57A.56.56,0,0,1,149.59,118.08Z"/><path class="cls-1" d="M149.59,131.37a.57.57,0,0,1-.57.57.57.57,0,1,1,0-1.14A.57.57,0,0,1,149.59,131.37Z"/><path class="cls-1" d="M149.59,144.47a.56.56,0,0,1-.57.57.57.57,0,0,1-.57-.57.58.58,0,0,1,.57-.57A.57.57,0,0,1,149.59,144.47Z"/><path class="cls-1" d="M149.59,157.23a.57.57,0,0,1-.57.57.57.57,0,0,1,0-1.14A.57.57,0,0,1,149.59,157.23Z"/><path class="cls-1" d="M149.59,169.8a.56.56,0,0,1-.57.57.57.57,0,1,1,0-1.13A.56.56,0,0,1,149.59,169.8Z"/><circle class="cls-1" cx="149.02" cy="182.64" r="0.57"/><path class="cls-1" d="M149.59,202.21a.56.56,0,0,1-.57.57.57.57,0,0,1-.57-.57.58.58,0,0,1,.57-.57A.57.57,0,0,1,149.59,202.21Z"/></g></g></svg>