<svg xmlns="http://www.w3.org/2000/svg" viewBox="0 0 160.31 232.87"><defs><style>.cls-1{fill:#fff;}.cls-2{fill:#151515;}</style></defs><g id="Layer_2" data-name="Layer 2"><g id="Objects"><path class="cls-1" d="M154.59,232.87H5.72A5.83,5.83,0,0,1,0,226.93V5.94A5.83,5.83,0,0,1,5.72,0H154.59a5.83,5.83,0,0,1,5.72,5.94v221A5.83,5.83,0,0,1,154.59,232.87Z"/><path class="cls-1" d="M160,31a.58.58,0,0,1-.57.57.57.57,0,0,1-.57-.57.56.56,0,0,1,.57-.57A.57.57,0,0,1,160,31Z"/><path class="cls-1" d="M132.91,31a.57.57,0,0,1-1.14,0,.57.57,0,1,1,1.14,0Z"/><path class="cls-1" d="M108,31a.57.57,0,1,1-.56-.57A.56.56,0,0,1,108,31Z"/><path class="cls-1" d="M82.9,31.14a.57.57,0,1,1-.57-.57A.57.57,0,0,1,82.9,31.14Z"/><path class="cls-1" d="M160,52.1a.58.58,0,0,1-.57.57.57.57,0,1,1,0-1.14A.58.58,0,0,1,160,52.1Z"/><path class="cls-1" d="M160,71.39a.57.57,0,0,1-.57.57.56.56,0,0,1-.57-.57.57.57,0,0,1,.57-.57A.58.58,0,0,1,160,71.39Z"/><path class="cls-1" d="M160,91.61a.58.58,0,0,1-.57.57.57.57,0,0,1,0-1.14A.58.58,0,0,1,160,91.61Z"/><path class="cls-1" d="M160,104.39a.57.57,0,0,1-.57.57.56.56,0,0,1-.57-.57.57.57,0,0,1,.57-.57A.58.58,0,0,1,160,104.39Z"/><path class="cls-1" d="M160,117.22a.57.57,0,0,1-.57.57.56.56,0,0,1-.57-.57.57.57,0,0,1,.57-.57A.58.58,0,0,1,160,117.22Z"/><path class="cls-1" d="M29.74,31.53a.57.57,0,1,1-1.13,0,.57.57,0,1,1,1.13,0Z"/><path class="cls-1" d="M57.18,31.14a.56.56,0,0,1-.57.57.57.57,0,0,1-.57-.57.58.58,0,0,1,.57-.57A.57.57,0,0,1,57.18,31.14Z"/><path class="cls-1" d="M29.74,51.65a.57.57,0,1,1-.57-.57A.57.57,0,0,1,29.74,51.65Z"/><path class="cls-1" d="M29.74,71.52a.57.57,0,1,1-.57-.56A.56.56,0,0,1,29.74,71.52Z"/><path class="cls-1" d="M29.74,91.47a.57.57,0,1,1-1.13,0,.57.57,0,1,1,1.13,0Z"/><path class="cls-1" d="M29.74,104.39a.57.57,0,1,1-.57-.57A.57.57,0,0,1,29.74,104.39Z"/><path class="cls-1" d="M29.74,117.79a.57.57,0,1,1-.57-.57A.57.57,0,0,1,29.74,117.79Z"/><path class="cls-1" d="M29.74,130.72a.57.57,0,1,1-.57-.57A.57.57,0,0,1,29.74,130.72Z"/><path class="cls-1" d="M29.74,143.65a.57.57,0,1,1-1.13,0,.57.57,0,1,1,1.13,0Z"/><path class="cls-1" d="M29.74,157.05a.57.57,0,1,1-.57-.57A.56.56,0,0,1,29.74,157.05Z"/><path class="cls-1" d="M29.74,170.47a.57.57,0,1,1-.57-.57A.57.57,0,0,1,29.74,170.47Z"/><path class="cls-1" d="M29.74,182.47a.57.57,0,1,1-.57-.57A.57.57,0,0,1,29.74,182.47Z"/><path class="cls-1" d="M29.74,195.87a.57.57,0,1,1-.57-.57A.57.57,0,0,1,29.74,195.87Z"/><path class="cls-1" d="M29.74,208.92a.57.57,0,1,1-.57-.57A.57.57,0,0,1,29.74,208.92Z"/><path class="cls-1" d="M30,228.1a.57.57,0,1,1-.56-.56A.56.56,0,0,1,30,228.1Z"/><path class="cls-1" d="M50.5,228.67a.56.56,0,0,1-.57.57.57.57,0,0,1-.57-.57.58.58,0,0,1,.57-.57A.57.57,0,0,1,50.5,228.67Z"/><path class="cls-1" d="M77,228.67a.56.56,0,0,1-.57.57.57.57,0,0,1-.57-.57.58.58,0,0,1,.57-.57A.57.57,0,0,1,77,228.67Z"/><path class="cls-1" d="M103.35,228.67a.57.57,0,1,1-1.13,0,.57.57,0,1,1,1.13,0Z"/><path class="cls-1" d="M129.08,228.67a.57.57,0,0,1-.57.57.56.56,0,0,1-.57-.57.57.57,0,0,1,.57-.57A.58.58,0,0,1,129.08,228.67Z"/><path class="cls-1" d="M160,130.41a.58.58,0,0,1-.57.57.57.57,0,0,1-.57-.57.56.56,0,0,1,.57-.57A.57.57,0,0,1,160,130.41Z"/><path class="cls-1" d="M160,142.74a.57.57,0,0,1-.57.56.57.57,0,1,1,0-1.13A.57.57,0,0,1,160,142.74Z"/><path class="cls-1" d="M160,156a.58.58,0,0,1-.57.57.57.57,0,0,1-.57-.57.56.56,0,0,1,.57-.57A.57.57,0,0,1,160,156Z"/><path class="cls-1" d="M160,169.13a.57.57,0,0,1-.57.57.56.56,0,0,1-.57-.57.57.57,0,0,1,.57-.57A.58.58,0,0,1,160,169.13Z"/><path class="cls-1" d="M160,181.89a.58.58,0,0,1-.57.57.57.57,0,0,1-.57-.57.56.56,0,0,1,.57-.57A.57.57,0,0,1,160,181.89Z"/><path class="cls-1" d="M160,194.46a.57.57,0,0,1-.57.57.56.56,0,0,1-.57-.57.57.57,0,0,1,.57-.57A.58.58,0,0,1,160,194.46Z"/><path class="cls-1" d="M160,207.3a.58.58,0,0,1-.57.57.57.57,0,0,1,0-1.14A.58.58,0,0,1,160,207.3Z"/><path class="cls-1" d="M160,226.87a.58.58,0,0,1-.57.57.57.57,0,0,1,0-1.14A.58.58,0,0,1,160,226.87Z"/><path d="M11.4,27a4.85,4.85,0,0,1-1.48-2.22,10,10,0,0,1-.53-3.4A12.22,12.22,0,0,1,9.8,18.2,7.21,7.21,0,0,1,11,15.66a4.15,4.15,0,0,1,3.32-1.83,2.91,2.91,0,0,1,2.24.94,2.13,2.13,0,0,1,.41.77,2.57,2.57,0,0,1,.13.76,1.41,1.41,0,0,1-.49,1.11,1.17,1.17,0,0,1-.79.29.82.82,0,0,1-.7-.35A.75.75,0,0,1,15,17.1a1.39,1.39,0,0,1,0-.32.91.91,0,0,1,.26-.58,1.91,1.91,0,0,1,.37-.33.91.91,0,0,0,.24-.24.66.66,0,0,0,.07-.3.75.75,0,0,0-.4-.61,2.21,2.21,0,0,0-1.22-.26,2.37,2.37,0,0,0-1.32.4,3,3,0,0,0-1.06,1.36A7.16,7.16,0,0,0,11.37,18a12.53,12.53,0,0,0-.17,1.82v.87l.13.06a3.05,3.05,0,0,1,1.08-1.21,2.57,2.57,0,0,1,1.41-.48,3.62,3.62,0,0,1,2.19.65,3.54,3.54,0,0,1,1.17,1.46,4.82,4.82,0,0,1,.4,2,5.22,5.22,0,0,1-.46,2.11A4.45,4.45,0,0,1,15.75,27a3.35,3.35,0,0,1-2.13.7A3.42,3.42,0,0,1,11.4,27Zm3.94-1a5.83,5.83,0,0,0,.54-2.56,6.29,6.29,0,0,0-.47-2.58,1.6,1.6,0,0,0-1.55-1,1.89,1.89,0,0,0-1.23.45,3,3,0,0,0-.86,1.27,5.27,5.27,0,0,0-.32,1.89A6,6,0,0,0,12,26.07a1.72,1.72,0,0,0,1.66,1A1.77,1.77,0,0,0,15.34,26Z"/><path d="M147.78,210.12a4.94,4.94,0,0,1,1.48,2.23,9.92,9.92,0,0,1,.52,3.4,12.27,12.27,0,0,1-.4,3.13,7.21,7.21,0,0,1-1.19,2.54,4.13,4.13,0,0,1-3.32,1.82,2.88,2.88,0,0,1-2.23-.93,2.32,2.32,0,0,1-.42-.77,2.89,2.89,0,0,1-.12-.76,1.43,1.43,0,0,1,.48-1.11,1.19,1.19,0,0,1,.8-.29.82.82,0,0,1,.7.35.7.7,0,0,1,.12.25,1.3,1.3,0,0,1,0,.31.9.9,0,0,1-.25.59,2.73,2.73,0,0,1-.37.32.8.8,0,0,0-.24.25.66.66,0,0,0-.07.3.76.76,0,0,0,.4.61,2.18,2.18,0,0,0,1.21.26,2.34,2.34,0,0,0,1.33-.41,3,3,0,0,0,1.06-1.35,6.79,6.79,0,0,0,.5-1.81,11.43,11.43,0,0,0,.18-1.82v-.88l-.14-.06a2.92,2.92,0,0,1-1.07,1.22,2.66,2.66,0,0,1-1.41.47,3.62,3.62,0,0,1-2.19-.64,3.46,3.46,0,0,1-1.17-1.46,4.86,4.86,0,0,1-.41-2,5.24,5.24,0,0,1,.47-2.11,4.45,4.45,0,0,1,1.37-1.75,3.34,3.34,0,0,1,2.12-.7A3.51,3.51,0,0,1,147.78,210.12Zm-3.94,1a5.88,5.88,0,0,0-.54,2.57,6.29,6.29,0,0,0,.47,2.58,1.6,1.6,0,0,0,1.55,1,1.86,1.86,0,0,0,1.22-.45,3,3,0,0,0,.87-1.27,5.27,5.27,0,0,0,.32-1.89,6,6,0,0,0-.51-2.65,1.71,1.71,0,0,0-1.67-1A1.77,1.77,0,0,0,143.84,211.09Z"/><path class="cls-2" d="M63.06,39.65c-3.68-4-8-7.92-9.73-10C52,28.14,51,27,50.64,26.48v-.25l-.1.12-.1-.12v.25c-.39.49-1.34,1.66-2.68,3.2-1.79,2.05-6.06,6-9.73,10A12.2,12.2,0,0,0,34.75,51c.7,3.32,4.17,6.45,9.64,5.77a6.12,6.12,0,0,0,3.88-2.07,12.74,12.74,0,0,1-3.16,7.16h10.6a13.6,13.6,0,0,1-2.87-7.13,6.16,6.16,0,0,0,3.86,2c5.47.68,8.94-2.45,9.64-5.77A12.2,12.2,0,0,0,63.06,39.65Z"/><path class="cls-2" d="M63.06,116.22c-3.68-4-8-7.91-9.73-10-1.35-1.54-2.3-2.71-2.69-3.19v-.25l-.1.12-.1-.12v.25c-.39.48-1.34,1.65-2.68,3.19-1.79,2.06-6.06,6-9.73,10a12.2,12.2,0,0,0-3.28,11.34c.7,3.33,4.17,6.46,9.64,5.77a6.11,6.11,0,0,0,3.88-2.06,12.74,12.74,0,0,1-3.16,7.15h10.6a13.54,13.54,0,0,1-2.87-7.12,6.1,6.1,0,0,0,3.86,2c5.47.69,8.94-2.44,9.64-5.77A12.2,12.2,0,0,0,63.06,116.22Z"/><path class="cls-2" d="M63.06,199.07c-3.68,4-8,7.92-9.73,10-1.35,1.54-2.3,2.71-2.69,3.2v.25l-.1-.12-.1.12v-.25c-.39-.49-1.34-1.66-2.68-3.2-1.79-2-6.06-6-9.73-10a12.2,12.2,0,0,1-3.28-11.34c.7-3.32,4.17-6.45,9.64-5.77A6.12,6.12,0,0,1,48.27,184a12.74,12.74,0,0,0-3.16-7.16h10.6A13.6,13.6,0,0,0,52.84,184a6.16,6.16,0,0,1,3.86-2c5.47-.68,8.94,2.45,9.64,5.77A12.2,12.2,0,0,1,63.06,199.07Z"/><path class="cls-2" d="M123.13,39.65c-3.67-4-7.94-7.92-9.73-10-1.34-1.54-2.29-2.71-2.68-3.2v-.25l-.1.12-.1-.12v.25c-.39.49-1.34,1.66-2.68,3.2-1.79,2.05-6.06,6-9.74,10A12.22,12.22,0,0,0,94.82,51c.7,3.32,4.18,6.45,9.64,5.77a6.1,6.1,0,0,0,3.88-2.07,12.7,12.7,0,0,1-3.15,7.16h10.59a13.58,13.58,0,0,1-2.86-7.13,6.13,6.13,0,0,0,3.86,2c5.46.68,8.94-2.45,9.63-5.77A12.17,12.17,0,0,0,123.13,39.65Z"/><path class="cls-2" d="M123.13,116.22c-3.67-4-7.94-7.91-9.73-10-1.34-1.54-2.29-2.71-2.68-3.19v-.25l-.1.12-.1-.12v.25c-.39.48-1.34,1.65-2.68,3.19-1.79,2.06-6.06,6-9.74,10a12.23,12.23,0,0,0-3.28,11.34c.7,3.33,4.18,6.46,9.64,5.77a6.09,6.09,0,0,0,3.88-2.06,12.69,12.69,0,0,1-3.15,7.15h10.59a13.52,13.52,0,0,1-2.86-7.12,6.08,6.08,0,0,0,3.86,2c5.46.69,8.94-2.44,9.63-5.77A12.18,12.18,0,0,0,123.13,116.22Z"/><path class="cls-2" d="M123.13,199.07c-3.67,4-7.94,7.92-9.73,10-1.34,1.54-2.29,2.71-2.68,3.2v.25l-.1-.12-.1.12v-.25c-.39-.49-1.34-1.66-2.68-3.2-1.79-2-6.06-6-9.74-10a12.22,12.22,0,0,1-3.28-11.34c.7-3.32,4.18-6.45,9.64-5.77a6.1,6.1,0,0,1,3.88,2.07,12.7,12.7,0,0,0-3.15-7.16h10.59a13.58,13.58,0,0,0-2.86,7.13,6.13,6.13,0,0,1,3.86-2c5.46-.68,8.94,2.45,9.63,5.77A12.17,12.17,0,0,1,123.13,199.07Z"/><path class="cls-2" d="M148.4,201.49c-1.07,1.17-2.32,2.31-2.84,2.91-.39.45-.67.79-.78.93v.08l0,0,0,0v-.08c-.11-.14-.39-.48-.78-.93-.52-.6-1.77-1.74-2.84-2.91a3.56,3.56,0,0,1-1-3.3A2.38,2.38,0,0,1,143,196.5a1.84,1.84,0,0,1,1.14.61,3.67,3.67,0,0,0-.93-2.09h3.1a3.89,3.89,0,0,0-.84,2.08,1.81,1.81,0,0,1,1.13-.6,2.39,2.39,0,0,1,2.81,1.69A3.56,3.56,0,0,1,148.4,201.49Z"/><path class="cls-2" d="M18.09,35.35C17,34.18,15.77,33,15.25,32.44l-.79-.93v-.08l0,0,0,0v.08c-.12.14-.39.48-.79.93s-1.76,1.74-2.83,2.91a3.55,3.55,0,0,0-1,3.31,2.37,2.37,0,0,0,2.81,1.68,1.74,1.74,0,0,0,1.13-.6,3.69,3.69,0,0,1-.92,2.08h3.09a4,4,0,0,1-.83-2.08,1.74,1.74,0,0,0,1.12.6A2.37,2.37,0,0,0,19,38.66,3.54,3.54,0,0,0,18.09,35.35Z"/></g></g></svg>