<svg xmlns="http://www.w3.org/2000/svg" viewBox="0 0 166.32 232.9"><defs><style>.cls-1{fill:#fff;}.cls-2{fill:#151515;}</style></defs><g id="Layer_2" data-name="Layer 2"><g id="Objects"><rect class="cls-1" width="166.32" height="232.9" rx="5.94"/><path d="M13,25.16a2.27,2.27,0,0,1-.42-.78,2.77,2.77,0,0,1-.12-.75A1.42,1.42,0,0,1,13,22.52a1.23,1.23,0,0,1,.8-.29.84.84,0,0,1,.7.35.81.81,0,0,1,.12.25,1.3,1.3,0,0,1,0,.31.86.86,0,0,1-.25.58,2.25,2.25,0,0,1-.37.33.63.63,0,0,0-.24.25.56.56,0,0,0-.07.3.74.74,0,0,0,.4.61,2.27,2.27,0,0,0,1.21.26,2.34,2.34,0,0,0,1.33-.41,3.06,3.06,0,0,0,1.06-1.35,7.28,7.28,0,0,0,.5-1.82,11.64,11.64,0,0,0,.18-1.81V19.2l-.14-.06a2.88,2.88,0,0,1-1.08,1.22,2.6,2.6,0,0,1-1.4.47,3.67,3.67,0,0,1-2.2-.64,3.52,3.52,0,0,1-1.16-1.46,4.86,4.86,0,0,1-.41-2,5.24,5.24,0,0,1,.47-2.11,4.46,4.46,0,0,1,1.37-1.76,3.59,3.59,0,0,1,4.34.08,5,5,0,0,1,1.49,2.22,10,10,0,0,1,.52,3.41,12.28,12.28,0,0,1-.41,3.13,7,7,0,0,1-1.18,2.54,4.15,4.15,0,0,1-3.32,1.82A2.88,2.88,0,0,1,13,25.16Zm3.9-5.49a3,3,0,0,0,.86-1.27,5.08,5.08,0,0,0,.32-1.9,6,6,0,0,0-.5-2.64,1.72,1.72,0,0,0-1.67-1,1.79,1.79,0,0,0-1.72,1.12,6,6,0,0,0-.53,2.56,6.15,6.15,0,0,0,.47,2.59,1.59,1.59,0,0,0,1.55,1A1.85,1.85,0,0,0,16.92,19.67Z"/><path d="M151.36,208.66a2.15,2.15,0,0,1,.42.77,2.89,2.89,0,0,1,.12.76,1.43,1.43,0,0,1-.48,1.11,1.23,1.23,0,0,1-.8.29.81.81,0,0,1-.69-.35.67.67,0,0,1-.13-.25,1.3,1.3,0,0,1,0-.31.9.9,0,0,1,.25-.59,2.25,2.25,0,0,1,.37-.33.59.59,0,0,0,.31-.54.73.73,0,0,0-.4-.61,2.27,2.27,0,0,0-1.21-.26,2.36,2.36,0,0,0-1.33.41,3.06,3.06,0,0,0-1.06,1.35,7.28,7.28,0,0,0-.5,1.82,11.53,11.53,0,0,0-.18,1.81v.88l.14,0a2.91,2.91,0,0,1,1.08-1.21,2.52,2.52,0,0,1,1.4-.47,3.67,3.67,0,0,1,2.2.64,3.52,3.52,0,0,1,1.16,1.46,4.86,4.86,0,0,1,.41,2,5.24,5.24,0,0,1-.47,2.11,4.42,4.42,0,0,1-1.36,1.75,3.37,3.37,0,0,1-2.13.7,3.46,3.46,0,0,1-2.22-.77,5,5,0,0,1-1.49-2.23,9.92,9.92,0,0,1-.52-3.4,12.28,12.28,0,0,1,.41-3.13,7,7,0,0,1,1.18-2.54,4.12,4.12,0,0,1,3.32-1.82A2.88,2.88,0,0,1,151.36,208.66Zm-3.9,5.49a3,3,0,0,0-.86,1.27,5.06,5.06,0,0,0-.32,1.89,6.14,6.14,0,0,0,.5,2.65,1.72,1.72,0,0,0,1.67,1,1.79,1.79,0,0,0,1.72-1.12,6,6,0,0,0,.53-2.57,6.3,6.3,0,0,0-.46-2.58,1.61,1.61,0,0,0-1.56-1A1.86,1.86,0,0,0,147.46,214.15Z"/><path class="cls-2" d="M90.7,113c-3.63-4-7.85-7.83-9.62-9.86-1.32-1.52-2.26-2.68-2.65-3.16v-.25l-.1.12-.09-.12V100c-.39.48-1.33,1.64-2.65,3.16-1.77,2-6,5.89-9.63,9.86a12.08,12.08,0,0,0-3.24,11.21c.69,3.28,4.13,6.37,9.53,5.7a6.06,6.06,0,0,0,3.84-2A12.57,12.57,0,0,1,73,135H83.44a13.39,13.39,0,0,1-2.83-7,6,6,0,0,0,3.81,2c5.4.67,8.84-2.42,9.52-5.7A12,12,0,0,0,90.7,113Z"/><path class="cls-2" d="M59.17,41.55c-3.63-4-7.85-7.82-9.62-9.85-1.33-1.52-2.27-2.68-2.65-3.16v-.25l-.1.12-.1-.12v.25c-.38.48-1.32,1.64-2.65,3.16-1.77,2-6,5.89-9.62,9.85a12.06,12.06,0,0,0-3.24,11.21c.69,3.29,4.12,6.38,9.52,5.71a6.06,6.06,0,0,0,3.84-2,12.57,12.57,0,0,1-3.12,7.07H51.9a13.5,13.5,0,0,1-2.83-7,6.08,6.08,0,0,0,3.82,2c5.4.67,8.83-2.42,9.52-5.71A12.06,12.06,0,0,0,59.17,41.55Z"/><path class="cls-2" d="M59.17,92.12c-3.63-4-7.85-7.83-9.62-9.86-1.33-1.52-2.27-2.68-2.65-3.16v-.25l-.1.13-.1-.13v.25c-.38.48-1.32,1.64-2.65,3.16-1.77,2-6,5.9-9.62,9.86a12.05,12.05,0,0,0-3.24,11.21c.69,3.28,4.12,6.38,9.52,5.7a6,6,0,0,0,3.84-2,12.57,12.57,0,0,1-3.12,7.07H51.9a13.44,13.44,0,0,1-2.83-7,6,6,0,0,0,3.82,2c5.4.68,8.83-2.42,9.52-5.7A12.05,12.05,0,0,0,59.17,92.12Z"/><path class="cls-2" d="M59.17,201.93c-3.63,4-7.85,7.82-9.62,9.85-1.33,1.52-2.27,2.68-2.65,3.16v.25l-.1-.12-.1.12v-.25c-.38-.48-1.32-1.64-2.65-3.16-1.77-2-6-5.89-9.62-9.85a12.06,12.06,0,0,1-3.24-11.21c.69-3.29,4.12-6.38,9.52-5.7a6,6,0,0,1,3.84,2A12.57,12.57,0,0,0,41.43,180H51.9A13.5,13.5,0,0,0,49.07,187a6,6,0,0,1,3.82-2c5.4-.68,8.83,2.41,9.52,5.7A12.06,12.06,0,0,1,59.17,201.93Z"/><path class="cls-2" d="M127.76,41.55c-3.63-4-7.85-7.82-9.62-9.85-1.32-1.52-2.26-2.68-2.65-3.16v-.25l-.1.12-.1-.12v.25c-.38.48-1.32,1.64-2.65,3.16-1.76,2-6,5.89-9.62,9.85a12.09,12.09,0,0,0-3.24,11.21c.69,3.29,4.13,6.38,9.53,5.71a6.06,6.06,0,0,0,3.83-2A12.49,12.49,0,0,1,110,63.5H120.5a13.44,13.44,0,0,1-2.84-7,6.11,6.11,0,0,0,3.82,2c5.4.67,8.83-2.42,9.52-5.71A12.06,12.06,0,0,0,127.76,41.55Z"/><path class="cls-2" d="M127.76,92.12c-3.63-4-7.85-7.83-9.62-9.86-1.32-1.52-2.26-2.68-2.65-3.16v-.25a1,1,0,0,1-.1.13l-.1-.13v.25c-.38.48-1.32,1.64-2.65,3.16-1.76,2-6,5.9-9.62,9.86a12.08,12.08,0,0,0-3.24,11.21c.69,3.28,4.13,6.38,9.53,5.7a6,6,0,0,0,3.83-2,12.49,12.49,0,0,1-3.12,7.07H120.5a13.38,13.38,0,0,1-2.84-7,6.05,6.05,0,0,0,3.82,2c5.4.68,8.83-2.42,9.52-5.7A12.05,12.05,0,0,0,127.76,92.12Z"/><path class="cls-2" d="M127.76,201.93c-3.63,4-7.85,7.82-9.62,9.85-1.32,1.52-2.26,2.68-2.65,3.16v.25l-.1-.12-.1.12v-.25c-.38-.48-1.32-1.64-2.65-3.16-1.76-2-6-5.89-9.62-9.85a12.09,12.09,0,0,1-3.24-11.21c.69-3.29,4.13-6.38,9.53-5.7a6,6,0,0,1,3.83,2A12.49,12.49,0,0,0,110,180H120.5a13.44,13.44,0,0,0-2.84,7.05,6.05,6.05,0,0,1,3.82-2c5.4-.68,8.83,2.41,9.52,5.7A12.06,12.06,0,0,1,127.76,201.93Z"/><path class="cls-2" d="M59.17,151.36c-3.63,4-7.85,7.83-9.62,9.86-1.33,1.52-2.27,2.68-2.65,3.16v.25l-.1-.13-.1.13v-.25c-.38-.48-1.32-1.64-2.65-3.16-1.77-2-6-5.9-9.62-9.86a12.05,12.05,0,0,1-3.24-11.21c.69-3.28,4.12-6.38,9.52-5.7a6,6,0,0,1,3.84,2,12.57,12.57,0,0,0-3.12-7.07H51.9a13.44,13.44,0,0,0-2.83,7,6,6,0,0,1,3.82-2c5.4-.68,8.83,2.42,9.52,5.7A12.05,12.05,0,0,1,59.17,151.36Z"/><path class="cls-2" d="M127.76,151.36c-3.63,4-7.85,7.83-9.62,9.86-1.32,1.52-2.26,2.68-2.65,3.16v.25a1,1,0,0,0-.1-.13l-.1.13v-.25c-.38-.48-1.32-1.64-2.65-3.16-1.76-2-6-5.9-9.62-9.86a12.08,12.08,0,0,1-3.24-11.21c.69-3.28,4.13-6.38,9.53-5.7a6,6,0,0,1,3.83,2,12.49,12.49,0,0,0-3.12-7.07H120.5a13.38,13.38,0,0,0-2.84,7,6.05,6.05,0,0,1,3.82-2c5.4-.68,8.83,2.42,9.52,5.7A12.05,12.05,0,0,1,127.76,151.36Z"/><path class="cls-2" d="M20.41,33.71c-1.07-1.17-2.31-2.31-2.83-2.91s-.67-.79-.79-.93V29.8l0,0,0,0v.07L16,30.8c-.52.6-1.76,1.74-2.84,2.91A3.57,3.57,0,0,0,12.16,37,2.37,2.37,0,0,0,15,38.7a1.76,1.76,0,0,0,1.13-.6,3.74,3.74,0,0,1-.92,2.09h3.09a4.09,4.09,0,0,1-.84-2.08,1.8,1.8,0,0,0,1.13.59A2.37,2.37,0,0,0,21.37,37,3.55,3.55,0,0,0,20.41,33.71Z"/><path class="cls-2" d="M150.7,199.86c-1.07,1.17-2.32,2.31-2.84,2.9s-.67.79-.78.94v.07l0,0,0,0v-.07c-.11-.15-.39-.49-.78-.94s-1.77-1.73-2.84-2.9a3.58,3.58,0,0,1-1-3.31,2.38,2.38,0,0,1,2.81-1.68,1.79,1.79,0,0,1,1.14.6,3.74,3.74,0,0,0-.92-2.09h3.08a4,4,0,0,0-.83,2.08,1.75,1.75,0,0,1,1.12-.59,2.37,2.37,0,0,1,2.81,1.68A3.54,3.54,0,0,1,150.7,199.86Z"/><path class="cls-1" d="M149.36,17.46a.56.56,0,0,1-.57.57.57.57,0,0,1-.57-.57.58.58,0,0,1,.57-.57A.57.57,0,0,1,149.36,17.46Z"/><path class="cls-1" d="M122.24,17.46a.57.57,0,1,1-1.14,0,.57.57,0,1,1,1.14,0Z"/><path class="cls-1" d="M97.29,17.46a.56.56,0,0,1-.57.57.57.57,0,0,1-.57-.57.58.58,0,0,1,.57-.57A.57.57,0,0,1,97.29,17.46Z"/><path class="cls-1" d="M72.24,17.65a.57.57,0,1,1-.56-.57A.56.56,0,0,1,72.24,17.65Z"/><path class="cls-1" d="M149.36,38.61a.56.56,0,0,1-.57.56.57.57,0,1,1,.57-.56Z"/><path class="cls-1" d="M149.36,57.9a.57.57,0,0,1-.57.57.58.58,0,0,1-.57-.57.57.57,0,0,1,.57-.57A.56.56,0,0,1,149.36,57.9Z"/><path class="cls-1" d="M149.36,78.12a.56.56,0,0,1-.57.56.57.57,0,1,1,.57-.56Z"/><path class="cls-1" d="M149.36,90.9a.57.57,0,0,1-.57.57.58.58,0,0,1-.57-.57.57.57,0,0,1,.57-.57A.56.56,0,0,1,149.36,90.9Z"/><path class="cls-1" d="M149.36,103.73a.57.57,0,0,1-.57.57.58.58,0,0,1-.57-.57.57.57,0,0,1,.57-.57A.56.56,0,0,1,149.36,103.73Z"/><path class="cls-1" d="M19.1,18a.57.57,0,0,1-.57.57A.56.56,0,0,1,18,18a.57.57,0,0,1,.57-.57A.58.58,0,0,1,19.1,18Z"/><path class="cls-1" d="M46.53,17.65a.57.57,0,0,1-1.14,0,.57.57,0,0,1,1.14,0Z"/><path class="cls-1" d="M19.1,38.16a.58.58,0,0,1-.57.57.57.57,0,0,1-.57-.57.56.56,0,0,1,.57-.57A.57.57,0,0,1,19.1,38.16Z"/><path class="cls-1" d="M19.1,58a.58.58,0,0,1-.57.57A.57.57,0,0,1,18,58a.56.56,0,0,1,.57-.57A.57.57,0,0,1,19.1,58Z"/><path class="cls-1" d="M19.1,78a.57.57,0,0,1-.57.57A.56.56,0,0,1,18,78a.57.57,0,0,1,.57-.57A.58.58,0,0,1,19.1,78Z"/><path class="cls-1" d="M19.1,90.9a.58.58,0,0,1-.57.57A.57.57,0,0,1,18,90.9a.56.56,0,0,1,.57-.57A.57.57,0,0,1,19.1,90.9Z"/><path class="cls-1" d="M19.1,104.3a.58.58,0,0,1-.57.57.57.57,0,0,1-.57-.57.56.56,0,0,1,.57-.57A.57.57,0,0,1,19.1,104.3Z"/><path class="cls-1" d="M19.1,117.23a.58.58,0,0,1-.57.57.57.57,0,0,1-.57-.57.56.56,0,0,1,.57-.57A.57.57,0,0,1,19.1,117.23Z"/><path class="cls-1" d="M19.1,130.15a.57.57,0,0,1-.57.57.56.56,0,0,1-.57-.57.57.57,0,0,1,.57-.57A.58.58,0,0,1,19.1,130.15Z"/><path class="cls-1" d="M19.1,143.55a.58.58,0,0,1-.57.57.57.57,0,0,1,0-1.14A.58.58,0,0,1,19.1,143.55Z"/><path class="cls-1" d="M19.1,157a.58.58,0,0,1-.57.57A.57.57,0,0,1,18,157a.56.56,0,0,1,.57-.57A.57.57,0,0,1,19.1,157Z"/><path class="cls-1" d="M19.1,169a.58.58,0,0,1-.57.57A.57.57,0,0,1,18,169a.56.56,0,0,1,.57-.57A.57.57,0,0,1,19.1,169Z"/><path class="cls-1" d="M19.1,182.38a.58.58,0,0,1-.57.57.57.57,0,0,1-.57-.57.56.56,0,0,1,.57-.57A.57.57,0,0,1,19.1,182.38Z"/><path class="cls-1" d="M19.1,195.42a.57.57,0,0,1-.57.57.57.57,0,1,1,.57-.57Z"/><path class="cls-1" d="M19.33,214.61a.58.58,0,0,1-.57.57.57.57,0,0,1,0-1.14A.58.58,0,0,1,19.33,214.61Z"/><path class="cls-1" d="M39.85,215.18a.57.57,0,0,1-1.14,0,.57.57,0,0,1,1.14,0Z"/><path class="cls-1" d="M66.29,215.18a.57.57,0,0,1-.57.57.58.58,0,0,1-.57-.57.57.57,0,0,1,.57-.57A.56.56,0,0,1,66.29,215.18Z"/><path class="cls-1" d="M92.69,215.18a.57.57,0,0,1-.57.57.58.58,0,0,1-.57-.57.57.57,0,0,1,.57-.57A.56.56,0,0,1,92.69,215.18Z"/><path class="cls-1" d="M118.41,215.18a.58.58,0,0,1-.57.57.57.57,0,0,1-.57-.57.56.56,0,0,1,.57-.57A.57.57,0,0,1,118.41,215.18Z"/><path class="cls-1" d="M149.36,116.91a.56.56,0,0,1-.57.57.57.57,0,0,1-.57-.57.58.58,0,0,1,.57-.57A.57.57,0,0,1,149.36,116.91Z"/><path class="cls-1" d="M149.36,129.24a.56.56,0,0,1-.57.57.57.57,0,0,1-.57-.57.58.58,0,0,1,.57-.57A.57.57,0,0,1,149.36,129.24Z"/><path class="cls-1" d="M149.36,142.53a.56.56,0,0,1-.57.57.57.57,0,0,1-.57-.57.58.58,0,0,1,.57-.57A.57.57,0,0,1,149.36,142.53Z"/><path class="cls-1" d="M149.36,155.64a.57.57,0,0,1-.57.57.58.58,0,0,1-.57-.57.57.57,0,0,1,.57-.57A.56.56,0,0,1,149.36,155.64Z"/><path class="cls-1" d="M149.36,168.39a.56.56,0,0,1-.57.57.57.57,0,0,1-.57-.57.58.58,0,0,1,.57-.57A.57.57,0,0,1,149.36,168.39Z"/><path class="cls-1" d="M149.36,181a.57.57,0,0,1-.57.57.58.58,0,0,1-.57-.57.57.57,0,0,1,.57-.57A.56.56,0,0,1,149.36,181Z"/><path class="cls-1" d="M149.36,193.81a.56.56,0,0,1-.57.56.57.57,0,1,1,.57-.56Z"/><path class="cls-1" d="M149.36,213.38a.56.56,0,0,1-.57.56.57.57,0,1,1,.57-.56Z"/></g></g></svg>