<svg width="70" height="51" viewBox="0 0 70 51" fill="none" xmlns="http://www.w3.org/2000/svg">
<path d="M28.2906 2.51195L27.2563 2.03629C25.2322 1.12614 22.7057 0.597388 20.5338 1.09363C18.1993 1.62672 16.3377 2.94535 15.3626 4.926L13.9737 4.40158C11.5802 3.49794 10.3273 3.48385 9.28861 3.82624C8.45974 4.0982 7.59541 4.75264 6.61584 5.70829L18.7903 12.6113C20.6963 13.0664 23.4887 13.0556 26.2812 12.5246C29.0884 11.9937 31.8809 10.9536 33.9198 9.55583L38.5148 1.22366C34.4665 -1.12214 30.7727 0.23658 28.2906 2.51195ZM36.136 10.8019C33.6243 12.6655 29.8862 13.9224 26.9756 14.4858C25.9561 14.6808 24.9367 14.8217 23.9468 14.8975C23.4001 15.5585 22.9421 16.2302 22.5875 16.902C23.2967 19.5458 24.6264 21.7128 26.621 23.4897L24.4934 24.79C23.2671 23.7064 22.1738 22.5363 21.3464 21.236C21.2134 23.7498 21.9817 26.3502 23.2376 29.059L20.6224 29.7091C18.3175 24.7683 17.5345 19.7083 20.7702 14.9409C19.6768 14.8759 18.6426 14.7242 17.6822 14.475L17.6379 14.4641C17.0026 14.9084 16.3968 15.3743 15.8206 15.8618C11.1562 19.8275 8.5868 25.1042 9.93132 29.2107C10.6509 31.4102 11.9407 33.4905 13.7964 35.2675C16.515 35.2241 19.0858 35.2675 21.4203 35.9176C22.5284 35.8309 23.666 35.7767 24.848 35.7767C29.0589 35.7767 32.8708 36.351 35.7519 37.3478C36.8748 37.7379 37.8942 38.2038 38.7068 38.7347C38.7068 38.1604 38.825 37.5428 39.0614 37.0878C37.7465 36.1776 36.9191 35.0724 36.9191 33.8156C36.9191 32.0711 38.5 30.6301 40.7901 29.5899C40.7901 29.0915 40.9231 28.6147 41.1595 28.1597C39.6672 27.217 38.7068 26.0468 38.7068 24.6816C38.7068 23.8256 39.091 23.0455 39.7411 22.3412C39.091 21.6478 38.7068 20.8677 38.7068 20.0117C38.7068 19.5891 38.7955 19.199 38.958 18.8198C37.5248 17.888 36.6236 16.7395 36.6236 15.4176C36.6236 14.1066 37.5101 12.9689 38.9285 12.0479C38.0567 11.5495 37.1259 11.1269 36.136 10.8019ZM52.5952 11.0511C48.7537 11.0511 45.2817 11.647 42.9029 12.5246C40.5094 13.4023 39.3865 14.4858 39.3865 15.4176C39.3865 16.3603 40.5094 17.4438 42.9029 18.3214C45.2817 19.1991 48.7537 19.795 52.5952 19.795C54.2648 19.795 55.8457 19.6758 57.3084 19.4808V17.6388C59.3621 17.4113 61.0612 16.9995 62.1545 16.4686V18.3756C64.0014 17.9855 65.7744 16.5445 65.8187 15.4176C65.8187 14.4858 64.6958 13.4023 62.3023 12.5246C59.9088 11.647 56.4515 11.0511 52.5952 11.0511ZM66.853 18.3864C66.3654 18.7656 65.7892 19.1232 65.1391 19.4483L65.1686 22.5904C67.0303 21.7778 67.902 20.8351 67.902 20.0117C67.902 19.4916 67.5621 18.9282 66.853 18.3864ZM41.4697 20.055C41.5141 20.9868 42.637 22.0378 44.9862 22.9046C47.3797 23.7931 50.837 24.3782 54.6932 24.3782C57.1015 24.3782 59.3621 24.1398 61.2976 23.7498L61.401 20.8026C58.8598 21.4527 55.8457 21.8103 52.5952 21.8103C48.3844 21.8103 44.5577 21.1927 41.6618 20.1309C41.5879 20.1092 41.5288 20.0767 41.4697 20.055ZM41.7652 23.8256C41.5584 24.1182 41.4697 24.4107 41.4697 24.6816C41.4697 25.6243 42.5926 26.7078 44.9862 27.5854C47.3797 28.463 50.837 29.0481 54.6932 29.0481C56.6435 29.0481 58.4904 28.9073 60.1599 28.6364V26.036C58.4461 26.2744 56.614 26.3935 54.6932 26.3935C50.4676 26.3935 46.6409 25.7868 43.7451 24.7141C43.0211 24.4541 42.3562 24.1507 41.7652 23.8256ZM67.6065 23.8256C66.7052 24.2915 65.9221 24.6383 65.0061 24.9308V27.347C66.9712 26.5127 67.902 25.5376 67.902 24.6816C67.902 24.4107 67.8133 24.1182 67.6065 23.8256ZM68.7146 27.8129C68.4191 28.0296 68.094 28.2355 67.7394 28.4414V31.9519C69.2613 31.1935 70 30.3592 70 29.6007C70 29.0265 69.5715 28.4089 68.7146 27.8129ZM43.5825 29.3298C43.5678 29.4274 43.553 29.514 43.553 29.6007C43.553 30.5434 44.6759 31.616 47.0694 32.4937C49.4629 33.3822 52.935 33.9673 56.7765 33.9673C58.978 33.9673 61.076 33.7722 62.8933 33.4472V30.2075C60.485 30.7709 57.6925 31.0743 54.6932 31.0743C50.4676 31.0743 46.6409 30.4567 43.7451 29.3949C43.686 29.3732 43.6416 29.3515 43.5825 29.3298ZM41.5732 31.6486C40.2878 32.3528 39.682 33.1221 39.682 33.8156C39.682 34.7582 40.8049 35.8309 43.1984 36.7194C45.5919 37.597 49.0492 38.1821 52.9055 38.1821C54.3091 38.1821 55.6684 38.1063 56.939 37.9654V35.9934H56.7765C52.5509 35.9934 48.7242 35.3758 45.8283 34.3031C43.9815 33.6314 42.4449 32.7321 41.5732 31.6486ZM65.5823 34.9641C64.4151 35.2675 63.1445 35.5167 61.7852 35.6792V36.9902C62.0659 36.9036 62.3466 36.8169 62.6126 36.7194C64.0605 36.1776 65.0356 35.5709 65.5823 34.9641ZM66.9416 36.9361C66.3802 37.3478 65.7301 37.7162 65.0061 38.0521V41.1509C66.9712 40.3274 67.902 39.3523 67.902 38.4963C67.902 37.9979 67.5917 37.4562 66.9416 36.9361ZM15.4217 37.2395C13.9146 37.2503 12.2894 37.3911 10.6051 37.6837C7.2349 38.258 4.33755 39.309 2.44637 40.4683C0.555188 41.6168 -0.183555 42.787 0.0380677 43.6213C0.259691 44.4556 1.42691 45.2249 3.70223 45.6691C5.97018 46.1025 9.14234 46.1242 12.511 45.55C13.8703 45.3116 15.1409 45.0082 16.3081 44.6506V42.4078C18.4653 41.7035 20.0757 40.8584 20.7997 40.0349V42.6787C22.5875 41.5518 23.2819 40.425 23.075 39.6015C22.8682 38.7672 21.6862 37.9979 19.4109 37.5645C18.2732 37.3478 16.9139 37.2286 15.4217 37.2395ZM24.9662 37.8029C25.3651 38.2254 25.6459 38.7022 25.7936 39.2331C25.9561 39.8832 25.8823 40.5116 25.6163 41.1292C27.079 41.411 28.4088 41.7902 29.5612 42.2669C30.2113 42.527 30.8171 42.8412 31.349 43.1662C32.6787 42.9387 33.8016 42.6137 34.5994 42.2236V44.4556C36.9782 43.6321 38.0715 42.6245 38.0715 41.8227C38.0715 41.0101 36.9782 40.0024 34.5847 39.1789C32.2059 38.3663 28.7781 37.8137 24.9662 37.8029ZM41.4845 38.3446C41.4697 38.388 41.4697 38.4421 41.4697 38.4963C41.4697 39.439 42.5926 40.5116 44.9862 41.4001C47.3797 42.2778 50.837 42.8629 54.6932 42.8629C56.6435 42.8629 58.4904 42.7112 60.1599 42.4511V39.5365C57.9733 39.9699 55.5059 40.2083 52.9055 40.2083C48.6799 40.2083 44.8532 39.5907 41.9573 38.5288C41.7948 38.4638 41.6323 38.3988 41.4845 38.3446ZM41.8982 42.3861C41.6027 42.7437 41.4697 43.0904 41.4697 43.4263C41.4697 44.3689 42.5926 45.4416 44.9862 46.3301C47.3797 47.2077 50.837 47.7928 54.6932 47.7928C56.6435 47.7928 58.4904 47.6411 60.1599 47.3811V44.5206C58.4461 44.759 56.614 44.889 54.6932 44.889C50.4676 44.889 46.6409 44.2714 43.7451 43.1987C43.0802 42.9604 42.4597 42.6895 41.8982 42.3861ZM67.4735 42.3861C66.6166 42.8087 65.863 43.1446 65.0061 43.4154V46.0809C66.9712 45.2574 67.902 44.2823 67.902 43.4263C67.902 43.0904 67.769 42.7437 67.4735 42.3861ZM24.2422 42.9712C23.7251 43.448 23.1194 43.903 22.4397 44.3148C20.1348 45.7342 16.8844 46.8827 13.1316 47.5219C11.7929 47.7495 10.4632 47.8903 9.18666 47.9662C9.65946 48.5404 10.4913 49.1039 11.7087 49.6023C13.7225 50.4366 16.6775 51 19.9575 51C21.4498 51 22.8682 50.8808 24.1684 50.6749V48.4213C26.2073 48.1937 27.9212 47.782 29.0145 47.2511V49.2447C30.492 48.4863 31.2012 47.6303 31.2012 46.8177C31.2012 45.875 30.2408 44.8673 28.2167 44.033C27.1233 43.5888 25.7641 43.2204 24.2422 42.9712Z" fill="#355060"/>
</svg>
