<svg xmlns="http://www.w3.org/2000/svg" viewBox="0 0 166.32 232.9"><defs><style>.cls-1{fill:#fff;}.cls-2{fill:#151515;}</style></defs><g id="Layer_2" data-name="Layer 2"><g id="Objects"><rect class="cls-1" width="166.32" height="232.9" rx="5.94"/><path class="cls-2" d="M20.17,33.9a2.45,2.45,0,0,0-2.62-.46,1.9,1.9,0,0,0,.68-1.63s0,0,0-.08a2.24,2.24,0,1,0-4.48,0,1.75,1.75,0,0,0,.05.46,2,2,0,0,0,.68,1.25,2.45,2.45,0,0,0-2.62.46,2.32,2.32,0,0,0-.19,2.91,2.06,2.06,0,0,0,2,1.09,2.53,2.53,0,0,0,1.86-.8,4.6,4.6,0,0,1-1,2.58h3.06a4.4,4.4,0,0,1-1-2.57,2.48,2.48,0,0,0,1.85.79,2.06,2.06,0,0,0,2-1.09A2.34,2.34,0,0,0,20.17,33.9Z"/><path d="M11.78,25h1.86a.68.68,0,0,0,.42-.11.54.54,0,0,0,.12-.39V15h-2.4v-.7h1.06a2.52,2.52,0,0,0,1.7-.56,2.44,2.44,0,0,0,.81-1.36H16V24.52a.54.54,0,0,0,.12.39.68.68,0,0,0,.42.11h1.86v.62H11.78Z"/><path d="M23.88,25a6.62,6.62,0,0,1-1.66-2.59,9.89,9.89,0,0,1,0-6.73,6.62,6.62,0,0,1,1.66-2.59,3.5,3.5,0,0,1,4.88,0,6.42,6.42,0,0,1,1.67,2.59,9.89,9.89,0,0,1,0,6.73A6.42,6.42,0,0,1,28.76,25a3.5,3.5,0,0,1-4.88,0Zm4.57-1.45A16.56,16.56,0,0,0,29,19a16.59,16.59,0,0,0-.52-4.51,2.15,2.15,0,0,0-4.25,0A17,17,0,0,0,23.69,19a17,17,0,0,0,.51,4.51,2.15,2.15,0,0,0,4.25,0Z"/><path class="cls-2" d="M142.19,199.63a2.45,2.45,0,0,0,2.62.46,1.9,1.9,0,0,0-.68,1.63v.08a2.24,2.24,0,0,0,4.47,0,2.32,2.32,0,0,0,0-.46,2,2,0,0,0-.69-1.25,2.45,2.45,0,0,0,2.62-.46,2.34,2.34,0,0,0,.2-2.91,2.09,2.09,0,0,0-2-1.09,2.53,2.53,0,0,0-1.86.8,4.6,4.6,0,0,1,1-2.58h-3.06a4.34,4.34,0,0,1,1,2.57,2.47,2.47,0,0,0-1.85-.79,2.07,2.07,0,0,0-2,1.09A2.35,2.35,0,0,0,142.19,199.63Z"/><path d="M150.58,208.52h-1.86a.62.62,0,0,0-.42.11.54.54,0,0,0-.12.39v9.53h2.4v.7h-1.06a2.52,2.52,0,0,0-1.7.56,2.44,2.44,0,0,0-.81,1.36h-.62V209a.54.54,0,0,0-.12-.39.62.62,0,0,0-.42-.11H144v-.63h6.59Z"/><path d="M138.48,208.57a6.56,6.56,0,0,1,1.65,2.59,9.76,9.76,0,0,1,0,6.74,6.49,6.49,0,0,1-1.65,2.59,3.5,3.5,0,0,1-4.88,0,6.42,6.42,0,0,1-1.67-2.59,9.76,9.76,0,0,1,0-6.74,6.49,6.49,0,0,1,1.67-2.59,3.5,3.5,0,0,1,4.88,0ZM133.91,210a19.73,19.73,0,0,0,0,9,2.15,2.15,0,0,0,4.25,0,20.2,20.2,0,0,0,0-9,2.15,2.15,0,0,0-4.25,0Z"/><path class="cls-2" d="M94.81,67.77c-3.58-3.9-9.07-1.58-9.07-1.58,1.53-1.65,2.56-2.95,2.37-5.64,0-.09,0-.19,0-.28a7.75,7.75,0,0,0-15.5,0,8.22,8.22,0,0,0,.16,1.58c.18,1.86,1.1,3,2.37,4.34,0,0-5.5-2.32-9.07,1.58a8.11,8.11,0,0,0-.67,10.07c1.13,1.52,2.82,4.08,6.79,3.79,3.52-.27,4-.87,6.46-2.8a15.93,15.93,0,0,1-3.51,8.94H85.74c-1.95-2-3.67-6.74-3.45-8.89,2.37,1.89,2.91,2.49,6.4,2.75,4,.29,5.66-2.27,6.78-3.79A8.1,8.1,0,0,0,94.81,67.77Z"/><path class="cls-2" d="M56.73,41.15c-3.58-3.91-9.07-1.59-9.07-1.59,1.53-1.64,2.56-3,2.37-5.64v-.27a7.75,7.75,0,1,0-15.49,0,8.12,8.12,0,0,0,.16,1.57c.18,1.86,1.1,3,2.36,4.34,0,0-5.49-2.32-9.07,1.59a8.1,8.1,0,0,0-.66,10.06c1.13,1.53,2.81,4.08,6.79,3.79,3.51-.26,4-.86,6.45-2.79a16,16,0,0,1-3.51,8.94h10.6c-1.95-2-3.67-6.75-3.45-8.89,2.37,1.89,2.91,2.48,6.39,2.74,4,.29,5.66-2.26,6.79-3.79A8.1,8.1,0,0,0,56.73,41.15Z"/><path class="cls-2" d="M56.73,91.31c-3.58-3.9-9.07-1.59-9.07-1.59,1.53-1.64,2.56-2.94,2.37-5.63v-.28a7.75,7.75,0,1,0-15.49,0,8,8,0,0,0,.16,1.57c.18,1.87,1.1,3,2.36,4.34,0,0-5.49-2.31-9.07,1.59a8.12,8.12,0,0,0-.66,10.07c1.13,1.52,2.81,4.08,6.79,3.78,3.51-.26,4-.86,6.45-2.79a16,16,0,0,1-3.51,8.94h10.6c-1.95-2-3.67-6.74-3.45-8.89,2.37,1.89,2.91,2.48,6.39,2.74,4,.3,5.66-2.26,6.79-3.78A8.12,8.12,0,0,0,56.73,91.31Z"/><path class="cls-2" d="M56.73,196.39c-3.58,3.91-9.07,1.59-9.07,1.59,1.53,1.64,2.56,3,2.37,5.64v.27a7.75,7.75,0,1,1-15.49,0,8.12,8.12,0,0,1,.16-1.57c.18-1.86,1.1-3,2.36-4.34,0,0-5.49,2.32-9.07-1.59a8.12,8.12,0,0,1-.66-10.07c1.13-1.52,2.81-4.08,6.79-3.78,3.51.26,4,.86,6.45,2.79a16,16,0,0,0-3.51-8.94h10.6c-1.95,2.05-3.67,6.75-3.45,8.89,2.37-1.89,2.91-2.48,6.39-2.74,4-.3,5.66,2.26,6.79,3.78A8.12,8.12,0,0,1,56.73,196.39Z"/><path class="cls-2" d="M135,41.15c-3.58-3.91-9.07-1.59-9.07-1.59,1.53-1.64,2.56-3,2.37-5.64,0-.09,0-.18,0-.27a7.75,7.75,0,0,0-15.5,0,8.12,8.12,0,0,0,.16,1.57c.18,1.86,1.1,3,2.37,4.34,0,0-5.5-2.32-9.07,1.59a8.09,8.09,0,0,0-.67,10.06c1.13,1.53,2.82,4.08,6.79,3.79,3.52-.26,4-.86,6.46-2.79a16,16,0,0,1-3.51,8.94h10.59c-2-2-3.67-6.75-3.45-8.89,2.37,1.89,2.91,2.48,6.4,2.74,4,.29,5.66-2.26,6.78-3.79A8.09,8.09,0,0,0,135,41.15Z"/><path class="cls-2" d="M135,91.31c-3.58-3.9-9.07-1.59-9.07-1.59,1.53-1.64,2.56-2.94,2.37-5.63,0-.1,0-.19,0-.28a7.75,7.75,0,0,0-15.5,0,8,8,0,0,0,.16,1.57c.18,1.87,1.1,3,2.37,4.34,0,0-5.5-2.31-9.07,1.59a8.11,8.11,0,0,0-.67,10.07c1.13,1.52,2.82,4.08,6.79,3.78,3.52-.26,4-.86,6.46-2.79a16,16,0,0,1-3.51,8.94h10.59c-2-2-3.67-6.74-3.45-8.89,2.37,1.89,2.91,2.48,6.4,2.74,4,.3,5.66-2.26,6.78-3.78A8.1,8.1,0,0,0,135,91.31Z"/><path class="cls-2" d="M135,196.39c-3.58,3.91-9.07,1.59-9.07,1.59,1.53,1.64,2.56,3,2.37,5.64,0,.09,0,.18,0,.27a7.75,7.75,0,0,1-15.5,0,8.12,8.12,0,0,1,.16-1.57c.18-1.86,1.1-3,2.37-4.34,0,0-5.5,2.32-9.07-1.59a8.11,8.11,0,0,1-.67-10.07c1.13-1.52,2.82-4.08,6.79-3.78,3.52.26,4,.86,6.46,2.79a16,16,0,0,0-3.51-8.94h10.59c-2,2.05-3.67,6.75-3.45,8.89,2.37-1.89,2.91-2.48,6.4-2.74,4-.3,5.66,2.26,6.78,3.78A8.1,8.1,0,0,1,135,196.39Z"/><path class="cls-2" d="M56.73,146.23c-3.58,3.9-9.07,1.59-9.07,1.59,1.53,1.64,2.56,2.94,2.37,5.63v.28a7.75,7.75,0,1,1-15.49,0,8.22,8.22,0,0,1,.16-1.58c.18-1.86,1.1-3,2.36-4.33,0,0-5.49,2.31-9.07-1.59a8.12,8.12,0,0,1-.66-10.07c1.13-1.52,2.81-4.08,6.79-3.79,3.51.27,4,.87,6.45,2.8a16,16,0,0,0-3.51-8.94h10.6c-1.95,2-3.67,6.74-3.45,8.89,2.37-1.89,2.91-2.49,6.39-2.75,4-.29,5.66,2.27,6.79,3.79A8.12,8.12,0,0,1,56.73,146.23Z"/><path class="cls-2" d="M135,146.23c-3.58,3.9-9.07,1.59-9.07,1.59,1.53,1.64,2.56,2.94,2.37,5.63,0,.09,0,.19,0,.28a7.75,7.75,0,0,1-15.5,0,8.22,8.22,0,0,1,.16-1.58c.18-1.86,1.1-3,2.37-4.33,0,0-5.5,2.31-9.07-1.59a8.11,8.11,0,0,1-.67-10.07c1.13-1.52,2.82-4.08,6.79-3.79,3.52.27,4,.87,6.46,2.8a15.93,15.93,0,0,0-3.51-8.94h10.59c-2,2-3.67,6.74-3.45,8.89,2.37-1.89,2.91-2.49,6.4-2.75,4-.29,5.66,2.27,6.78,3.79A8.1,8.1,0,0,1,135,146.23Z"/><path class="cls-2" d="M94.81,166.79c-3.58,3.91-9.07,1.59-9.07,1.59,1.53,1.64,2.56,3,2.37,5.64,0,.09,0,.18,0,.27a7.75,7.75,0,0,1-15.5,0,8.2,8.2,0,0,1,.16-1.57c.18-1.86,1.1-3,2.37-4.34,0,0-5.5,2.32-9.07-1.59a8.09,8.09,0,0,1-.67-10.06c1.13-1.53,2.82-4.08,6.79-3.79,3.52.26,4,.86,6.46,2.79a16,16,0,0,0-3.51-8.94H85.74c-1.95,2.05-3.67,6.75-3.45,8.89,2.37-1.89,2.91-2.48,6.4-2.74,4-.29,5.66,2.26,6.78,3.79A8.09,8.09,0,0,1,94.81,166.79Z"/></g></g></svg>